<?xml version="1.0" encoding="utf-8"?>
<svg viewBox="0 0 500 500" xmlns="http://www.w3.org/2000/svg">
  <path id="path18" style="fill: rgb(33, 29, 29); fill-opacity: 1; fill-rule: nonzero; stroke: none;" d="M 171.681 212.617 C 171.419 231.364 171.867 250.121 172.297 268.859 C 172.676 285.362 173.211 301.861 173.495 318.364 C 173.53 320.383 173.566 322.406 173.551 324.424 C 173.546 324.963 173.528 325.501 173.512 326.039 C 173.5 326.459 173.401 326.259 173.517 326.126 C 174.105 325.461 173.823 325.739 173.276 326.008 C 166.916 329.119 158.704 328.98 151.812 328.318 C 148.591 328.006 144.978 327.536 142.109 325.931 C 141.336 325.498 140.496 324.892 140.264 324.106 C 139.793 322.52 139.94 320.074 139.816 318.27 C 139.094 307.728 138.555 297.172 138.077 286.618 C 137.055 264.029 136.303 241.418 135.923 218.808 C 135.885 216.541 135.852 214.274 135.825 212.007 C 135.805 210.263 133.092 210.257 133.113 212.007 C 133.382 234.836 134.125 257.667 135.096 280.475 C 135.573 291.708 136.115 302.94 136.832 314.157 C 136.985 316.57 137.148 318.982 137.324 321.394 C 137.435 322.91 137.321 324.617 138.143 325.965 C 139.633 328.405 142.964 329.41 145.566 330.038 C 153.221 331.887 161.988 331.9 169.665 330.155 C 171.461 329.747 175.489 328.937 176.133 326.85 C 176.451 325.814 176.267 324.456 176.266 323.398 C 176.238 308.42 175.606 293.434 175.238 278.459 C 174.749 258.511 174.252 238.548 174.339 218.591 C 174.348 216.599 174.365 214.608 174.393 212.617 C 174.418 210.872 171.704 210.868 171.681 212.617"/>
  <path id="path20" style="fill: rgb(33, 29, 29); fill-opacity: 1; fill-rule: nonzero; stroke: none;" d="M 135.227 212.323 C 136.973 212.323 136.975 209.61 135.227 209.61 C 133.482 209.61 133.479 212.323 135.227 212.323"/>
  <path id="path22" style="fill: rgb(33, 29, 29); fill-opacity: 1; fill-rule: nonzero; stroke: none;" d="M 135.73 211.875 C 151.055 201.272 167.036 191.651 183.574 183.066 C 185.125 182.262 183.755 179.918 182.206 180.722 C 165.667 189.307 149.685 198.932 134.36 209.533 C 132.934 210.52 134.289 212.87 135.73 211.875"/>
  <path id="path24" style="fill: rgb(33, 29, 29); fill-opacity: 1; fill-rule: nonzero; stroke: none;" d="M 173.721 212.458 C 185.849 203.842 198.52 195.928 209.904 186.314 C 211.24 185.184 209.313 183.273 207.987 184.396 C 196.78 193.859 184.289 201.637 172.352 210.117 C 170.941 211.12 172.294 213.473 173.721 212.458"/>
  <path id="path26" style="fill: rgb(33, 29, 29); fill-opacity: 1; fill-rule: nonzero; stroke: none;" d="M 200.173 326.122 C 199.955 327.195 198.24 327.681 197.276 327.963 C 195.163 328.584 192.944 328.807 190.75 328.875 C 188.496 328.943 186.206 328.857 183.985 328.451 C 182.466 328.173 180.574 327.829 179.416 326.717 C 179.548 327.035 179.681 327.357 179.813 327.676 C 179.024 301.551 179.534 275.398 180.101 249.273 C 180.256 242.068 180.423 234.862 180.581 227.656 C 180.619 225.908 177.907 225.908 177.868 227.656 C 177.414 248.476 176.88 269.298 176.745 290.125 C 176.679 300.333 176.706 310.542 176.922 320.748 C 176.946 321.91 176.973 323.073 177.003 324.233 C 177.033 325.371 176.862 326.747 177.124 327.854 C 177.378 328.931 178.602 329.546 179.544 329.97 C 181.991 331.071 184.784 331.402 187.438 331.547 C 190.747 331.733 194.197 331.562 197.42 330.737 C 199.457 330.218 202.311 329.209 202.789 326.843 C 203.133 325.14 200.518 324.41 200.173 326.122"/>
  <path id="path28" style="fill: rgb(33, 29, 29); fill-opacity: 1; fill-rule: nonzero; stroke: none;" d="M 179.718 228.033 C 183.072 229.319 186.714 230.01 190.276 230.383 C 193.767 230.752 198.061 230.921 201.118 228.883 C 202.563 227.919 201.207 225.569 199.748 226.539 C 197.034 228.352 193.079 227.987 190.007 227.64 C 186.779 227.282 183.478 226.583 180.439 225.417 C 178.808 224.792 178.101 227.411 179.718 228.033"/>
  <path id="path30" style="fill: rgb(33, 29, 29); fill-opacity: 1; fill-rule: nonzero; stroke: none;" d="M 204.937 216.421 C 209.068 219.342 215.13 219.609 220 219.444 C 222.534 219.361 225.126 219.102 227.581 218.44 C 229.229 217.994 231.051 217.354 232.058 215.888 C 233.048 214.444 230.697 213.086 229.715 214.518 C 229.839 214.339 229.389 214.803 229.414 214.784 C 229.128 214.988 228.795 215.156 228.473 215.295 C 227.742 215.61 226.954 215.814 226.18 215.994 C 223.96 216.51 221.673 216.705 219.398 216.748 C 215.144 216.835 209.915 216.631 206.306 214.079 C 204.879 213.067 203.522 215.418 204.937 216.421"/>
  <path id="path32" style="fill: rgb(33, 29, 29); fill-opacity: 1; fill-rule: nonzero; stroke: none;" d="M 203.676 214.596 C 202.878 234.63 201.598 254.639 200.878 274.677 C 200.51 284.876 200.278 295.082 200.334 305.291 C 200.362 310.35 200.461 315.413 200.659 320.47 C 200.737 322.48 200.713 324.548 200.951 326.55 C 201.053 327.409 201.375 328.164 201.965 328.81 C 204.677 331.776 210.163 332.033 213.865 332.231 C 218.879 332.496 224.19 332.256 229.059 330.932 C 230.615 330.511 232.409 329.945 233.567 328.758 C 234.001 328.313 234.294 327.796 234.427 327.19 C 234.636 326.234 234.502 325.146 234.514 324.174 C 234.53 322.684 234.544 321.19 234.555 319.699 C 234.628 309.107 234.549 298.515 234.428 287.925 C 234.159 264.202 233.657 240.472 234.163 216.751 C 234.201 215.003 231.487 215.003 231.451 216.751 C 231.019 236.983 231.325 257.225 231.586 277.46 C 231.717 287.459 231.839 297.457 231.866 307.455 C 231.878 312.497 231.867 317.538 231.818 322.579 C 231.806 323.748 231.763 324.917 231.777 326.086 C 231.774 326.299 231.771 326.509 231.768 326.723 C 231.803 326.54 231.804 326.528 231.77 326.682 C 231.673 327.001 231.915 326.478 231.717 326.769 C 231.631 326.896 230.99 327.338 230.514 327.565 C 226.751 329.361 221.906 329.515 217.821 329.587 C 213.769 329.654 208.481 329.766 204.847 327.644 C 204.382 327.372 203.961 327.063 203.746 326.673 C 203.603 326.417 203.654 326.345 203.619 325.816 C 203.54 324.632 203.497 323.445 203.446 322.26 C 203.234 317.426 203.116 312.586 203.066 307.746 C 202.967 298.19 203.137 288.634 203.441 279.084 C 204.124 257.575 205.532 236.098 206.389 214.596 C 206.459 212.852 203.745 212.854 203.676 214.596"/>
  <path id="path34" style="fill: rgb(33, 29, 29); fill-opacity: 1; fill-rule: nonzero; stroke: none;" d="M 308.696 206.586 C 321.612 207.424 334.833 207.495 347.621 205.281 C 349.337 204.984 348.611 202.367 346.9 202.664 C 334.366 204.835 321.352 204.693 308.696 203.873 C 306.953 203.759 306.959 206.472 308.696 206.586"/>
  <path id="path36" style="fill: rgb(33, 29, 29); fill-opacity: 1; fill-rule: nonzero; stroke: none;" d="M 306.421 206.001 C 306.681 215.09 306.717 224.186 306.792 233.278 C 306.897 246.354 306.965 259.433 307.042 272.512 C 307.113 284.598 307.182 296.681 307.317 308.767 C 307.386 315.02 307.085 321.471 307.759 327.703 C 307.918 329.163 308.969 329.843 310.206 330.595 C 312.964 332.274 316.246 332.982 319.413 333.381 C 326.504 334.271 334.242 333.629 341.031 331.336 C 342.367 330.888 343.678 330.347 344.918 329.679 C 346.454 328.851 345.088 326.507 343.548 327.338 C 337.755 330.464 330.302 331.152 323.835 330.994 C 320.455 330.91 316.997 330.524 313.812 329.329 C 313.184 329.095 312.575 328.82 311.99 328.492 C 311.483 328.211 310.784 327.425 310.268 327.292 C 310.406 327.329 310.476 327.842 310.476 327.728 C 310.339 321.74 310.11 315.753 310.042 309.756 C 309.906 298.168 309.838 286.576 309.77 274.986 C 309.693 262.229 309.625 249.474 309.529 236.717 C 309.457 227.229 309.405 217.734 309.192 208.247 C 309.173 207.498 309.154 206.749 309.132 206.001 C 309.083 204.26 306.371 204.251 306.421 206.001"/>
  <path id="path38" style="fill: rgb(33, 29, 29); fill-opacity: 1; fill-rule: nonzero; stroke: none;" d="M 347.454 203.911 C 348.041 223.308 348.209 242.721 348.038 262.127 C 347.89 279.118 347.664 296.186 346.207 313.128 C 345.808 317.754 345.676 323.036 343.907 327.403 C 343.254 329.02 345.877 329.725 346.523 328.127 C 348.05 324.354 348.267 319.876 348.666 315.877 C 349.387 308.662 349.746 301.406 350.033 294.161 C 350.803 274.853 350.911 255.515 350.76 236.195 C 350.676 225.433 350.494 214.67 350.169 203.911 C 350.117 202.169 347.401 202.163 347.454 203.911"/>
  <path id="path40" style="fill: rgb(33, 29, 29); fill-opacity: 1; fill-rule: nonzero; stroke: none;" d="M 316.93 183.459 C 321.154 186.644 325.63 189.474 330.076 192.335 C 335.989 196.138 341.841 200.032 347.537 204.158 C 348.954 205.185 350.308 202.831 348.904 201.817 C 343.211 197.688 337.359 193.797 331.444 189.99 C 326.999 187.133 322.524 184.303 318.3 181.118 C 316.905 180.066 315.553 182.42 316.93 183.459"/>
  <path id="path42" style="fill: rgb(33, 29, 29); fill-opacity: 1; fill-rule: nonzero; stroke: none;" d="M 293.326 181.415 C 298.618 189.279 303.226 197.505 306.649 206.36 C 307.274 207.971 309.897 207.269 309.266 205.639 C 305.752 196.559 301.098 188.114 295.667 180.045 C 294.699 178.603 292.346 179.958 293.326 181.415"/>
  <path id="path44" style="fill: rgb(33, 29, 29); fill-opacity: 1; fill-rule: nonzero; stroke: none;" d="M 274.744 207.479 C 280.468 208.633 286.515 208.537 292.309 208.08 C 297.17 207.693 303.198 207.303 307.401 204.532 C 308.855 203.573 307.497 201.223 306.034 202.188 C 304.361 203.289 302.341 203.796 300.408 204.223 C 297.607 204.844 294.746 205.185 291.885 205.399 C 286.481 205.8 280.803 205.939 275.464 204.863 C 273.76 204.52 273.03 207.133 274.744 207.479"/>
  <path id="path46" style="fill: rgb(33, 29, 29); fill-opacity: 1; fill-rule: nonzero; stroke: none;" d="M 273.374 207.294 C 272.463 232.477 274.002 257.728 274.629 282.903 C 274.939 295.397 274.967 307.86 274.454 320.352 C 274.334 323.281 273.238 327.202 275.751 329.395 C 278.29 331.612 282.194 332.104 285.409 332.423 C 290.249 332.905 295.2 332.67 299.997 331.897 C 302.954 331.421 307.233 330.808 309.13 328.167 C 310.147 326.744 307.797 325.39 306.785 326.797 C 306.485 327.217 305.144 327.82 304.312 328.102 C 302.731 328.64 301.079 328.984 299.434 329.256 C 295.38 329.921 291.202 330.097 287.103 329.846 C 284.139 329.664 280.16 329.432 277.71 327.508 C 277.371 327.243 277.118 326.949 276.91 326.574 C 276.793 326.367 276.953 327.057 276.922 326.583 C 276.902 326.281 276.937 325.962 276.948 325.662 C 277.025 323.373 277.14 321.088 277.229 318.802 C 278.182 294.572 276.909 270.341 276.266 246.119 C 275.923 233.186 275.619 220.228 276.086 207.294 C 276.149 205.547 273.437 205.55 273.374 207.294"/>
  <path id="path48" style="fill: rgb(33, 29, 29); fill-opacity: 1; fill-rule: nonzero; stroke: none;" d="M 275.786 180.313 C 274.836 188.416 274.004 196.54 273.374 204.675 C 273.238 206.415 275.952 206.406 276.086 204.675 C 276.716 196.54 277.548 188.416 278.498 180.313 C 278.7 178.585 275.986 178.597 275.786 180.313"/>
  <path id="path50" style="fill: rgb(33, 29, 29); fill-opacity: 1; fill-rule: nonzero; stroke: none;" d="M 250.813 220.824 C 253.926 223.128 258.533 223.465 262.26 223.518 C 266.358 223.579 270.837 223.177 274.556 221.326 C 276.119 220.546 274.747 218.205 273.187 218.981 C 269.915 220.614 265.85 220.855 262.26 220.805 C 258.969 220.759 254.932 220.515 252.182 218.483 C 250.777 217.444 249.423 219.797 250.813 220.824"/>
  <path id="path52" style="fill: rgb(33, 29, 29); fill-opacity: 1; fill-rule: nonzero; stroke: none;" d="M 248.916 219.933 C 249.526 247.613 249.881 275.301 251.133 302.962 C 251.499 311.022 251.94 319.081 252.466 327.131 C 252.579 328.866 255.293 328.878 255.179 327.131 C 253.359 299.272 252.669 271.365 252.111 243.457 C 251.954 235.617 251.801 227.773 251.628 219.933 C 251.59 218.189 248.877 218.183 248.916 219.933"/>
  <path id="path54" style="fill: rgb(33, 29, 29); fill-opacity: 1; fill-rule: nonzero; stroke: none;" d="M 234.138 240.5 C 236.742 241.02 239.437 241.171 242.088 241.196 C 244.711 241.217 247.447 241.15 250.002 240.5 C 251.693 240.07 250.977 237.451 249.282 237.883 C 246.956 238.474 244.475 238.505 242.088 238.483 C 239.675 238.462 237.217 238.353 234.859 237.883 C 233.154 237.543 232.424 240.156 234.138 240.5"/>
  <path id="path56" style="fill: rgb(33, 29, 29); fill-opacity: 1; fill-rule: nonzero; stroke: none;" d="M 251.263 219.912 C 253.7 215.14 257.928 211.528 260.364 206.759 C 261.156 205.21 258.816 203.833 258.021 205.392 C 255.585 210.161 251.357 213.773 248.921 218.542 C 248.129 220.094 250.468 221.467 251.263 219.912"/>
  <path id="path58" style="fill: rgb(33, 29, 29); fill-opacity: 1; fill-rule: nonzero; stroke: none;" d="M 243.926 222.782 C 239.881 227.316 236.114 232.097 232.589 237.042 C 232.164 237.639 232.484 238.551 233.076 238.898 C 233.757 239.296 234.505 239.009 234.931 238.412 C 238.324 233.652 241.952 229.06 245.844 224.702 C 247.004 223.403 245.091 221.476 243.926 222.782"/>
  <path id="path60" style="fill: rgb(33, 29, 29); fill-opacity: 1; fill-rule: nonzero; stroke: none;" d="M 206.16 214.361 C 213.72 207.189 222.34 201.062 230.909 195.17 C 232.338 194.187 230.984 191.834 229.54 192.827 C 220.785 198.848 211.966 205.116 204.242 212.443 C 202.973 213.646 204.893 215.561 206.16 214.361"/>
  <path id="path62" style="fill: rgb(33, 29, 29); fill-opacity: 1; fill-rule: nonzero; stroke: none;" d="M 182.194 183.412 C 191.659 183.134 201.208 183.57 210.641 184.353 C 210.19 183.898 209.737 183.447 209.285 182.995 C 209.276 190.225 208.263 197.407 208.254 204.637 C 208.252 206.385 210.965 206.385 210.966 204.637 C 210.976 197.407 211.989 190.225 211.998 182.995 C 211.999 182.219 211.373 181.699 210.641 181.637 C 201.208 180.855 191.659 180.422 182.194 180.698 C 180.452 180.749 180.445 183.462 182.194 183.412"/>
  <path id="path64" style="fill: rgb(33, 29, 29); fill-opacity: 1; fill-rule: nonzero; stroke: none;" d="M 298.055 184.09 C 304.478 183.811 310.905 183.53 317.332 183.252 C 319.069 183.174 319.079 180.462 317.332 180.539 C 310.905 180.818 304.478 181.099 298.055 181.377 C 296.313 181.455 296.304 184.167 298.055 184.09"/>
  <path id="path66" style="fill: rgb(33, 29, 29); fill-opacity: 1; fill-rule: nonzero; stroke: none;" d="M 260.026 207.232 C 265.074 207.232 270.122 207.232 275.17 207.232 C 276.916 207.232 276.918 204.52 275.17 204.52 C 270.122 204.52 265.074 204.52 260.026 204.52 C 258.281 204.52 258.278 207.232 260.026 207.232"/>
  <path id="path68" style="fill: rgb(33, 29, 29); fill-opacity: 1; fill-rule: nonzero; stroke: none;" d="M 244.249 226.369 C 246.227 226.131 248.214 226.329 250.192 226.091 C 250.564 226.044 250.875 225.971 251.151 225.692 C 251.386 225.457 251.563 225.073 251.548 224.733 C 251.518 224.072 250.947 223.286 250.192 223.378 C 248.214 223.617 246.227 223.419 244.249 223.657 C 243.876 223.703 243.566 223.777 243.29 224.056 C 243.055 224.291 242.878 224.678 242.893 225.015 C 242.922 225.676 243.495 226.462 244.249 226.369"/>
  <path id="path70" style="fill: rgb(33, 29, 29); fill-opacity: 1; fill-rule: nonzero; stroke: none;" d="M 134.813 213.927 C 140.637 215.134 146.685 215.307 152.613 215.168 C 159.339 215.01 166.089 214.354 172.681 212.984 C 174.389 212.631 173.666 210.015 171.959 210.371 C 165.601 211.689 159.101 212.301 152.613 212.455 C 146.931 212.589 141.117 212.468 135.534 211.311 C 133.83 210.958 133.102 213.572 134.813 213.927"/>
  <path id="path72" style="fill: rgb(33, 29, 29); fill-opacity: 1; fill-rule: nonzero; stroke: none;" d="M 180.236 227.538 C 191.461 220.385 201.511 211.541 212.737 204.384 C 214.205 203.45 212.846 201.103 211.368 202.043 C 200.142 209.196 190.092 218.044 178.867 225.197 C 177.399 226.134 178.758 228.481 180.236 227.538"/>
  <path id="path74" style="fill: rgb(33, 29, 29); fill-opacity: 1; fill-rule: nonzero; stroke: none;" d="M 231.554 195.353 C 236.267 195.375 240.901 196.547 245.613 196.568 C 247.36 196.578 247.361 193.863 245.613 193.856 C 240.901 193.835 236.267 192.663 231.554 192.641 C 229.809 192.634 229.806 195.347 231.554 195.353"/>
  <path id="path76" style="fill: rgb(33, 29, 29); fill-opacity: 1; fill-rule: nonzero; stroke: none;" d="M 244.095 195.326 C 244.096 204.81 243.449 214.277 243.811 223.762 C 243.878 225.503 246.59 225.512 246.523 223.762 C 246.161 214.277 246.81 204.81 246.807 195.326 C 246.807 193.581 244.093 193.578 244.095 195.326"/>
  <path id="path78" style="fill: rgb(33, 29, 29); fill-opacity: 1; fill-rule: nonzero; stroke: none;" d="M 233.378 215.953 C 238.063 209.771 242.92 203.542 246.784 196.804 C 247.655 195.285 245.312 193.918 244.443 195.434 C 240.577 202.175 235.721 208.401 231.035 214.583 C 230.589 215.171 230.946 216.096 231.522 216.439 C 232.213 216.854 232.937 216.532 233.378 215.953"/>
  <path id="path80" style="fill: rgb(33, 29, 29); fill-opacity: 1; fill-rule: nonzero; stroke: none;" d="M 278.129 181.672 C 283.497 181.235 288.87 181.124 294.251 181.344 C 295.998 181.412 295.995 178.699 294.251 178.628 C 288.87 178.411 283.497 178.523 278.129 178.959 C 276.401 179.099 276.386 181.813 278.129 181.672"/>
  <path id="path82" style="fill: rgb(33, 29, 29); fill-opacity: 1; fill-rule: nonzero; stroke: none;" d="M 213.358 204.083 C 213.435 204.071 213.513 204.059 213.591 204.05 C 213.471 204.065 213.35 204.083 213.231 204.099 C 213.983 204.003 214.741 204.007 215.494 204.102 C 215.374 204.087 215.254 204.071 215.133 204.056 C 215.73 204.137 216.312 204.276 216.881 204.474 C 217.551 204.708 218.395 204.207 218.549 203.527 C 218.722 202.769 218.32 202.111 217.602 201.86 C 215.999 201.3 214.306 201.21 212.638 201.468 C 212.323 201.517 211.979 201.829 211.826 202.092 C 211.657 202.382 211.584 202.809 211.69 203.137 C 211.796 203.465 211.999 203.781 212.313 203.948 C 212.656 204.127 212.977 204.142 213.358 204.083"/>
  <path id="path84" style="fill: rgb(33, 29, 29); fill-opacity: 1; fill-rule: nonzero; stroke: none;" d="M 201.99 228.364 C 202.949 227.628 203.907 226.895 204.866 226.159 C 205.024 226.073 205.151 225.958 205.247 225.809 C 205.366 225.68 205.448 225.525 205.49 225.349 C 205.579 225.024 205.539 224.591 205.353 224.303 C 205.166 224.013 204.888 223.759 204.542 223.678 C 204.212 223.604 203.78 223.601 203.497 223.818 C 202.539 224.55 201.58 225.286 200.621 226.022 C 200.463 226.107 200.336 226.224 200.24 226.372 C 200.121 226.503 200.04 226.657 199.998 226.834 C 199.909 227.158 199.949 227.588 200.135 227.879 C 200.322 228.166 200.599 228.423 200.945 228.5 C 201.275 228.578 201.709 228.58 201.99 228.364"/>
  <path id="path86" style="fill: rgb(33, 29, 29); fill-opacity: 1; fill-rule: nonzero; stroke: none;" d="M 233.366 327.926 C 239.301 330.66 246.057 331.188 252.321 329.271 C 253.985 328.761 253.276 326.141 251.6 326.655 C 246.066 328.349 240.005 328.013 234.735 325.582 C 234.065 325.275 233.281 325.399 232.88 326.071 C 232.531 326.652 232.702 327.619 233.366 327.926"/>
  <path id="path88" style="fill: rgb(33, 29, 29); fill-opacity: 1; fill-rule: nonzero; stroke: none;" d="M 252.632 327.854 C 253.328 329.379 255.022 330.233 256.503 330.801 C 258.571 331.6 260.826 331.937 263.028 332.091 C 267.11 332.376 272.279 332.11 275.506 329.256 C 276.817 328.096 274.892 326.185 273.588 327.338 C 272.422 328.367 270.721 328.813 269.205 329.101 C 267.258 329.469 265.242 329.515 263.27 329.395 C 261.408 329.28 259.543 328.987 257.774 328.386 C 257.096 328.154 256.437 327.867 255.841 327.468 C 255.416 327.18 255.184 326.945 254.974 326.488 C 254.25 324.901 251.911 326.278 252.632 327.854"/>
  <path id="path90" style="fill: rgb(33, 29, 29); fill-opacity: 1; fill-rule: nonzero; stroke: none;" d="M 141.643 213.51 C 145.71 210.677 149.777 207.845 153.843 205.012 C 154.555 204.516 153.878 203.341 153.159 203.842 C 149.092 206.675 145.025 209.508 140.959 212.341 C 140.247 212.836 140.924 214.011 141.643 213.51"/>
  <path id="path92" style="fill: rgb(33, 29, 29); fill-opacity: 1; fill-rule: nonzero; stroke: none;" d="M 178.907 189.947 C 182.346 187.634 185.784 185.32 189.222 183.008 C 189.942 182.522 189.263 181.347 188.537 181.835 C 185.099 184.148 181.661 186.462 178.222 188.775 C 177.502 189.261 178.18 190.436 178.907 189.947"/>
  <path id="path94" style="fill: rgb(33, 29, 29); fill-opacity: 1; fill-rule: nonzero; stroke: none;" d="M 188.926 186.483 C 189.762 185.855 190.598 185.228 191.434 184.6 C 191.581 184.492 191.695 184.381 191.746 184.195 C 191.79 184.033 191.77 183.817 191.678 183.672 C 191.497 183.394 191.053 183.202 190.75 183.431 C 189.914 184.056 189.078 184.683 188.242 185.311 C 188.095 185.419 187.981 185.531 187.93 185.717 C 187.886 185.878 187.906 186.094 187.999 186.239 C 188.179 186.518 188.623 186.709 188.926 186.483"/>
  <path id="path96" style="fill: rgb(33, 29, 29); fill-opacity: 1; fill-rule: nonzero; stroke: none;" d="M 155.523 213.334 C 163.519 207.043 171.615 200.808 180.173 195.294 C 180.904 194.825 180.226 193.649 179.489 194.125 C 170.834 199.701 162.65 206.014 154.564 212.375 C 153.878 212.913 154.844 213.869 155.523 213.334"/>
  <path id="path98" style="fill: rgb(33, 29, 29); fill-opacity: 1; fill-rule: nonzero; stroke: none;" d="M 164.206 211.302 C 168.153 208.345 172.1 205.389 176.047 202.432 C 176.738 201.916 176.062 200.738 175.363 201.26 C 171.415 204.217 167.468 207.176 163.521 210.132 C 162.831 210.649 163.506 211.828 164.206 211.302"/>
  <path id="path100" style="fill: rgb(33, 29, 29); fill-opacity: 1; fill-rule: nonzero; stroke: none;" d="M 150.182 213.63 C 154.04 210.591 157.898 207.55 161.757 204.51 C 162.442 203.972 161.476 203.016 160.797 203.552 C 156.939 206.592 153.081 209.632 149.223 212.672 C 148.538 213.213 149.503 214.165 150.182 213.63"/>
  <path id="path102" style="fill: rgb(33, 29, 29); fill-opacity: 1; fill-rule: nonzero; stroke: none;" d="M 188.425 228.052 C 191.678 225.089 195.094 222.309 198.661 219.732 C 199.362 219.225 198.686 218.05 197.977 218.564 C 194.315 221.208 190.805 224.053 187.466 227.093 C 186.818 227.684 187.78 228.64 188.425 228.052"/>
  <path id="path104" style="fill: rgb(33, 29, 29); fill-opacity: 1; fill-rule: nonzero; stroke: none;" d="M 195.27 227.996 C 196.647 226.762 198.024 225.531 199.401 224.297 C 199.666 224.06 199.661 223.577 199.401 223.339 C 199.118 223.079 198.724 223.085 198.442 223.339 C 197.065 224.569 195.688 225.803 194.31 227.037 C 194.045 227.272 194.051 227.758 194.31 227.996 C 194.593 228.256 194.987 228.249 195.27 227.996"/>
  <path id="path106" style="fill: rgb(33, 29, 29); fill-opacity: 1; fill-rule: nonzero; stroke: none;" d="M 233.807 194.542 C 229.793 197.991 225.779 201.439 221.765 204.888 C 221.101 205.457 222.065 206.412 222.724 205.847 C 226.738 202.398 230.752 198.95 234.765 195.501 C 235.429 194.932 234.466 193.977 233.807 194.542"/>
  <path id="path108" style="fill: rgb(33, 29, 29); fill-opacity: 1; fill-rule: nonzero; stroke: none;" d="M 231.016 203.175 C 233.995 200.178 237.148 197.36 240.456 194.731 C 240.745 194.503 240.692 194.011 240.456 193.773 C 240.177 193.485 239.783 193.544 239.497 193.773 C 236.189 196.402 233.036 199.219 230.057 202.216 C 229.44 202.834 230.398 203.796 231.016 203.175"/>
  <path id="path110" style="fill: rgb(33, 29, 29); fill-opacity: 1; fill-rule: nonzero; stroke: none;" d="M 265.724 205.624 C 263.522 209.31 261.615 213.158 259.995 217.131 C 259.665 217.942 260.976 218.291 261.302 217.494 C 262.878 213.627 264.755 209.892 266.895 206.307 C 267.343 205.555 266.171 204.873 265.724 205.624"/>
  <path id="path112" style="fill: rgb(33, 29, 29); fill-opacity: 1; fill-rule: nonzero; stroke: none;" d="M 268.406 206.041 C 267.331 208.475 266.258 210.913 265.183 213.35 C 265.035 213.684 265.085 214.076 265.426 214.277 C 265.714 214.444 266.206 214.37 266.354 214.033 C 267.428 211.595 268.503 209.161 269.577 206.725 C 269.725 206.391 269.675 205.998 269.334 205.797 C 269.046 205.63 268.555 205.704 268.406 206.041"/>
  <path id="path114" style="fill: rgb(33, 29, 29); fill-opacity: 1; fill-rule: nonzero; stroke: none;" d="M 242.32 233.015 C 240.948 235.149 239.576 237.283 238.203 239.42 C 237.73 240.156 238.904 240.837 239.375 240.104 C 240.747 237.97 242.118 235.836 243.491 233.702 C 243.965 232.963 242.79 232.282 242.32 233.015"/>
  <path id="path116" style="fill: rgb(33, 29, 29); fill-opacity: 1; fill-rule: nonzero; stroke: none;" d="M 244.15 233.931 C 243.387 235.149 242.624 236.371 241.863 237.59 C 241.674 237.893 241.788 238.35 242.106 238.517 C 242.439 238.694 242.833 238.594 243.034 238.273 C 243.796 237.054 244.558 235.836 245.32 234.614 C 245.509 234.314 245.394 233.857 245.077 233.686 C 244.744 233.51 244.35 233.61 244.15 233.931"/>
  <path id="path118" style="fill: rgb(33, 29, 29); fill-opacity: 1; fill-rule: nonzero; stroke: none;" d="M 281.038 190.832 C 281.456 195.864 281.876 200.898 282.296 205.934 C 282.367 206.796 283.724 206.805 283.651 205.934 C 283.233 200.898 282.813 195.864 282.394 190.832 C 282.322 189.966 280.965 189.96 281.038 190.832"/>
  <path id="path120" style="fill: rgb(33, 29, 29); fill-opacity: 1; fill-rule: nonzero; stroke: none;" d="M 285.207 195.857 C 285.348 199.457 285.803 203.041 286.566 206.567 C 286.751 207.418 288.06 207.059 287.874 206.205 C 287.136 202.797 286.699 199.34 286.563 195.857 C 286.53 194.985 285.173 194.982 285.207 195.857"/>
  <path id="path122" style="fill: rgb(33, 29, 29); fill-opacity: 1; fill-rule: nonzero; stroke: none;" d="M 291.848 184.251 C 294.564 190.665 297.279 197.078 299.994 203.496 C 300.334 204.297 301.503 203.607 301.166 202.809 C 298.451 196.396 295.736 189.981 293.02 183.564 C 292.68 182.763 291.514 183.456 291.848 184.251"/>
  <path id="path124" style="fill: rgb(33, 29, 29); fill-opacity: 1; fill-rule: nonzero; stroke: none;" d="M 294.368 198.332 C 294.975 200.008 295.581 201.687 296.184 203.366 C 296.31 203.71 296.648 203.942 297.019 203.84 C 297.353 203.75 297.619 203.351 297.492 203.004 C 296.889 201.328 296.283 199.649 295.676 197.97 C 295.552 197.626 295.216 197.394 294.842 197.496 C 294.511 197.586 294.245 197.985 294.368 198.332"/>
  <path id="path126" style="fill: rgb(33, 29, 29); fill-opacity: 1; fill-rule: nonzero; stroke: none;" d="M 318.838 191.719 C 323.566 195.681 328.295 199.642 333.02 203.604 C 333.685 204.161 334.65 203.208 333.979 202.646 C 329.253 198.684 324.525 194.722 319.8 190.761 C 319.135 190.204 318.169 191.156 318.838 191.719"/>
  <path id="path128" style="fill: rgb(33, 29, 29); fill-opacity: 1; fill-rule: nonzero; stroke: none;" d="M 321.515 198.653 C 323.343 200.483 325.168 202.318 326.996 204.149 C 327.611 204.771 328.573 203.812 327.955 203.19 C 326.127 201.359 324.302 199.525 322.475 197.694 C 321.859 197.076 320.9 198.034 321.515 198.653"/>
  <path id="path130" style="fill: rgb(33, 29, 29); fill-opacity: 1; fill-rule: nonzero; stroke: none;" d="M 301.442 184.43 C 303.272 186.719 305.1 189.004 306.928 191.293 C 307.157 191.58 307.648 191.531 307.887 191.293 C 308.168 191.008 308.116 190.621 307.887 190.334 C 306.059 188.045 304.231 185.757 302.4 183.471 C 302.172 183.183 301.682 183.233 301.442 183.471 C 301.16 183.753 301.213 184.142 301.442 184.43"/>
  <path id="path132" style="fill: rgb(33, 29, 29); fill-opacity: 1; fill-rule: nonzero; stroke: none;" d="M 306.349 186.137 C 306.807 186.898 307.262 187.662 307.72 188.423 C 307.902 188.729 308.338 188.868 308.647 188.667 C 308.954 188.469 309.087 188.063 308.892 187.739 C 308.434 186.975 307.976 186.215 307.519 185.451 C 307.335 185.148 306.903 185.008 306.59 185.209 C 306.287 185.407 306.155 185.813 306.349 186.137"/>
  <path id="path134" style="fill: rgb(33, 29, 29); fill-opacity: 1; fill-rule: nonzero; stroke: none;" d="M 314.124 200.314 C 315.191 201.839 316.258 203.363 317.325 204.888 C 317.536 205.188 317.919 205.327 318.253 205.132 C 318.55 204.959 318.708 204.504 318.498 204.204 C 317.43 202.68 316.36 201.155 315.293 199.63 C 315.086 199.33 314.703 199.191 314.366 199.386 C 314.072 199.559 313.911 200.014 314.124 200.314"/>
  <path id="path136" style="fill: rgb(33, 29, 29); fill-opacity: 1; fill-rule: nonzero; stroke: none;" d="M 308.396 243.811 C 321.831 245.018 335.427 244.396 348.684 241.91 C 350.401 241.588 349.675 238.975 347.964 239.293 C 334.947 241.734 321.584 242.281 308.396 241.099 C 306.659 240.942 306.668 243.657 308.396 243.811"/>
  <path id="path138" style="fill: rgb(33, 29, 29); fill-opacity: 1; fill-rule: nonzero; stroke: none;" d="M 310.11 286.002 C 317.233 287.904 324.785 288.089 332.087 287.366 C 337.938 286.787 344.061 285.786 349.408 283.225 C 350.983 282.47 349.607 280.132 348.038 280.884 C 343.007 283.289 337.075 284.196 331.573 284.703 C 324.668 285.34 317.564 285.182 310.83 283.389 C 309.142 282.937 308.422 285.554 310.11 286.002"/>
  <path id="path140" style="fill: rgb(33, 29, 29); fill-opacity: 1; fill-rule: nonzero; stroke: none;" d="M 274.744 229.548 C 285.189 232.447 296.852 231.107 307.296 228.874 C 309 228.509 308.279 225.893 306.572 226.258 C 296.61 228.389 285.431 229.697 275.464 226.932 C 273.78 226.465 273.061 229.081 274.744 229.548"/>
  <path id="path142" style="fill: rgb(33, 29, 29); fill-opacity: 1; fill-rule: nonzero; stroke: none;" d="M 275.723 308.015 C 280.813 311.43 287.806 311.767 293.725 311.355 C 298.909 310.997 305.354 310.155 309.436 306.602 C 310.754 305.451 308.829 303.54 307.516 304.685 C 305.95 306.048 303.795 306.744 301.828 307.292 C 299.054 308.068 296.187 308.494 293.314 308.671 C 287.964 308.996 281.694 308.76 277.093 305.674 C 275.639 304.697 274.279 307.047 275.723 308.015"/>
  <path id="path144" style="fill: rgb(33, 29, 29); fill-opacity: 1; fill-rule: nonzero; stroke: none;" d="M 233.366 255.944 C 238.919 257.738 244.937 257.83 250.549 256.235 C 252.225 255.759 251.512 253.143 249.827 253.622 C 244.655 255.091 239.203 254.979 234.087 253.331 C 232.421 252.793 231.708 255.409 233.366 255.944"/>
  <path id="path146" style="fill: rgb(33, 29, 29); fill-opacity: 1; fill-rule: nonzero; stroke: none;" d="M 233.401 314.151 C 236.725 315.419 240.273 316.093 243.834 316.134 C 245.619 316.152 247.402 315.998 249.162 315.707 C 250.662 315.456 252.142 315.026 253.216 313.892 C 254.417 312.623 252.502 310.7 251.298 311.971 C 250.424 312.896 248.983 313.029 247.784 313.189 C 246.258 313.397 244.707 313.459 243.169 313.406 C 240.063 313.3 237.023 312.642 234.122 311.535 C 232.49 310.913 231.784 313.532 233.401 314.151"/>
  <path id="path148" style="fill: rgb(33, 29, 29); fill-opacity: 1; fill-rule: nonzero; stroke: none;" d="M 234.606 307.032 C 239.757 309.197 245.764 309.216 250.929 307.084 C 251.605 306.803 252.087 306.181 251.876 305.414 C 251.7 304.774 250.888 304.186 250.207 304.468 C 245.415 306.444 240.106 306.425 235.326 304.415 C 234.651 304.131 233.835 304.722 233.658 305.365 C 233.443 306.147 233.927 306.747 234.606 307.032"/>
  <path id="path150" style="fill: rgb(33, 29, 29); fill-opacity: 1; fill-rule: nonzero; stroke: none;" d="M 233.77 263.744 C 239.253 265.176 245.001 265.226 250.512 263.911 C 252.209 263.503 251.49 260.886 249.791 261.295 C 244.752 262.497 239.502 262.436 234.491 261.127 C 232.801 260.685 232.08 263.302 233.77 263.744"/>
  <path id="path152" style="fill: rgb(33, 29, 29); fill-opacity: 1; fill-rule: nonzero; stroke: none;" d="M 203.661 250.347 C 213.391 251.844 223.21 251.856 232.943 250.384 C 234.664 250.124 233.933 247.508 232.222 247.767 C 223.011 249.159 213.591 249.147 204.382 247.73 C 202.674 247.47 201.938 250.084 203.661 250.347"/>
  <path id="path154" style="fill: rgb(33, 29, 29); fill-opacity: 1; fill-rule: nonzero; stroke: none;" d="M 202.087 294.615 C 211.982 296.875 222.168 297.148 232.175 295.465 C 233.893 295.177 233.164 292.562 231.454 292.849 C 221.949 294.448 212.202 294.145 202.808 291.998 C 201.107 291.612 200.382 294.225 202.087 294.615"/>
  <path id="path156" style="fill: rgb(33, 29, 29); fill-opacity: 1; fill-rule: nonzero; stroke: none;" d="M 177.798 256.424 C 179.763 259.594 183.838 260.549 187.317 260.741 C 192.315 261.016 197.355 259.696 201.816 257.503 C 203.382 256.733 202.009 254.392 200.447 255.158 C 196.587 257.058 192.261 258.162 187.944 258.05 C 185.335 257.986 181.661 257.506 180.141 255.054 C 179.223 253.572 176.875 254.933 177.798 256.424"/>
  <path id="path158" style="fill: rgb(33, 29, 29); fill-opacity: 1; fill-rule: nonzero; stroke: none;" d="M 177.637 311.009 C 180.613 313.486 185.074 314.052 188.811 314.086 C 193.237 314.126 198.003 313.223 201.45 310.273 C 202.779 309.138 200.852 307.227 199.531 308.356 C 196.665 310.808 192.455 311.404 188.811 311.371 C 185.883 311.347 181.871 311.018 179.555 309.092 C 178.222 307.981 176.293 309.89 177.637 311.009"/>
  <path id="path160" style="fill: rgb(33, 29, 29); fill-opacity: 1; fill-rule: nonzero; stroke: none;" d="M 176.263 328.139 C 177.193 327.326 178.125 326.513 179.056 325.696 C 179.306 325.477 179.453 325.062 179.453 324.737 C 179.453 324.406 179.305 324.007 179.056 323.779 C 178.797 323.541 178.458 323.367 178.096 323.383 C 177.723 323.398 177.419 323.532 177.137 323.779 C 176.206 324.595 175.275 325.408 174.345 326.221 C 174.094 326.441 173.948 326.855 173.948 327.18 C 173.948 327.514 174.096 327.911 174.345 328.139 C 174.603 328.377 174.943 328.553 175.304 328.538 C 175.677 328.523 175.981 328.386 176.263 328.139"/>
  <path id="path162" style="fill: rgb(33, 29, 29); fill-opacity: 1; fill-rule: nonzero; stroke: none;" d="M 150.187 242.287 C 155.336 241.214 160.345 246.069 160.668 251.046 C 160.87 254.163 159.72 257.259 157.125 259.111 C 154.802 260.766 151.811 261.304 149.131 260.506 C 146.045 259.588 144.06 256.863 143.527 253.727 C 142.736 249.069 145.359 243.463 150.187 242.287 C 151.882 241.873 151.164 239.256 149.466 239.671 C 139.46 242.111 137.311 258.251 146.965 262.575 C 150.441 264.131 154.57 263.828 157.835 261.879 C 161.417 259.745 163.439 255.861 163.404 251.723 C 163.345 244.666 156.676 238.168 149.466 239.671 C 147.758 240.026 148.481 242.643 150.187 242.287"/>
  <path id="path164" style="fill: rgb(33, 29, 29); fill-opacity: 1; fill-rule: nonzero; stroke: none;" d="M 134.879 264.885 C 138.518 268.266 143.693 269.673 148.498 270.325 C 153.974 271.07 159.683 270.884 165.062 269.576 C 167.64 268.952 170.215 268.036 172.44 266.568 C 173.166 266.088 172.488 264.914 171.756 265.395 C 167.783 268.018 162.737 268.949 158.066 269.274 C 152.833 269.642 147.407 269.237 142.41 267.57 C 140.028 266.775 137.691 265.646 135.838 263.927 C 135.199 263.332 134.237 264.289 134.879 264.885"/>
  <path id="path166" style="fill: rgb(33, 29, 29); fill-opacity: 1; fill-rule: nonzero; stroke: none;" d="M 137.902 311.148 C 146.788 315.203 156.927 316.69 166.463 314.182 C 168.968 313.523 171.39 312.583 173.692 311.398 C 174.469 311 173.784 309.827 173.007 310.226 C 162.253 315.762 149.393 314.905 138.587 309.979 C 137.799 309.617 137.109 310.786 137.902 311.148"/>
  <path id="path168" style="fill: rgb(33, 29, 29); fill-opacity: 1; fill-rule: nonzero; stroke: none;" d="M 258.75 239.943 C 261.092 237.271 266.097 237.471 267.638 240.864 C 268.48 242.723 268.742 244.867 268.916 246.877 C 269.092 248.909 269.107 250.946 269.123 252.985 C 269.216 264.811 269.309 276.634 269.402 288.46 C 269.426 291.39 269.448 294.314 269.472 297.244 C 269.482 298.7 269.453 300.166 269.532 301.619 C 269.6 302.857 269.751 304.087 269.759 305.325 C 269.775 307.65 269.046 309.649 266.968 310.836 C 265.425 311.717 263.153 312.264 261.533 311.268 C 259.696 310.14 258.496 307.604 258.224 305.532 C 257.842 302.631 257.791 299.64 257.631 296.718 C 257.31 290.845 257.12 284.966 257.011 279.087 C 256.902 273.207 256.873 267.329 256.87 261.449 C 256.869 255.629 256.741 249.784 256.902 243.966 C 256.936 242.754 257.066 241.459 257.857 240.481 C 258.402 239.81 257.448 238.845 256.898 239.522 C 255.213 241.603 255.538 244.452 255.535 246.964 C 255.532 250.164 255.522 253.368 255.518 256.568 C 255.507 263.011 255.513 269.453 255.602 275.895 C 255.692 282.279 255.863 288.661 256.187 295.038 C 256.348 298.236 256.548 301.43 256.792 304.625 C 256.982 307.1 257.816 309.435 259.512 311.296 C 260.924 312.846 262.769 313.36 264.815 313.023 C 266.743 312.707 268.701 311.68 269.861 310.078 C 271.394 307.96 271.16 305.225 270.969 302.767 C 270.73 299.699 270.823 296.601 270.799 293.529 C 270.697 280.633 270.596 267.74 270.495 254.843 C 270.459 250.341 270.74 245.407 269.184 241.099 C 268.56 239.371 267.58 238.032 265.84 237.318 C 264.043 236.581 261.916 236.572 260.121 237.318 C 259.221 237.691 258.434 238.251 257.791 238.984 C 257.218 239.637 258.174 240.599 258.75 239.943"/>
  <path id="path170" style="fill: rgb(33, 29, 29); fill-opacity: 1; fill-rule: nonzero; stroke: none;" d="M 219.487 218.711 C 220.709 217.385 221.932 216.058 223.155 214.732 C 223.396 214.472 223.433 214.027 223.155 213.773 C 222.894 213.531 222.453 213.494 222.197 213.773 C 220.974 215.099 219.75 216.426 218.527 217.753 C 218.287 218.013 218.25 218.456 218.527 218.711 C 218.789 218.95 219.229 218.99 219.487 218.711"/>
  <path id="path172" style="fill: rgb(33, 29, 29); fill-opacity: 1; fill-rule: nonzero; stroke: none;" d="M 218.806 211.914 C 217.991 212.833 217.175 213.751 216.359 214.667 C 216.124 214.933 216.079 215.369 216.359 215.625 C 216.617 215.863 217.066 215.91 217.318 215.625 C 218.134 214.71 218.95 213.791 219.766 212.873 C 220.001 212.607 220.047 212.171 219.766 211.914 C 219.508 211.676 219.059 211.63 218.806 211.914"/>
</svg>