<?xml version="1.0" encoding="utf-8"?>
<svg viewBox="0 0 500 500" xmlns="http://www.w3.org/2000/svg">
  <g transform="matrix(0.034408, 0, 0, -0.034408, -252.210297, 600.891724)" id="g174" style="">
    <path id="path176" style="fill:#211d1d;fill-opacity:1;fill-rule:nonzero;stroke:none" d="m 15676.3,9910.97 c -607.7,65.06 -1213.6,145.53 -1818.7,231.43 -152.4,21.7 -304.8,43.7 -457.1,65.7 -106.5,15.4 -215.6,37.5 -323.4,22.3 -235,-33.3 -306.1,-281.68 -314.1,-487.25 -6.7,-175.59 20,-400.62 189.9,-495.28 71.8,-39.98 154.7,-54.49 234.9,-66.9 137.2,-21.25 274.8,-40.58 412.2,-60.91 620.2,-91.79 1240.5,-183.57 1860.6,-275.37 112.9,-16.7 229,-26.68 339.8,-54.16 81.3,-20.15 162.5,-42.97 245.3,-55.99 64.5,-10.14 128.8,-17.65 157.4,54.07 26.4,66.18 24.6,190.47 -63.1,206.06 -503.6,89.52 -1014.6,128.93 -1519.8,208.68 -122.4,19.31 -243.7,42.06 -367,55.2 -129.9,13.85 -258.1,29.83 -386.7,52.81 -212.3,37.91 -432.5,47.45 -638.8,114.64 -94.8,30.89 -176.6,83.18 -194.2,188.61 -16.3,98.11 27.4,207.13 101,272.71 90.6,80.78 230.6,44.87 336.7,23.79 135.7,-26.92 273.5,-40.18 410.4,-58.56 559.8,-75.16 1116.4,-171.67 1674.4,-258.93 134.9,-21.09 269.9,-41.55 405,-60.96 107.2,-15.39 236,-45.48 295.8,71.45 34.3,67.18 43.2,179.54 -28.4,227.49 -62.7,42.05 -159.3,41.26 -231.5,47.74 -93.2,8.37 -189,11.13 -279.9,34.47 -42.5,10.89 -60.6,-54.78 -18.1,-65.68 87.9,-22.54 180.3,-26.78 270.4,-34.49 46.6,-4 93.4,-7.63 139.6,-15.33 25.5,-4.24 64.9,-7.44 85.2,-25.78 29.3,-26.45 22.7,-81.61 11.7,-114.63 -19.6,-59.1 -63.4,-79.26 -124.6,-73.76 -132.7,11.95 -265.8,37.94 -397.5,58.16 -527.4,80.99 -1053.1,172.72 -1581.4,247.88 -142.8,20.32 -285.8,39.57 -428.9,57.51 -117.4,14.7 -233.1,46.65 -351,55.31 -103.8,7.7 -199.7,-19.03 -267.7,-101.27 -59.8,-72.33 -96.9,-166.55 -92.1,-261.26 4.6,-89.12 46.2,-170.89 119.9,-222.35 75.7,-52.88 175.6,-74.68 264.3,-93.44 109,-23 219.6,-37.75 329.7,-53.06 105.9,-14.71 210.6,-35.6 316.3,-51.1 122.4,-17.94 245.9,-25.85 368.4,-43 115.3,-16.14 229.7,-38.75 344.9,-55.69 248.7,-36.55 498.2,-65.84 747.5,-97.07 125.1,-15.67 250,-31.67 374.8,-49.44 58.8,-8.4 117.7,-17.18 176.5,-26.6 26.9,-4.31 53.8,-8.78 80.8,-13.4 22.5,-3.86 46.6,-0.88 57,-22.39 13.2,-27.55 10.9,-86.59 -8.4,-110.87 -9.3,-11.72 -41.5,-5.95 -62.3,-3.09 -79.5,10.91 -157.6,33.11 -235.2,52.67 -98.5,24.8 -199.9,35.34 -300.2,50.18 -148.7,22 -297.4,44.01 -446.1,66.02 -297.3,43.99 -594.6,87.98 -891.9,131.98 -299.1,44.27 -598.2,88.85 -897.3,132.8 -151.6,22.28 -341.4,30.37 -418.7,185.92 -44.1,88.72 -53,196.44 -52.1,294.03 0.8,107.16 16.5,221.03 68,316.53 55,102.1 146.5,139.4 259,138.3 121.6,-1.2 244.4,-27.8 364.4,-45.1 573.2,-82.7 1146.7,-162.89 1721.8,-230.76 144.1,-17 288.3,-33.23 432.6,-48.67 43.5,-4.66 43.2,63.49 0,68.1 v 0"/>
  </g>
  <g transform="matrix(0.034247, 0, 0, -0.034247, -252.210297, 600.891724)" id="g178" style="">
    <path id="path180" style="fill:#211d1d;fill-opacity:1;fill-rule:nonzero;stroke:none" d="m 16178.5,9567.06 c 43.3,-60.8 45.8,-147.39 -2.4,-206.82 -9.4,-11.72 -13.9,-27.63 -5.3,-41.46 45,-72.85 40.8,-171.55 -14.8,-238.01 -28.1,-33.55 20,-82.2 48.4,-48.39 75.2,89.77 87.6,220.42 25.5,320.95 -1.8,-13.83 -3.5,-27.65 -5.3,-41.47 66.5,82.08 75.4,202.19 13.1,289.74 -25.4,35.57 -84.8,1.44 -59.2,-34.54 v 0"/>
  </g>
  <g transform="matrix(0.034029, 0, 0, -0.034029, -252.210297, 600.891724)" id="g182" style="">
    <path id="path184" style="fill:#211d1d;fill-opacity:1;fill-rule:nonzero;stroke:none" d="m 15895.5,9368.53 c 127.5,-13.63 255,-27.26 382.4,-40.89 22.1,-2.35 21.9,32.1 0,34.44 -127.4,13.63 -254.9,27.26 -382.4,40.89 -22,2.35 -21.8,-32.1 0,-34.44 v 0"/>
  </g>
  <g transform="matrix(0.03409, 0, 0, -0.03409, -252.210297, 600.891724)" id="g186" style="">
    <path id="path188" style="fill:#211d1d;fill-opacity:1;fill-rule:nonzero;stroke:none" d="m 16005.3,9418.51 c 89.7,-18.29 181.4,-24.19 272.6,-16.89 21.9,1.76 22.1,36.14 0,34.38 -88.2,-7.06 -176.7,-2.02 -263.5,15.65 -21.5,4.41 -30.8,-28.72 -9.1,-33.14 v 0"/>
  </g>
  <g transform="matrix(0.028714, 0, 0, -0.028714, -252.210297, 600.891724)" id="g190" style="">
    <path id="path192" style="fill:#211d1d;fill-opacity:1;fill-rule:nonzero;stroke:none" d="m 15600,11461.7 c 221.1,-31 442.2,-62 663.2,-93 25.7,-3.6 36.8,35.7 10.9,39.3 -221,31 -442.1,62 -663.2,93 -25.7,3.6 -36.7,-35.7 -10.9,-39.3 v 0"/>
  </g>
  <g transform="matrix(0.034766, 0, 0, -0.034766, -252.210297, 600.891724)" id="g194" style="">
    <path id="path196" style="fill:#211d1d;fill-opacity:1;fill-rule:nonzero;stroke:none" d="m 15682.8,11906.1 c -601.4,64.4 -1201,144 -1799.8,229.1 -148.2,21.1 -296.3,42.4 -444.4,63.8 -106.5,15.5 -215.8,38.1 -323.7,23.8 -104,-13.6 -182,-68.3 -235.7,-157.6 -53.7,-89.4 -86.2,-193.1 -106.2,-294.9 -33.3,-168.5 -47.1,-404.9 114.5,-515.1 66.4,-45.3 149.5,-57.1 227.7,-65.4 113.1,-12.1 225.2,-23.9 337.9,-40.6 614.9,-91 1229.9,-182 1844.8,-273 219.2,-32.4 438.1,-76.6 660.4,-78.1 42.2,-0.3 84.7,0 126.9,3.5 27.7,2.3 60.1,3.7 85.2,17.3 36.4,19.8 57.1,62.4 49.8,103.1 -10,55 -52.8,72.9 -102.2,81.4 -497.1,86.4 -1001.1,125.6 -1499.2,205.4 -121.5,19.5 -242,41 -364.5,53.7 -126.7,13.2 -251.3,31.2 -376.8,52.7 -210.2,35.9 -429.9,45.5 -632.7,115.9 -92.3,32 -166.4,89.2 -179,192 -11.7,96.8 34.2,210.2 112.9,269.2 93.8,70.4 230.4,32.1 334.5,11.5 136.3,-27 275.3,-39.5 413,-58.1 547.4,-74 1091.8,-168.3 1637.6,-253.6 135.9,-21.3 272,-41.9 408.3,-61.4 104.8,-15.1 227.1,-41.4 285.3,71.7 34.2,66.4 42.6,177.8 -28.1,225.2 -62.1,41.6 -157.6,40.8 -229.2,47.2 -92.1,8.3 -186.9,11.1 -276.9,34.1 -42.1,10.8 -60,-54.2 -17.9,-65 87,-22.3 178.4,-26.5 267.6,-34.1 46.1,-4 92.5,-7.5 138.1,-15.2 25.5,-4.2 64.1,-7.1 84.3,-25.2 28.9,-25.9 22.3,-81.6 11.6,-113.7 -18.3,-55.3 -58.8,-77.4 -116.4,-73.5 -130.9,8.7 -263.3,37 -393,56.9 -521.8,80 -1042,170.8 -1564.6,245.4 -138.5,19.7 -277.1,38.4 -415.9,55.9 -117.7,14.8 -233.7,44.8 -351.6,55.8 -101.8,9.6 -200.3,-11.2 -269.9,-90.7 -60.6,-69.2 -98.7,-159.4 -98.7,-252 0,-87.4 36.6,-171.7 106.2,-225.7 72.1,-55.8 169.7,-78.9 257.1,-98.2 107.6,-23.7 216.9,-38.7 326,-53.8 103.3,-14.3 205.3,-33.6 308.3,-49.7 120,-18.6 241,-27.1 361.3,-42.5 116.3,-14.8 231.4,-38.3 347.4,-55.6 243.1,-36.2 487.2,-65 731.1,-95.4 124.2,-15.5 248.5,-31.3 372.4,-48.7 58.8,-8.3 117.6,-16.9 176.2,-26.1 25,-3.9 49.9,-8 74.8,-12.1 22.4,-3.8 69.1,-3.3 86.9,-18.3 39,-33 -17,-53.5 -40.7,-56.6 -37,-4.7 -74.6,-5 -111.7,-5.3 -71.9,-0.6 -145,0.1 -216.5,7.9 -129.2,14 -275.5,40.6 -410.8,60.6 -145.5,21.5 -291,43 -436.5,64.6 -294.3,43.5 -588.5,87.1 -882.7,130.6 -147.1,21.8 -294.3,43.6 -441.4,65.3 -125.6,18.6 -251.3,40.7 -377.8,52.5 -82.5,7.7 -168.9,9.4 -247.7,37.5 -79.5,28.2 -124.7,91.1 -145.1,171.1 -24.1,94.5 -15,196.1 3.2,290.9 19.2,100 49.7,201.8 103.2,289 58.3,94.7 147.9,126.3 255.9,124.3 121.1,-2.2 243.3,-28.5 362.8,-45.7 564.6,-81.4 1129.6,-160.3 1696.1,-227.2 142.6,-16.8 285.2,-32.9 428,-48.2 43.1,-4.6 42.8,62.9 0,67.4 v 0"/>
  </g>
  <g transform="matrix(0.034605, 0, 0, -0.034605, -252.210297, 600.891724)" id="g198" style="">
    <path id="path200" style="fill:#211d1d;fill-opacity:1;fill-rule:nonzero;stroke:none" d="m 16179.8,11575 c 42.8,-60.2 45.3,-145.9 -2.3,-204.7 -9.4,-11.6 -13.8,-27.4 -5.4,-41 44.6,-72.1 40.5,-169.8 -14.6,-235.6 -27.8,-33.2 19.9,-81.4 47.9,-47.9 74.4,88.9 86.6,218.2 25.3,317.6 -1.8,-13.6 -3.6,-27.3 -5.4,-41 65.9,81.2 74.7,200.1 13,286.7 -25.1,35.3 -83.8,1.5 -58.5,-34.1 v 0"/>
  </g>
  <g transform="matrix(0.034387, 0, 0, -0.034387, -252.210297, 600.891724)" id="g202" style="">
    <path id="path204" style="fill:#211d1d;fill-opacity:1;fill-rule:nonzero;stroke:none" d="m 15899.7,11391.2 c 126.2,-13.5 252.4,-26.9 378.5,-40.4 21.8,-2.4 21.6,31.7 0,34 -126.1,13.5 -252.3,27 -378.5,40.5 -21.7,2.3 -21.6,-31.8 0,-34.1 v 0"/>
  </g>
  <g transform="matrix(0.034448, 0, 0, -0.034448, -252.210297, 600.891724)" id="g206" style="">
    <path id="path208" style="fill:#211d1d;fill-opacity:1;fill-rule:nonzero;stroke:none" d="m 16008.4,11437.1 c 88.7,-18.1 179.5,-23.9 269.8,-16.7 21.6,1.7 21.8,35.8 0,34 -87.3,-7 -175,-2 -260.7,15.5 -21.5,4.4 -30.6,-28.4 -9.1,-32.8 v 0"/>
  </g>
  <g transform="matrix(0.029072, 0, 0, -0.029072, -252.210297, 600.891724)" id="g210" style="">
    <path id="path212" style="fill:#211d1d;fill-opacity:1;fill-rule:nonzero;stroke:none" d="m 15608.7,13828.4 c 218.3,-30.6 436.6,-61.2 655,-91.9 25.4,-3.5 36.3,35.3 10.8,38.9 -218.4,30.6 -436.8,61.2 -655.1,91.9 -25.4,3.5 -36.3,-35.3 -10.7,-38.9 v 0"/>
  </g>
  <g transform="matrix(0.035362, 0, 0, -0.035362, -252.210297, 600.891724)" id="g214" style="">
    <path id="path216" style="fill:#211d1d;fill-opacity:1;fill-rule:nonzero;stroke:none" d="m 15597.1,10687.9 c -638.6,41.8 -1273.2,121.9 -1906.2,214.6 -159.2,23.3 -318.3,47.2 -477.4,71 -124.8,18.7 -253.2,46.3 -380,40.5 -113.1,-5.3 -219.6,-43.3 -288.1,-137.4 -69.2,-95.1 -96.4,-215.9 -106.6,-331.2 -16.9,-194.1 2.3,-463.2 176,-587.34 71.2,-50.88 159.5,-70.34 244.5,-83.22 133.1,-20.16 267.6,-33.36 401.3,-49.58 674.4,-81.87 1348.9,-163.72 2023.4,-245.58 83.3,-10.11 166.6,-20.22 249.9,-30.33 67.8,-8.24 147.4,-14.75 207.8,-25.72 83.2,-15.12 165,-37.72 248.2,-52.84 58.5,-10.61 160.4,-40.65 207.3,11.44 49.9,55.34 51.2,183.7 -2.5,237.07 -17.7,17.57 -38.3,19.18 -61.8,22.68 -32.1,4.76 -64.1,9.27 -96.1,13.63 -64,8.68 -128.1,16.73 -192.2,24.3 -139.7,16.47 -279.5,30.85 -419.4,44.75 -283.1,28.11 -566.5,53.52 -849,87.72 -134.1,16.23 -267.4,39.56 -401.7,53.43 -143.7,14.82 -288.1,20.08 -431.2,40.69 -235.6,34.1 -477,48.7 -709.7,100.1 -98.5,21.8 -215.6,49 -273.3,140.1 -57.2,90.1 -46.1,208.4 2.3,299.7 27.1,51.1 65.2,100.3 118.1,126.1 54,26.3 116.6,27.3 175.3,22.8 65.1,-4.9 129.1,-18.1 193.4,-28.6 70.8,-11.6 142.2,-17.6 213.5,-24.8 617.9,-62.1 1232.6,-149.3 1848,-231.1 147.7,-19.7 295.6,-38.9 443.6,-57.1 75,-9.2 150,-18.2 225,-26.9 66.9,-7.8 139.6,-22.6 202.5,10.1 85,44.2 118,169.2 86.4,255.7 -43.7,119.6 -178.1,96.1 -278.4,86.6 -56.1,-5.3 -113.6,-1.9 -169.9,-1.4 -74.5,0.7 -148.9,3.5 -223,10.1 -42.5,3.7 -42.3,-62.6 0,-66.3 126.1,-11.1 260.5,-20.1 387.2,-9.2 54.7,4.6 119.9,22.7 173.7,4.4 52.1,-17.6 61.2,-75.1 52.8,-123.3 -9.9,-57.3 -42.5,-104.1 -103.7,-110.2 -69.4,-6.9 -146,11.8 -215.1,20 -141.5,16.9 -283,34.7 -424.4,53.1 -583.2,76 -1165.3,160.7 -1750,225 -151.9,16.7 -306,25.2 -456.8,50.2 -113.7,18.8 -234.8,48.8 -349.7,21.4 -201.4,-47.9 -307.3,-314.2 -229.8,-497.3 83.9,-198.2 352,-222.4 537.3,-247.8 114.5,-15.75 229.5,-26.84 344.2,-41.05 126.4,-15.66 251.3,-37.56 378.4,-47.99 133.1,-10.93 265.1,-21.81 397.3,-41.22 124.7,-18.29 249.9,-33.53 375.2,-47.48 276.1,-30.74 552.7,-55.34 829,-83.61 132.8,-13.58 265.6,-27.92 398,-44.64 62.2,-7.84 124.1,-18.11 186.3,-25.58 22.2,-2.68 27.3,-8.57 33.7,-30.6 6.4,-22.15 7.1,-47.22 4.1,-70.01 -3.9,-30.62 -9.4,-53.24 -38,-54.61 -38,-1.84 -77.4,6.11 -114.7,12.77 -82.4,14.76 -163.4,36.26 -245.5,52.23 -134.3,26.14 -274.2,34.55 -410,51.03 -161.9,19.65 -323.8,39.3 -485.7,58.94 -324.2,39.36 -648.5,78.71 -972.7,118.07 -313.7,38.07 -627.4,76.28 -941.1,114.05 -87.6,10.54 -182,19.76 -262.2,59.17 -78.9,38.73 -127.5,107.93 -154.5,190.23 -35.9,109.5 -44.4,229.1 -37.1,343.7 7.2,113.8 32.4,242.2 107.6,332.2 76.6,91.6 202.2,100.4 313.2,92.6 135.4,-9.5 270.4,-36.3 404.6,-56.4 600.5,-89.7 1201.5,-177 1806.3,-232 153.9,-14 307.9,-26 462.1,-36.1 42.5,-2.8 42.3,63.5 0,66.3 v 0"/>
  </g>
  <g transform="matrix(0.03519, 0, 0, -0.03519, -252.210297, 600.891724)" id="g218" style="">
    <path id="path220" style="fill:#211d1d;fill-opacity:1;fill-rule:nonzero;stroke:none" d="m 16173.9,10373.5 c 53.8,-71.4 53.1,-167.5 -1.4,-238.4 -6.7,-8.7 -5.7,-24.7 0,-33.6 52.3,-79.8 51.5,-190.21 -8.8,-266.13 -26.4,-33.22 20.4,-80.66 47.1,-47.09 78.5,98.84 89.2,240.02 19.3,346.82 0,-11.2 0,-22.4 0,-33.6 67.1,87.4 67.5,217.6 1.3,305.6 -25.4,33.9 -83.2,0.7 -57.5,-33.6 v 0"/>
  </g>
  <g transform="matrix(0.034965, 0, 0, -0.034965, -252.210297, 600.891724)" id="g222" style="">
    <path id="path224" style="fill:#211d1d;fill-opacity:1;fill-rule:nonzero;stroke:none" d="m 15858.6,10144 c 140,-11.3 279.9,-22.6 419.9,-33.8 21.5,-1.8 21.3,31.8 0,33.5 -140,11.3 -279.9,22.5 -419.9,33.8 -21.4,1.7 -21.3,-31.8 0,-33.5 v 0"/>
  </g>
  <g transform="matrix(0.035057, 0, 0, -0.035057, -252.210297, 600.891724)" id="g226" style="">
    <path id="path228" style="fill:#211d1d;fill-opacity:1;fill-rule:nonzero;stroke:none" d="m 15900.9,10254.2 c 125.2,-22.5 250.7,-44.2 377.6,-54.8 21.5,-1.8 21.3,31.7 0,33.5 -123.9,10.3 -246.4,31.5 -368.7,53.5 -21,3.8 -30.1,-28.4 -8.9,-32.2 v 0"/>
  </g>
  <g transform="matrix(0.028959, 0, 0, -0.028959, -252.210297, 600.891724)" id="g230" style="">
    <path id="path232" style="fill:#211d1d;fill-opacity:1;fill-rule:nonzero;stroke:none" d="m 15531.9,12552.8 c 247.4,-28.2 494.8,-56.3 742.3,-84.4 25.8,-2.9 25.6,37.5 0,40.4 -247.5,28.2 -494.9,56.3 -742.3,84.4 -25.9,2.9 -25.7,-37.5 0,-40.4 v 0"/>
  </g>
  <g transform="matrix(0.028744, 0, 0, -0.028744, -252.210297, 600.891724)" id="g234" style="">
    <path id="path236" style="fill:#211d1d;fill-opacity:1;fill-rule:nonzero;stroke:none" d="m 15666.2,12858.6 c 202.6,-22.9 405.1,-45.8 607.8,-68.7 26,-3 25.8,37.8 0,40.7 -202.7,22.9 -405.2,45.8 -607.8,68.7 -26,3 -25.8,-37.8 0,-40.7 v 0"/>
  </g>
  <g transform="matrix(0.028477, 0, 0, -0.028477, -252.210297, 600.891724)" id="g238" style="">
    <path id="path240" style="fill:#211d1d;fill-opacity:1;fill-rule:nonzero;stroke:none" d="m 16021.6,14312.6 c 83.4,-12.1 166.9,-24.2 250.4,-36.3 11,-1.6 22.1,2.7 25.4,14.4 2.6,9.6 -3.4,23.7 -14.5,25.3 -83.4,12.1 -166.9,24.2 -250.4,36.3 -11,1.6 -22,-2.7 -25.2,-14.4 -2.7,-9.6 3.3,-23.7 14.3,-25.3 v 0"/>
  </g>
  <g transform="matrix(0.02832, 0, 0, -0.02832, -252.210297, 600.891724)" id="g242" style="">
    <path id="path244" style="fill:#211d1d;fill-opacity:1;fill-rule:nonzero;stroke:none" d="m 15832.4,11768.4 c 143.4,-27.1 286.9,-54.2 430.4,-81.3 26.1,-4.9 37.2,35 11.1,39.9 -143.5,27.1 -287,54.2 -430.5,81.3 -26,4.9 -37.3,-35 -11,-39.9 v 0"/>
  </g>
</svg>