<?xml version="1.0" encoding="utf-8"?>
<svg viewBox="0 0 500 500" xmlns="http://www.w3.org/2000/svg">
  <g transform="matrix(0.034408, 0, 0, -0.034408, -88.475243, 495.536865)" id="g174" style="">
    <path id="path176" style="fill:#211d1d;fill-opacity:1;fill-rule:nonzero;stroke:none" d="m 15676.3,9910.97 c -607.7,65.06 -1213.6,145.53 -1818.7,231.43 -152.4,21.7 -304.8,43.7 -457.1,65.7 -106.5,15.4 -215.6,37.5 -323.4,22.3 -235,-33.3 -306.1,-281.68 -314.1,-487.25 -6.7,-175.59 20,-400.62 189.9,-495.28 71.8,-39.98 154.7,-54.49 234.9,-66.9 137.2,-21.25 274.8,-40.58 412.2,-60.91 620.2,-91.79 1240.5,-183.57 1860.6,-275.37 112.9,-16.7 229,-26.68 339.8,-54.16 81.3,-20.15 162.5,-42.97 245.3,-55.99 64.5,-10.14 128.8,-17.65 157.4,54.07 26.4,66.18 24.6,190.47 -63.1,206.06 -503.6,89.52 -1014.6,128.93 -1519.8,208.68 -122.4,19.31 -243.7,42.06 -367,55.2 -129.9,13.85 -258.1,29.83 -386.7,52.81 -212.3,37.91 -432.5,47.45 -638.8,114.64 -94.8,30.89 -176.6,83.18 -194.2,188.61 -16.3,98.11 27.4,207.13 101,272.71 90.6,80.78 230.6,44.87 336.7,23.79 135.7,-26.92 273.5,-40.18 410.4,-58.56 559.8,-75.16 1116.4,-171.67 1674.4,-258.93 134.9,-21.09 269.9,-41.55 405,-60.96 107.2,-15.39 236,-45.48 295.8,71.45 34.3,67.18 43.2,179.54 -28.4,227.49 -62.7,42.05 -159.3,41.26 -231.5,47.74 -93.2,8.37 -189,11.13 -279.9,34.47 -42.5,10.89 -60.6,-54.78 -18.1,-65.68 87.9,-22.54 180.3,-26.78 270.4,-34.49 46.6,-4 93.4,-7.63 139.6,-15.33 25.5,-4.24 64.9,-7.44 85.2,-25.78 29.3,-26.45 22.7,-81.61 11.7,-114.63 -19.6,-59.1 -63.4,-79.26 -124.6,-73.76 -132.7,11.95 -265.8,37.94 -397.5,58.16 -527.4,80.99 -1053.1,172.72 -1581.4,247.88 -142.8,20.32 -285.8,39.57 -428.9,57.51 -117.4,14.7 -233.1,46.65 -351,55.31 -103.8,7.7 -199.7,-19.03 -267.7,-101.27 -59.8,-72.33 -96.9,-166.55 -92.1,-261.26 4.6,-89.12 46.2,-170.89 119.9,-222.35 75.7,-52.88 175.6,-74.68 264.3,-93.44 109,-23 219.6,-37.75 329.7,-53.06 105.9,-14.71 210.6,-35.6 316.3,-51.1 122.4,-17.94 245.9,-25.85 368.4,-43 115.3,-16.14 229.7,-38.75 344.9,-55.69 248.7,-36.55 498.2,-65.84 747.5,-97.07 125.1,-15.67 250,-31.67 374.8,-49.44 58.8,-8.4 117.7,-17.18 176.5,-26.6 26.9,-4.31 53.8,-8.78 80.8,-13.4 22.5,-3.86 46.6,-0.88 57,-22.39 13.2,-27.55 10.9,-86.59 -8.4,-110.87 -9.3,-11.72 -41.5,-5.95 -62.3,-3.09 -79.5,10.91 -157.6,33.11 -235.2,52.67 -98.5,24.8 -199.9,35.34 -300.2,50.18 -148.7,22 -297.4,44.01 -446.1,66.02 -297.3,43.99 -594.6,87.98 -891.9,131.98 -299.1,44.27 -598.2,88.85 -897.3,132.8 -151.6,22.28 -341.4,30.37 -418.7,185.92 -44.1,88.72 -53,196.44 -52.1,294.03 0.8,107.16 16.5,221.03 68,316.53 55,102.1 146.5,139.4 259,138.3 121.6,-1.2 244.4,-27.8 364.4,-45.1 573.2,-82.7 1146.7,-162.89 1721.8,-230.76 144.1,-17 288.3,-33.23 432.6,-48.67 43.5,-4.66 43.2,63.49 0,68.1 v 0"/>
  </g>
  <g transform="matrix(0.034247, 0, 0, -0.034247, -88.475243, 495.536865)" id="g178" style="">
    <path id="path180" style="fill:#211d1d;fill-opacity:1;fill-rule:nonzero;stroke:none" d="m 16178.5,9567.06 c 43.3,-60.8 45.8,-147.39 -2.4,-206.82 -9.4,-11.72 -13.9,-27.63 -5.3,-41.46 45,-72.85 40.8,-171.55 -14.8,-238.01 -28.1,-33.55 20,-82.2 48.4,-48.39 75.2,89.77 87.6,220.42 25.5,320.95 -1.8,-13.83 -3.5,-27.65 -5.3,-41.47 66.5,82.08 75.4,202.19 13.1,289.74 -25.4,35.57 -84.8,1.44 -59.2,-34.54 v 0"/>
  </g>
  <g transform="matrix(0.034029, 0, 0, -0.034029, -88.475243, 495.536865)" id="g182" style="">
    <path id="path184" style="fill:#211d1d;fill-opacity:1;fill-rule:nonzero;stroke:none" d="m 15895.5,9368.53 c 127.5,-13.63 255,-27.26 382.4,-40.89 22.1,-2.35 21.9,32.1 0,34.44 -127.4,13.63 -254.9,27.26 -382.4,40.89 -22,2.35 -21.8,-32.1 0,-34.44 v 0"/>
  </g>
  <g transform="matrix(0.03409, 0, 0, -0.03409, -88.475243, 495.536865)" id="g186" style="">
    <path id="path188" style="fill:#211d1d;fill-opacity:1;fill-rule:nonzero;stroke:none" d="m 16005.3,9418.51 c 89.7,-18.29 181.4,-24.19 272.6,-16.89 21.9,1.76 22.1,36.14 0,34.38 -88.2,-7.06 -176.7,-2.02 -263.5,15.65 -21.5,4.41 -30.8,-28.72 -9.1,-33.14 v 0"/>
  </g>
  <g transform="matrix(0.028714, 0, 0, -0.028714, -88.475243, 495.536865)" id="g190" style="">
    <path id="path192" style="fill:#211d1d;fill-opacity:1;fill-rule:nonzero;stroke:none" d="m 15600,11461.7 c 221.1,-31 442.2,-62 663.2,-93 25.7,-3.6 36.8,35.7 10.9,39.3 -221,31 -442.1,62 -663.2,93 -25.7,3.6 -36.7,-35.7 -10.9,-39.3 v 0"/>
  </g>
  <g transform="matrix(0.034766, 0, 0, -0.034766, -88.475243, 495.536865)" id="g194" style="">
    <path id="path196" style="fill:#211d1d;fill-opacity:1;fill-rule:nonzero;stroke:none" d="m 15682.8,11906.1 c -601.4,64.4 -1201,144 -1799.8,229.1 -148.2,21.1 -296.3,42.4 -444.4,63.8 -106.5,15.5 -215.8,38.1 -323.7,23.8 -104,-13.6 -182,-68.3 -235.7,-157.6 -53.7,-89.4 -86.2,-193.1 -106.2,-294.9 -33.3,-168.5 -47.1,-404.9 114.5,-515.1 66.4,-45.3 149.5,-57.1 227.7,-65.4 113.1,-12.1 225.2,-23.9 337.9,-40.6 614.9,-91 1229.9,-182 1844.8,-273 219.2,-32.4 438.1,-76.6 660.4,-78.1 42.2,-0.3 84.7,0 126.9,3.5 27.7,2.3 60.1,3.7 85.2,17.3 36.4,19.8 57.1,62.4 49.8,103.1 -10,55 -52.8,72.9 -102.2,81.4 -497.1,86.4 -1001.1,125.6 -1499.2,205.4 -121.5,19.5 -242,41 -364.5,53.7 -126.7,13.2 -251.3,31.2 -376.8,52.7 -210.2,35.9 -429.9,45.5 -632.7,115.9 -92.3,32 -166.4,89.2 -179,192 -11.7,96.8 34.2,210.2 112.9,269.2 93.8,70.4 230.4,32.1 334.5,11.5 136.3,-27 275.3,-39.5 413,-58.1 547.4,-74 1091.8,-168.3 1637.6,-253.6 135.9,-21.3 272,-41.9 408.3,-61.4 104.8,-15.1 227.1,-41.4 285.3,71.7 34.2,66.4 42.6,177.8 -28.1,225.2 -62.1,41.6 -157.6,40.8 -229.2,47.2 -92.1,8.3 -186.9,11.1 -276.9,34.1 -42.1,10.8 -60,-54.2 -17.9,-65 87,-22.3 178.4,-26.5 267.6,-34.1 46.1,-4 92.5,-7.5 138.1,-15.2 25.5,-4.2 64.1,-7.1 84.3,-25.2 28.9,-25.9 22.3,-81.6 11.6,-113.7 -18.3,-55.3 -58.8,-77.4 -116.4,-73.5 -130.9,8.7 -263.3,37 -393,56.9 -521.8,80 -1042,170.8 -1564.6,245.4 -138.5,19.7 -277.1,38.4 -415.9,55.9 -117.7,14.8 -233.7,44.8 -351.6,55.8 -101.8,9.6 -200.3,-11.2 -269.9,-90.7 -60.6,-69.2 -98.7,-159.4 -98.7,-252 0,-87.4 36.6,-171.7 106.2,-225.7 72.1,-55.8 169.7,-78.9 257.1,-98.2 107.6,-23.7 216.9,-38.7 326,-53.8 103.3,-14.3 205.3,-33.6 308.3,-49.7 120,-18.6 241,-27.1 361.3,-42.5 116.3,-14.8 231.4,-38.3 347.4,-55.6 243.1,-36.2 487.2,-65 731.1,-95.4 124.2,-15.5 248.5,-31.3 372.4,-48.7 58.8,-8.3 117.6,-16.9 176.2,-26.1 25,-3.9 49.9,-8 74.8,-12.1 22.4,-3.8 69.1,-3.3 86.9,-18.3 39,-33 -17,-53.5 -40.7,-56.6 -37,-4.7 -74.6,-5 -111.7,-5.3 -71.9,-0.6 -145,0.1 -216.5,7.9 -129.2,14 -275.5,40.6 -410.8,60.6 -145.5,21.5 -291,43 -436.5,64.6 -294.3,43.5 -588.5,87.1 -882.7,130.6 -147.1,21.8 -294.3,43.6 -441.4,65.3 -125.6,18.6 -251.3,40.7 -377.8,52.5 -82.5,7.7 -168.9,9.4 -247.7,37.5 -79.5,28.2 -124.7,91.1 -145.1,171.1 -24.1,94.5 -15,196.1 3.2,290.9 19.2,100 49.7,201.8 103.2,289 58.3,94.7 147.9,126.3 255.9,124.3 121.1,-2.2 243.3,-28.5 362.8,-45.7 564.6,-81.4 1129.6,-160.3 1696.1,-227.2 142.6,-16.8 285.2,-32.9 428,-48.2 43.1,-4.6 42.8,62.9 0,67.4 v 0"/>
  </g>
  <g transform="matrix(0.034605, 0, 0, -0.034605, -88.475243, 495.536865)" id="g198" style="">
    <path id="path200" style="fill:#211d1d;fill-opacity:1;fill-rule:nonzero;stroke:none" d="m 16179.8,11575 c 42.8,-60.2 45.3,-145.9 -2.3,-204.7 -9.4,-11.6 -13.8,-27.4 -5.4,-41 44.6,-72.1 40.5,-169.8 -14.6,-235.6 -27.8,-33.2 19.9,-81.4 47.9,-47.9 74.4,88.9 86.6,218.2 25.3,317.6 -1.8,-13.6 -3.6,-27.3 -5.4,-41 65.9,81.2 74.7,200.1 13,286.7 -25.1,35.3 -83.8,1.5 -58.5,-34.1 v 0"/>
  </g>
  <g transform="matrix(0.034387, 0, 0, -0.034387, -88.475243, 495.536865)" id="g202" style="">
    <path id="path204" style="fill:#211d1d;fill-opacity:1;fill-rule:nonzero;stroke:none" d="m 15899.7,11391.2 c 126.2,-13.5 252.4,-26.9 378.5,-40.4 21.8,-2.4 21.6,31.7 0,34 -126.1,13.5 -252.3,27 -378.5,40.5 -21.7,2.3 -21.6,-31.8 0,-34.1 v 0"/>
  </g>
  <g transform="matrix(0.034448, 0, 0, -0.034448, -88.475243, 495.536865)" id="g206" style="">
    <path id="path208" style="fill:#211d1d;fill-opacity:1;fill-rule:nonzero;stroke:none" d="m 16008.4,11437.1 c 88.7,-18.1 179.5,-23.9 269.8,-16.7 21.6,1.7 21.8,35.8 0,34 -87.3,-7 -175,-2 -260.7,15.5 -21.5,4.4 -30.6,-28.4 -9.1,-32.8 v 0"/>
  </g>
  <g transform="matrix(0.029072, 0, 0, -0.029072, -88.475243, 495.536865)" id="g210" style="">
    <path id="path212" style="fill:#211d1d;fill-opacity:1;fill-rule:nonzero;stroke:none" d="m 15608.7,13828.4 c 218.3,-30.6 436.6,-61.2 655,-91.9 25.4,-3.5 36.3,35.3 10.8,38.9 -218.4,30.6 -436.8,61.2 -655.1,91.9 -25.4,3.5 -36.3,-35.3 -10.7,-38.9 v 0"/>
  </g>
  <g transform="matrix(0.035362, 0, 0, -0.035362, -88.475243, 495.536865)" id="g214" style="">
    <path id="path216" style="fill:#211d1d;fill-opacity:1;fill-rule:nonzero;stroke:none" d="m 15597.1,10687.9 c -638.6,41.8 -1273.2,121.9 -1906.2,214.6 -159.2,23.3 -318.3,47.2 -477.4,71 -124.8,18.7 -253.2,46.3 -380,40.5 -113.1,-5.3 -219.6,-43.3 -288.1,-137.4 -69.2,-95.1 -96.4,-215.9 -106.6,-331.2 -16.9,-194.1 2.3,-463.2 176,-587.34 71.2,-50.88 159.5,-70.34 244.5,-83.22 133.1,-20.16 267.6,-33.36 401.3,-49.58 674.4,-81.87 1348.9,-163.72 2023.4,-245.58 83.3,-10.11 166.6,-20.22 249.9,-30.33 67.8,-8.24 147.4,-14.75 207.8,-25.72 83.2,-15.12 165,-37.72 248.2,-52.84 58.5,-10.61 160.4,-40.65 207.3,11.44 49.9,55.34 51.2,183.7 -2.5,237.07 -17.7,17.57 -38.3,19.18 -61.8,22.68 -32.1,4.76 -64.1,9.27 -96.1,13.63 -64,8.68 -128.1,16.73 -192.2,24.3 -139.7,16.47 -279.5,30.85 -419.4,44.75 -283.1,28.11 -566.5,53.52 -849,87.72 -134.1,16.23 -267.4,39.56 -401.7,53.43 -143.7,14.82 -288.1,20.08 -431.2,40.69 -235.6,34.1 -477,48.7 -709.7,100.1 -98.5,21.8 -215.6,49 -273.3,140.1 -57.2,90.1 -46.1,208.4 2.3,299.7 27.1,51.1 65.2,100.3 118.1,126.1 54,26.3 116.6,27.3 175.3,22.8 65.1,-4.9 129.1,-18.1 193.4,-28.6 70.8,-11.6 142.2,-17.6 213.5,-24.8 617.9,-62.1 1232.6,-149.3 1848,-231.1 147.7,-19.7 295.6,-38.9 443.6,-57.1 75,-9.2 150,-18.2 225,-26.9 66.9,-7.8 139.6,-22.6 202.5,10.1 85,44.2 118,169.2 86.4,255.7 -43.7,119.6 -178.1,96.1 -278.4,86.6 -56.1,-5.3 -113.6,-1.9 -169.9,-1.4 -74.5,0.7 -148.9,3.5 -223,10.1 -42.5,3.7 -42.3,-62.6 0,-66.3 126.1,-11.1 260.5,-20.1 387.2,-9.2 54.7,4.6 119.9,22.7 173.7,4.4 52.1,-17.6 61.2,-75.1 52.8,-123.3 -9.9,-57.3 -42.5,-104.1 -103.7,-110.2 -69.4,-6.9 -146,11.8 -215.1,20 -141.5,16.9 -283,34.7 -424.4,53.1 -583.2,76 -1165.3,160.7 -1750,225 -151.9,16.7 -306,25.2 -456.8,50.2 -113.7,18.8 -234.8,48.8 -349.7,21.4 -201.4,-47.9 -307.3,-314.2 -229.8,-497.3 83.9,-198.2 352,-222.4 537.3,-247.8 114.5,-15.75 229.5,-26.84 344.2,-41.05 126.4,-15.66 251.3,-37.56 378.4,-47.99 133.1,-10.93 265.1,-21.81 397.3,-41.22 124.7,-18.29 249.9,-33.53 375.2,-47.48 276.1,-30.74 552.7,-55.34 829,-83.61 132.8,-13.58 265.6,-27.92 398,-44.64 62.2,-7.84 124.1,-18.11 186.3,-25.58 22.2,-2.68 27.3,-8.57 33.7,-30.6 6.4,-22.15 7.1,-47.22 4.1,-70.01 -3.9,-30.62 -9.4,-53.24 -38,-54.61 -38,-1.84 -77.4,6.11 -114.7,12.77 -82.4,14.76 -163.4,36.26 -245.5,52.23 -134.3,26.14 -274.2,34.55 -410,51.03 -161.9,19.65 -323.8,39.3 -485.7,58.94 -324.2,39.36 -648.5,78.71 -972.7,118.07 -313.7,38.07 -627.4,76.28 -941.1,114.05 -87.6,10.54 -182,19.76 -262.2,59.17 -78.9,38.73 -127.5,107.93 -154.5,190.23 -35.9,109.5 -44.4,229.1 -37.1,343.7 7.2,113.8 32.4,242.2 107.6,332.2 76.6,91.6 202.2,100.4 313.2,92.6 135.4,-9.5 270.4,-36.3 404.6,-56.4 600.5,-89.7 1201.5,-177 1806.3,-232 153.9,-14 307.9,-26 462.1,-36.1 42.5,-2.8 42.3,63.5 0,66.3 v 0"/>
  </g>
  <g transform="matrix(0.03519, 0, 0, -0.03519, -88.475243, 495.536865)" id="g218" style="">
    <path id="path220" style="fill:#211d1d;fill-opacity:1;fill-rule:nonzero;stroke:none" d="m 16173.9,10373.5 c 53.8,-71.4 53.1,-167.5 -1.4,-238.4 -6.7,-8.7 -5.7,-24.7 0,-33.6 52.3,-79.8 51.5,-190.21 -8.8,-266.13 -26.4,-33.22 20.4,-80.66 47.1,-47.09 78.5,98.84 89.2,240.02 19.3,346.82 0,-11.2 0,-22.4 0,-33.6 67.1,87.4 67.5,217.6 1.3,305.6 -25.4,33.9 -83.2,0.7 -57.5,-33.6 v 0"/>
  </g>
  <g transform="matrix(0.034965, 0, 0, -0.034965, -88.475243, 495.536865)" id="g222" style="">
    <path id="path224" style="fill:#211d1d;fill-opacity:1;fill-rule:nonzero;stroke:none" d="m 15858.6,10144 c 140,-11.3 279.9,-22.6 419.9,-33.8 21.5,-1.8 21.3,31.8 0,33.5 -140,11.3 -279.9,22.5 -419.9,33.8 -21.4,1.7 -21.3,-31.8 0,-33.5 v 0"/>
  </g>
  <g transform="matrix(0.035057, 0, 0, -0.035057, -88.475243, 495.536865)" id="g226" style="">
    <path id="path228" style="fill:#211d1d;fill-opacity:1;fill-rule:nonzero;stroke:none" d="m 15900.9,10254.2 c 125.2,-22.5 250.7,-44.2 377.6,-54.8 21.5,-1.8 21.3,31.7 0,33.5 -123.9,10.3 -246.4,31.5 -368.7,53.5 -21,3.8 -30.1,-28.4 -8.9,-32.2 v 0"/>
  </g>
  <g transform="matrix(0.028959, 0, 0, -0.028959, -88.475243, 495.536865)" id="g230" style="">
    <path id="path232" style="fill:#211d1d;fill-opacity:1;fill-rule:nonzero;stroke:none" d="m 15531.9,12552.8 c 247.4,-28.2 494.8,-56.3 742.3,-84.4 25.8,-2.9 25.6,37.5 0,40.4 -247.5,28.2 -494.9,56.3 -742.3,84.4 -25.9,2.9 -25.7,-37.5 0,-40.4 v 0"/>
  </g>
  <g transform="matrix(0.028744, 0, 0, -0.028744, -88.475243, 495.536865)" id="g234" style="">
    <path id="path236" style="fill:#211d1d;fill-opacity:1;fill-rule:nonzero;stroke:none" d="m 15666.2,12858.6 c 202.6,-22.9 405.1,-45.8 607.8,-68.7 26,-3 25.8,37.8 0,40.7 -202.7,22.9 -405.2,45.8 -607.8,68.7 -26,3 -25.8,-37.8 0,-40.7 v 0"/>
  </g>
  <g transform="matrix(0.028477, 0, 0, -0.028477, -88.475243, 495.536865)" id="g238" style="">
    <path id="path240" style="fill:#211d1d;fill-opacity:1;fill-rule:nonzero;stroke:none" d="m 16021.6,14312.6 c 83.4,-12.1 166.9,-24.2 250.4,-36.3 11,-1.6 22.1,2.7 25.4,14.4 2.6,9.6 -3.4,23.7 -14.5,25.3 -83.4,12.1 -166.9,24.2 -250.4,36.3 -11,1.6 -22,-2.7 -25.2,-14.4 -2.7,-9.6 3.3,-23.7 14.3,-25.3 v 0"/>
  </g>
  <g transform="matrix(0.02832, 0, 0, -0.02832, -88.475243, 495.536865)" id="g242" style="">
    <path id="path244" style="fill:#211d1d;fill-opacity:1;fill-rule:nonzero;stroke:none" d="m 15832.4,11768.4 c 143.4,-27.1 286.9,-54.2 430.4,-81.3 26.1,-4.9 37.2,35 11.1,39.9 -143.5,27.1 -287,54.2 -430.5,81.3 -26,4.9 -37.3,-35 -11,-39.9 v 0"/>
  </g>
  <g transform="matrix(0.027836, 0, 0, -0.027836, -88.475243, 495.536865)" id="g302" style="">
    <path id="path304" style="fill:#211d1d;fill-opacity:1;fill-rule:nonzero;stroke:none" d="m 9466.1,11647.2 c 345.78,653.5 819,1236.1 1388.1,1708.1 161.1,133.6 330,257.5 505.1,372 18,11.8 28.5,38 15.2,57.6 -441.9,649.6 -917.8,1276 -1337.6,1940.6 -108.79,172.1 -213.6,346.8 -309.01,526.6 -25.34,47.9 -98.09,5.4 -72.65,-42.5 177.66,-335.1 385.96,-653.7 598.36,-967.6 227.7,-336.6 464.1,-667.2 698.9,-998.9 117.5,-166.1 234.8,-332.4 349.2,-500.7 5.1,19.2 10.1,38.4 15.2,57.6 -627.8,-410.6 -1171.2,-944.3 -1594.19,-1563.8 -120.07,-175.8 -229.76,-358.4 -329.29,-546.5 -25.33,-47.9 47.32,-90.5 72.68,-42.5 v 0"/>
  </g>
  <path id="path306" style="fill: rgb(33, 29, 29); fill-opacity: 1; fill-rule: nonzero; stroke: none;" d="M 147.22 186.688 C 147.404 182.109 148.444 175.403 152.828 172.857 C 155.415 171.353 159.212 171.706 161.984 172.427 C 165.206 173.266 168.11 174.936 170.988 176.56 C 172.303 177.303 173.485 175.28 172.171 174.538 C 168.899 172.691 165.549 170.786 161.841 169.982 C 158.637 169.288 154.58 169.13 151.645 170.832 C 146.473 173.835 145.096 181.23 144.876 186.688 C 144.816 188.198 147.159 188.195 147.22 186.688"/>
  <path id="path308" style="fill: rgb(33, 29, 29); fill-opacity: 1; fill-rule: nonzero; stroke: none;" d="M 15.309 119.044 C 20.43 129.426 24.637 140.281 28.955 151.013 C 34.05 163.674 39.025 176.386 44.303 188.97 C 46.563 194.359 48.849 199.75 51.434 204.995 C 51.723 205.58 52.509 205.692 53.038 205.414 C 73.714 194.586 97.252 190.207 120.347 188.591 C 126.868 188.134 133.403 187.912 139.94 187.856 C 141.447 187.843 141.451 185.5 139.94 185.513 C 116.329 185.711 92.254 188.008 69.805 195.711 C 63.643 197.827 57.627 200.368 51.855 203.392 C 52.389 203.531 52.924 203.672 53.458 203.811 C 48.337 193.429 44.13 182.574 39.811 171.842 C 34.717 159.181 29.742 146.471 24.464 133.885 C 22.204 128.496 19.918 123.105 17.332 117.86 C 16.665 116.508 14.643 117.694 15.309 119.044"/>
  <path id="path310" style="fill: rgb(33, 29, 29); fill-opacity: 1; fill-rule: nonzero; stroke: none;" d="M 114.234 97.088 C 121.882 116.099 130.797 134.636 140.657 152.595 C 143.355 157.508 146.138 162.373 149.025 167.18 C 149.801 168.47 151.828 167.295 151.048 165.996 C 140.591 148.593 131.337 130.428 123.055 111.894 C 120.774 106.791 118.58 101.651 116.494 96.465 C 115.938 95.084 113.67 95.688 114.234 97.088"/>
  <path id="path312" style="fill: rgb(33, 29, 29); fill-opacity: 1; fill-rule: nonzero; stroke: none;" d="M 142.359 185.994 C 142.109 179.507 144.336 172.315 150.171 168.78 C 157.571 164.297 166.415 168.222 172.768 172.71 C 174.002 173.581 175.174 171.551 173.951 170.688 C 168.074 166.536 160.633 163.129 153.302 164.962 C 147.787 166.338 143.719 170.623 141.653 175.793 C 140.364 179.018 139.882 182.534 140.016 185.994 C 140.074 187.498 142.418 187.503 142.359 185.994"/>
  <path id="path314" style="fill: rgb(33, 29, 29); fill-opacity: 1; fill-rule: nonzero; stroke: none;" d="M 22.366 104.71 C 32.025 127.521 40.26 150.898 49.306 173.95 C 51.765 180.212 54.286 186.453 56.91 192.649 C 57.1 193.098 57.789 193.333 58.233 193.186 C 78.724 186.395 100.173 183.052 121.665 181.575 C 127.77 181.158 133.883 180.888 140 180.725 C 141.505 180.685 141.511 178.342 140 178.382 C 118.342 178.957 96.61 180.899 75.485 185.879 C 69.456 187.3 63.49 188.978 57.61 190.928 C 58.051 191.107 58.492 191.286 58.933 191.465 C 49.274 168.657 41.039 145.28 31.992 122.226 C 29.534 115.963 27.013 109.725 24.389 103.529 C 23.803 102.145 21.784 103.337 22.366 104.71"/>
  <path id="path316" style="fill: rgb(33, 29, 29); fill-opacity: 1; fill-rule: nonzero; stroke: none;" d="M 28.34 99.155 C 40.723 119.394 49.764 141.692 56.677 164.34 C 58.596 170.629 60.333 176.971 61.878 183.359 C 62.025 183.966 62.726 184.353 63.319 184.18 C 83.411 178.222 104.212 174.791 125.156 174.041 C 131.113 173.827 137.076 173.835 143.034 174.046 C 144.542 174.099 144.54 171.756 143.034 171.703 C 121.983 170.96 100.853 172.865 80.277 177.38 C 74.363 178.679 68.501 180.199 62.696 181.919 C 63.177 182.192 63.657 182.464 64.138 182.737 C 58.516 159.488 50.51 136.642 39.86 115.21 C 36.939 109.332 33.789 103.569 30.364 97.972 C 29.578 96.687 27.55 97.862 28.34 99.155"/>
  <path id="path318" style="fill: rgb(33, 29, 29); fill-opacity: 1; fill-rule: nonzero; stroke: none;" d="M 149.844 165.593 C 128.789 161.737 106.063 159.266 85.114 164.989 C 79.336 166.565 73.738 168.866 68.668 172.069 C 69.242 172.304 69.815 172.536 70.389 172.769 C 63.052 145.264 51.354 118.923 35.78 95.089 C 35.651 94.891 35.405 94.386 35.203 94.21 C 35.107 94.063 35.01 93.919 34.914 93.772 C 34.514 94.921 34.475 95.332 34.799 95.001 C 34.843 95.025 34.491 95.044 34.888 94.98 C 34.992 94.964 35.412 94.769 35.781 94.643 C 37.031 94.224 38.315 93.898 39.593 93.574 C 43.273 92.647 46.988 91.854 50.704 91.084 C 54.375 90.325 58.053 89.601 61.742 88.942 C 64.938 88.367 67.294 88.161 70.658 88.017 C 85.775 87.373 101.18 88.792 113.803 97.916 C 115.028 98.803 116.199 96.77 114.986 95.893 C 103.56 87.635 89.649 85.386 75.836 85.53 C 71.615 85.575 67.344 85.626 63.173 86.323 C 59.681 86.908 56.205 87.587 52.734 88.284 C 48.734 89.088 44.739 89.927 40.771 90.873 C 39.227 91.245 37.684 91.624 36.161 92.073 C 35.306 92.324 34.264 92.559 33.512 93.064 C 31.781 94.224 33.544 95.941 34.329 97.152 C 36.328 100.238 38.262 103.366 40.131 106.532 C 43.914 112.941 47.427 119.508 50.662 126.212 C 57.964 141.344 63.799 157.161 68.129 173.391 C 68.319 174.105 69.211 174.497 69.85 174.094 C 78.901 168.371 89.519 165.71 100.085 164.666 C 110.837 163.6 121.711 164.086 132.427 165.312 C 138.054 165.956 143.651 166.832 149.221 167.853 C 150.695 168.123 151.327 165.865 149.844 165.593"/>
  <g transform="matrix(0.028195, 0, 0, -0.028195, -88.475243, 495.536865)" id="g320" style="">
    <path id="path322" style="fill:#211d1d;fill-opacity:1;fill-rule:nonzero;stroke:none" d="m 8931.23,16154.6 c 73.32,24.5 147.67,44.8 223.18,61.5 -15.64,6.3 -31.28,12.7 -46.93,19.1 343,-695.1 739.04,-1363.7 1184.82,-1997.7 126.6,-180.1 257.2,-357.2 391.5,-531.6 5,19 10,37.9 15,56.9 -595.1,-390.7 -1076.57,-948.5 -1376.39,-1594.2 -83.64,-180.1 -153.22,-366.5 -207.91,-557.4 -14.75,-51.5 65.43,-73.5 80.16,-22.1 190.74,666 569.23,1272.6 1080.24,1740.1 145.4,133 301.2,253.7 465.8,361.8 16.9,11.1 29.3,38.3 15,56.9 -473.1,614 -898.85,1264.1 -1271.73,1943.7 -105.87,192.9 -207.33,388.2 -304.72,585.5 -8.37,17 -29.8,22.9 -46.93,19.1 -75.52,-16.6 -149.87,-36.9 -223.19,-61.5 -50.47,-16.9 -28.83,-97.2 22.1,-80.1 v 0"/>
  </g>
  <g transform="matrix(0.028607, 0, 0, -0.028607, -88.475243, 495.536865)" id="g324" style="">
    <path id="path326" style="fill:#211d1d;fill-opacity:1;fill-rule:nonzero;stroke:none" d="m 8271.64,16260.5 c -198.13,-222.7 -373.16,-467.9 -534.01,-718.4 -205.46,-320 -389.32,-658.7 -516.48,-1017.9 -67.29,-190.1 -116.91,-387.3 -131.82,-588.8 -3.89,-52.6 78.05,-52.4 81.93,0 26.55,358.9 166.35,705.9 326.53,1024.3 160.27,318.6 352.15,621.9 563.85,908.8 84.76,114.8 173.01,227.4 267.93,334.1 34.94,39.3 -22.8,97.4 -57.93,57.9 v 0"/>
  </g>
  <path id="path328" style="fill: rgb(33, 29, 29); fill-opacity: 1; fill-rule: nonzero; stroke: none;" d="M 164.142 164.997 C 169.563 147.195 179.194 130.756 192.058 117.307 C 195.663 113.543 199.515 110.021 203.576 106.756 C 204.041 106.382 204.022 105.474 203.576 105.1 C 200.795 102.76 198.131 100.254 195.55 97.697 C 194.476 96.633 192.817 98.29 193.891 99.353 C 196.475 101.91 199.138 104.416 201.92 106.756 C 201.92 106.203 201.92 105.653 201.92 105.1 C 187.193 116.938 175.312 132.269 167.504 149.474 C 165.308 154.315 163.43 159.29 161.883 164.374 C 161.442 165.82 163.704 166.437 164.142 164.997"/>
  <g transform="matrix(0.028579, 0, 0, -0.028579, -88.475243, 495.536865)" id="g330" style="">
    <path id="path332" style="fill:#211d1d;fill-opacity:1;fill-rule:nonzero;stroke:none" d="m 8391.39,16053.9 c 106.77,61.5 217.38,115.2 332.6,159 -16.81,9.5 -33.63,19.1 -50.44,28.6 182.04,-614.8 441.95,-1206.4 773.17,-1755.4 94.14,-156 194.08,-308.4 299.16,-457.1 2.15,16.5 4.3,33.1 6.45,49.7 -272.42,-259.7 -518.33,-540.2 -726.14,-854.7 -209.48,-317.1 -380.05,-659.8 -507.27,-1017.8 -71.9,-202.4 -129.18,-409.7 -172.09,-620.1 -10.51,-51.6 68.52,-73.6 79.07,-21.8 149.11,731.2 478.26,1423.8 952.86,2000.1 133.59,162.3 279.52,311.3 431.53,456.3 12.15,11.6 16.55,35.3 6.36,49.7 -367.68,520.4 -669.63,1086.8 -893.55,1683.5 -62.94,167.7 -119.61,337.7 -170.48,509.4 -5.84,19.8 -29.33,36.7 -50.43,28.7 -121.83,-46.4 -239.26,-102.2 -352.18,-167.3 -45.7,-26.4 -4.45,-97.3 41.38,-70.8 v 0"/>
  </g>
  <path id="path334" style="fill: rgb(33, 29, 29); fill-opacity: 1; fill-rule: nonzero; stroke: none;" d="M 17.902 118.56 C 20.908 117.181 24.11 116.246 27.376 115.736 C 28.001 115.637 28.348 114.854 28.194 114.293 C 28.011 113.628 27.38 113.377 26.753 113.476 C 23.275 114.021 19.916 115.068 16.719 116.538 C 16.144 116.802 16.002 117.633 16.299 118.141 C 16.644 118.731 17.325 118.827 17.902 118.56"/>
  <path id="path336" style="fill: rgb(33, 29, 29); fill-opacity: 1; fill-rule: nonzero; stroke: none;" d="M 23.984 105.156 C 24.107 105.079 24.233 105.009 24.363 104.948 C 24.417 104.921 24.472 104.897 24.527 104.87 C 24.381 104.937 24.433 104.908 24.551 104.865 C 24.833 104.763 25.117 104.675 25.408 104.6 C 25.737 104.518 26.071 104.451 26.406 104.395 C 26.497 104.379 26.588 104.365 26.679 104.352 C 26.7 104.349 26.923 104.317 26.8 104.333 C 26.657 104.352 26.952 104.317 26.979 104.315 C 27.072 104.304 27.166 104.293 27.26 104.282 C 28.551 104.154 29.85 104.133 31.147 104.141 C 31.76 104.144 32.347 103.599 32.319 102.968 C 32.29 102.332 31.804 101.8 31.147 101.798 C 29.775 101.79 28.4 101.811 27.035 101.963 C 25.591 102.124 24.064 102.362 22.801 103.131 C 22.261 103.46 22.057 104.181 22.381 104.734 C 22.697 105.274 23.441 105.485 23.984 105.156"/>
  <path id="path338" style="fill: rgb(33, 29, 29); fill-opacity: 1; fill-rule: nonzero; stroke: none;" d="M 28.723 99.049 C 30.82 98.966 32.905 98.57 34.875 97.844 C 35.448 97.633 35.9 97.039 35.693 96.401 C 35.511 95.84 34.867 95.356 34.252 95.583 C 33.333 95.923 32.391 96.193 31.432 96.388 C 31.201 96.433 30.969 96.476 30.737 96.513 C 30.611 96.535 30.486 96.553 30.36 96.572 C 30.615 96.532 30.263 96.583 30.24 96.585 C 29.736 96.647 29.23 96.684 28.723 96.703 C 28.112 96.727 27.522 97.226 27.552 97.876 C 27.579 98.49 28.067 99.073 28.723 99.049"/>
  <g transform="matrix(0.02824, 0, 0, -0.02824, -88.475243, 495.536865)" id="g340" style="">
    <path id="path342" style="fill:#211d1d;fill-opacity:1;fill-rule:nonzero;stroke:none" d="m 9213.61,16081.2 c 34.81,22.8 69.63,45.6 104.45,68.3 17.88,11.8 35.76,23.5 53.64,35.2 8.47,5.5 16.94,11.1 25.4,16.6 3.84,2.5 10.14,4.9 13.1,8.5 4.66,5.6 8.22,-0.9 -1.15,4 -3.67,-0.5 -6.5,0.7 -8.5,3.4 -2.77,3.1 -3.14,3.2 -1.11,0.2 0.94,-3.6 4.04,-7.6 5.7,-11.1 4.3,-9.1 8.31,-18.4 12.46,-27.5 8.78,-19.4 17.55,-38.7 26.32,-58.1 17.52,-38.7 35.12,-77.4 52.62,-116.1 9.28,-20.4 38.89,-25.3 56.77,-14.9 21,12.3 24.22,36.3 14.85,56.8 -20.24,44.8 -40.58,89.6 -60.92,134.4 -9.65,21.4 -19.31,42.9 -29.05,64.2 -10.22,22.3 -25.35,41.7 -50.18,48.2 -25.67,6.7 -49.04,-4.9 -69.96,-18.5 -20.74,-13.5 -41.41,-27.1 -62.11,-40.7 -41.4,-27.1 -82.81,-54.2 -124.21,-81.3 -18.73,-12.2 -26.62,-36.7 -14.89,-56.7 10.89,-18.7 37.94,-27.3 56.77,-14.9 v 0"/>
  </g>
  <g transform="matrix(0.027369, 0, 0, -0.027369, -88.475243, 495.536865)" id="g344" style="">
    <path id="path346" style="fill:#211d1d;fill-opacity:1;fill-rule:nonzero;stroke:none" d="m 8992.95,12085.7 c 245.37,721.4 515.12,1465 1004.21,2061.6 135.94,165.8 288.24,317.5 456.24,450.7 18.3,14.4 14.9,45.6 0,60.5 -226,227.8 -431,474.4 -604.91,744.3 -173.51,269 -316.43,555.9 -448.52,847.1 -22.74,50.1 -96.56,6.6 -73.94,-43.2 134.31,-296.1 279.86,-587.8 457.25,-860.7 175.91,-270.6 382.42,-519.1 609.62,-748 0,20.2 0,40.4 0,60.5 -615.96,-488.3 -981.42,-1205 -1258.61,-1924.8 -79.56,-206.6 -152.63,-415.6 -223.91,-625.2 -17.78,-52.3 64.89,-74.7 82.57,-22.8 v 0"/>
  </g>
  <g transform="matrix(0.028544, 0, 0, -0.028544, -88.475243, 495.536865)" id="g348" style="">
    <path id="path350" style="fill:#211d1d;fill-opacity:1;fill-rule:nonzero;stroke:none" d="m 8286.79,16228.6 c 227.55,-651.9 613.44,-1236.1 1049.9,-1766.4 124.47,-151.2 253.91,-298.3 386.64,-442.3 35.94,-38.9 93.88,19.3 58.03,58.1 -459.25,498.1 -884.14,1038.5 -1190.57,1645.5 -86.17,170.7 -161.8,346.4 -224.83,526.9 -17.3,49.6 -96.64,28.3 -79.17,-21.8 v 0"/>
  </g>
  <g transform="matrix(0.026959, 0, 0, -0.026959, -88.475243, 495.536865)" id="g352" style="">
    <path id="path354" style="fill:#211d1d;fill-opacity:1;fill-rule:nonzero;stroke:none" d="m 8148.58,15479.5 c 133.07,270 285.33,531.8 472.84,767.9 17.22,21.6 -13.33,52.6 -30.73,30.7 -189.96,-239.2 -344.81,-503.1 -479.64,-776.6 -12.32,-25 25.14,-47.1 37.53,-22 v 0"/>
  </g>
  <path id="path356" style="fill: rgb(33, 29, 29); fill-opacity: 1; fill-rule: nonzero; stroke: none;" d="M 123.402 98.493 C 124.778 93.262 126.673 88.185 128.858 83.24 C 129.16 82.559 128.15 81.96 127.846 82.65 C 125.62 87.689 123.675 92.85 122.272 98.183 C 122.08 98.912 123.211 99.222 123.402 98.493"/>
  <path id="path358" style="fill: rgb(33, 29, 29); fill-opacity: 1; fill-rule: nonzero; stroke: none;" d="M 146.788 72.529 C 147.994 70.758 149.247 69.016 150.542 67.309 C 150.733 67.058 150.582 66.654 150.332 66.507 C 150.031 66.331 149.722 66.465 149.53 66.718 C 148.235 68.426 146.983 70.168 145.776 71.939 C 145.598 72.201 145.727 72.588 145.987 72.74 C 146.276 72.909 146.609 72.791 146.788 72.529"/>
  <path id="path360" style="fill: rgb(33, 29, 29); fill-opacity: 1; fill-rule: nonzero; stroke: none;" d="M 129.991 107.627 C 133.339 97.934 137.237 88.407 142.387 79.521 C 142.766 78.867 141.754 78.276 141.376 78.928 C 136.176 87.902 132.241 97.531 128.861 107.315 C 128.615 108.031 129.746 108.338 129.991 107.627"/>
  <path id="path362" style="fill: rgb(33, 29, 29); fill-opacity: 1; fill-rule: nonzero; stroke: none;" d="M 148.593 89.169 C 150.779 85.463 153.156 81.867 155.828 78.493 C 156.291 77.907 155.467 77.071 154.999 77.662 C 152.264 81.119 149.819 84.784 147.581 88.578 C 147.197 89.227 148.21 89.818 148.593 89.169"/>
  <path id="path364" style="fill: rgb(33, 29, 29); fill-opacity: 1; fill-rule: nonzero; stroke: none;" d="M 134.978 118.25 C 138.046 110.478 141.317 102.781 145.168 95.362 C 145.515 94.694 144.504 94.101 144.156 94.771 C 140.258 102.279 136.953 110.072 133.848 117.938 C 133.571 118.64 134.704 118.945 134.978 118.25"/>
  <path id="path366" style="fill: rgb(33, 29, 29); fill-opacity: 1; fill-rule: nonzero; stroke: none;" d="M 144.603 117.788 C 148.772 109.265 153.399 100.932 158.99 93.251 C 160.615 91.02 162.324 88.851 164.117 86.753 C 164.605 86.182 163.78 85.348 163.289 85.923 C 157.024 93.256 151.838 101.429 147.3 109.922 C 146.018 112.324 144.787 114.75 143.591 117.195 C 143.261 117.871 144.271 118.464 144.603 117.788"/>
  <path id="path368" style="fill: rgb(33, 29, 29); fill-opacity: 1; fill-rule: nonzero; stroke: none;" d="M 139.632 128.568 C 140.183 127.307 140.741 126.049 141.309 124.793 C 141.435 124.515 141.398 124.149 141.099 123.992 C 140.842 123.855 140.432 123.903 140.297 124.203 C 139.73 125.456 139.171 126.717 138.62 127.978 C 138.498 128.258 138.528 128.619 138.831 128.779 C 139.084 128.913 139.501 128.87 139.632 128.568"/>
  <path id="path370" style="fill: rgb(33, 29, 29); fill-opacity: 1; fill-rule: nonzero; stroke: none;" d="M 158.268 115.723 C 160.881 111.264 163.593 106.861 166.57 102.631 C 167.006 102.014 165.99 101.429 165.559 102.041 C 162.582 106.268 159.869 110.673 157.256 115.132 C 156.874 115.784 157.887 116.375 158.268 115.723"/>
  <path id="path372" style="fill: rgb(33, 29, 29); fill-opacity: 1; fill-rule: nonzero; stroke: none;" d="M 145.178 141.807 C 148.027 134.256 151.827 127.12 155.765 120.091 C 156.134 119.434 155.123 118.843 154.754 119.5 C 150.765 126.618 146.933 133.85 144.048 141.497 C 143.781 142.202 144.914 142.506 145.178 141.807"/>
  <path id="path374" style="fill: rgb(33, 29, 29); fill-opacity: 1; fill-rule: nonzero; stroke: none;" d="M 76.309 97.208 C 86.896 96.185 97.639 97.082 107.793 100.318 C 108.513 100.547 108.822 99.415 108.105 99.188 C 97.861 95.923 86.99 95.004 76.309 96.035 C 75.565 96.107 75.557 97.28 76.309 97.208"/>
  <path id="path376" style="fill: rgb(33, 29, 29); fill-opacity: 1; fill-rule: nonzero; stroke: none;" d="M 54.715 101.867 C 59.359 100.347 64.092 99.123 68.899 98.244 C 69.64 98.111 69.326 96.981 68.588 97.114 C 63.781 97.993 59.047 99.22 54.403 100.737 C 53.69 100.97 53.995 102.102 54.715 101.867"/>
  <path id="path378" style="fill: rgb(33, 29, 29); fill-opacity: 1; fill-rule: nonzero; stroke: none;" d="M 61.846 110.673 C 74.112 108.285 86.723 105.893 99.256 107.422 C 102.771 107.852 106.24 108.629 109.596 109.759 C 110.312 110.003 110.619 108.87 109.907 108.629 C 97.771 104.536 84.754 105.519 72.325 107.563 C 68.716 108.156 65.124 108.846 61.534 109.543 C 60.795 109.687 61.108 110.817 61.846 110.673"/>
  <path id="path380" style="fill: rgb(33, 29, 29); fill-opacity: 1; fill-rule: nonzero; stroke: none;" d="M 89.896 117.726 C 97.909 117.259 105.948 117.499 113.922 118.41 C 114.67 118.496 114.664 117.323 113.922 117.238 C 105.948 116.326 97.909 116.086 89.896 116.554 C 89.147 116.596 89.142 117.769 89.896 117.726"/>
  <path id="path382" style="fill: rgb(33, 29, 29); fill-opacity: 1; fill-rule: nonzero; stroke: none;" d="M 66.632 121.018 C 71.765 119.899 76.945 119.006 82.164 118.4 C 82.904 118.314 82.913 117.141 82.164 117.227 C 76.841 117.847 71.556 118.744 66.32 119.888 C 65.584 120.048 65.896 121.178 66.632 121.018"/>
  <path id="path384" style="fill: rgb(33, 29, 29); fill-opacity: 1; fill-rule: nonzero; stroke: none;" d="M 115.486 128.91 C 117.156 129.006 118.825 129.121 120.493 129.255 C 120.809 129.279 121.079 128.966 121.079 128.667 C 121.079 128.33 120.81 128.106 120.493 128.082 C 118.825 127.951 117.156 127.836 115.486 127.74 C 115.17 127.721 114.9 128.021 114.9 128.325 C 114.9 128.656 115.169 128.892 115.486 128.91"/>
  <path id="path386" style="fill: rgb(33, 29, 29); fill-opacity: 1; fill-rule: nonzero; stroke: none;" d="M 72.933 132.643 C 81.826 129.96 91.096 128.854 100.361 128.624 C 102.973 128.56 105.587 128.566 108.2 128.619 C 108.954 128.635 108.954 127.462 108.2 127.446 C 98.884 127.254 89.511 127.713 80.361 129.567 C 77.752 130.096 75.17 130.743 72.622 131.512 C 71.902 131.732 72.209 132.862 72.933 132.643"/>
  <path id="path388" style="fill: rgb(33, 29, 29); fill-opacity: 1; fill-rule: nonzero; stroke: none;" d="M 92.071 139.947 C 102.436 138.683 112.909 138.446 123.319 139.255 C 124.071 139.314 124.068 138.141 123.319 138.082 C 112.909 137.273 102.436 137.51 92.071 138.774 C 91.332 138.865 91.323 140.038 92.071 139.947"/>
  <path id="path390" style="fill: rgb(33, 29, 29); fill-opacity: 1; fill-rule: nonzero; stroke: none;" d="M 76.813 142.621 C 79.358 142.044 81.916 141.531 84.486 141.08 C 85.228 140.949 84.914 139.819 84.175 139.95 C 81.605 140.401 79.047 140.914 76.502 141.491 C 75.767 141.657 76.078 142.787 76.813 142.621"/>
  <path id="path392" style="fill: rgb(33, 29, 29); fill-opacity: 1; fill-rule: nonzero; stroke: none;" d="M 114.379 150.134 C 120.059 150.03 125.738 150.169 131.415 150.343 C 132.169 150.367 132.168 149.194 131.415 149.17 C 125.738 148.999 120.059 148.857 114.379 148.964 C 113.626 148.977 113.624 150.15 114.379 150.134"/>
  <path id="path394" style="fill: rgb(33, 29, 29); fill-opacity: 1; fill-rule: nonzero; stroke: none;" d="M 80.741 156.055 C 89.086 152.635 98.024 151.061 106.987 150.447 C 107.735 150.396 107.741 149.223 106.987 149.277 C 97.923 149.896 88.869 151.467 80.429 154.925 C 79.741 155.205 80.042 156.341 80.741 156.055"/>
  <path id="path396" style="fill: rgb(33, 29, 29); fill-opacity: 1; fill-rule: nonzero; stroke: none;" d="M 140.034 184.508 C 139.736 185.55 139.624 186.702 139.93 187.757 C 140.193 188.663 140.742 189.419 141.516 189.956 C 142.891 190.91 144.854 190.717 146.05 189.571 C 146.838 188.818 147.181 187.733 147.214 186.667 C 147.233 186.055 146.661 185.467 146.042 185.494 C 145.391 185.524 144.89 186.01 144.87 186.667 C 144.867 186.763 144.86 186.862 144.852 186.958 C 144.844 187.07 144.781 187.201 144.872 186.833 C 144.861 186.875 144.857 186.921 144.849 186.966 C 144.818 187.135 144.773 187.3 144.715 187.461 C 144.701 187.498 144.684 187.535 144.671 187.573 C 144.797 187.199 144.772 187.346 144.724 187.437 C 144.695 187.495 144.667 187.551 144.634 187.607 C 144.597 187.672 144.555 187.736 144.514 187.797 C 144.457 187.883 144.346 187.965 144.61 187.677 C 144.581 187.709 144.556 187.741 144.528 187.773 C 144.438 187.875 144.336 187.96 144.236 188.051 C 144.552 187.762 144.395 187.933 144.292 188 C 144.231 188.04 144.167 188.078 144.102 188.11 C 143.991 188.169 143.744 188.233 144.168 188.091 C 144.115 188.11 144.064 188.131 144.011 188.15 C 143.947 188.169 143.883 188.187 143.817 188.203 C 143.687 188.233 143.389 188.241 143.866 188.209 C 143.743 188.217 143.622 188.23 143.498 188.227 C 143.431 188.225 143.365 188.217 143.297 188.214 C 143.206 188.206 143.079 188.161 143.509 188.243 C 143.465 188.233 143.42 188.227 143.376 188.219 C 143.254 188.195 143.134 188.163 143.016 188.12 C 142.741 188.022 143.287 188.254 143.075 188.147 C 143.002 188.112 142.931 188.078 142.861 188.035 C 142.811 188.006 142.762 187.976 142.714 187.941 C 142.471 187.776 142.933 188.134 142.754 187.976 C 142.644 187.88 142.544 187.781 142.447 187.672 C 142.285 187.493 142.644 187.952 142.471 187.701 C 142.43 187.645 142.393 187.586 142.358 187.525 C 142.321 187.463 142.287 187.399 142.256 187.335 C 142.238 187.298 142.224 187.26 142.205 187.225 C 142.395 187.586 142.286 187.42 142.248 187.314 C 142.184 187.135 142.142 186.953 142.106 186.769 C 142.084 186.659 142.111 186.52 142.12 186.897 C 142.119 186.833 142.107 186.769 142.102 186.707 C 142.095 186.608 142.091 186.509 142.091 186.411 C 142.091 186.288 142.096 186.165 142.105 186.045 C 142.109 185.988 142.115 185.935 142.12 185.882 C 142.138 185.679 142.071 186.186 142.107 185.97 C 142.154 185.687 142.215 185.409 142.294 185.133 C 142.463 184.543 142.088 183.83 141.476 183.691 C 140.851 183.549 140.215 183.878 140.034 184.508"/>
  <path id="path398" style="fill: rgb(33, 29, 29); fill-opacity: 1; fill-rule: nonzero; stroke: none;" d="M 169.89 176.039 C 171.288 176.811 173.004 177.345 174.53 176.621 C 175.794 176.023 176.189 174.457 175.743 173.212 C 175.433 172.347 174.891 171.601 174.23 170.971 C 173.787 170.546 173.008 170.495 172.573 170.971 C 172.152 171.43 172.101 172.173 172.573 172.627 C 172.79 172.836 172.994 173.055 173.18 173.293 C 173.119 173.212 173.058 173.132 172.997 173.055 C 173.209 173.33 173.395 173.624 173.534 173.944 C 173.495 173.851 173.456 173.757 173.416 173.664 C 173.506 173.878 173.573 174.097 173.607 174.324 C 173.593 174.22 173.579 174.115 173.565 174.014 C 173.587 174.18 173.591 174.351 173.57 174.519 C 173.584 174.415 173.598 174.31 173.612 174.206 C 173.594 174.334 173.562 174.455 173.514 174.575 C 173.554 174.481 173.593 174.388 173.632 174.294 C 173.584 174.409 173.523 174.513 173.447 174.612 C 173.508 174.532 173.569 174.455 173.631 174.375 C 173.558 174.465 173.476 174.546 173.384 174.615 C 173.463 174.554 173.542 174.495 173.622 174.433 C 173.516 174.511 173.402 174.575 173.281 174.628 C 173.374 174.588 173.467 174.548 173.561 174.511 C 173.396 174.578 173.224 174.623 173.048 174.647 C 173.152 174.634 173.255 174.62 173.359 174.607 C 173.089 174.642 172.817 174.634 172.546 174.599 C 172.65 174.615 172.754 174.628 172.858 174.642 C 172.408 174.58 171.975 174.444 171.557 174.27 C 171.65 174.31 171.743 174.351 171.837 174.388 C 171.575 174.278 171.322 174.153 171.073 174.014 C 170.537 173.717 169.771 173.867 169.47 174.433 C 169.179 174.984 169.317 175.721 169.89 176.039"/>
  <path id="path18" style="fill: rgb(33, 29, 29); fill-opacity: 1; fill-rule: nonzero; stroke: none;" d="M 61.573 301.415 C 61.311 320.162 61.759 338.919 62.189 357.657 C 62.568 374.16 63.103 390.659 63.387 407.162 C 63.422 409.181 63.458 411.204 63.443 413.222 C 63.438 413.761 63.42 414.299 63.404 414.837 C 63.392 415.257 63.293 415.057 63.409 414.924 C 63.997 414.259 63.715 414.537 63.168 414.806 C 56.808 417.917 48.596 417.778 41.704 417.116 C 38.483 416.804 34.87 416.334 32.001 414.729 C 31.228 414.296 30.388 413.69 30.156 412.904 C 29.685 411.318 29.832 408.872 29.708 407.068 C 28.986 396.526 28.447 385.97 27.969 375.416 C 26.947 352.827 26.195 330.216 25.815 307.606 C 25.777 305.339 25.744 303.072 25.717 300.805 C 25.697 299.061 22.984 299.055 23.005 300.805 C 23.274 323.634 24.017 346.465 24.988 369.273 C 25.465 380.506 26.007 391.738 26.724 402.955 C 26.877 405.368 27.04 407.78 27.216 410.192 C 27.327 411.708 27.213 413.415 28.035 414.763 C 29.525 417.203 32.856 418.208 35.458 418.836 C 43.113 420.685 51.88 420.698 59.557 418.953 C 61.353 418.545 65.381 417.735 66.025 415.648 C 66.343 414.612 66.159 413.254 66.158 412.196 C 66.13 397.218 65.498 382.232 65.13 367.257 C 64.641 347.309 64.144 327.346 64.231 307.389 C 64.24 305.397 64.257 303.406 64.285 301.415 C 64.31 299.67 61.596 299.666 61.573 301.415"/>
  <path id="path20" style="fill: rgb(33, 29, 29); fill-opacity: 1; fill-rule: nonzero; stroke: none;" d="M 25.119 301.121 C 26.865 301.121 26.867 298.408 25.119 298.408 C 23.374 298.408 23.371 301.121 25.119 301.121"/>
  <path id="path22" style="fill: rgb(33, 29, 29); fill-opacity: 1; fill-rule: nonzero; stroke: none;" d="M 25.622 300.673 C 40.947 290.07 56.928 280.449 73.466 271.864 C 75.017 271.06 73.647 268.716 72.098 269.52 C 55.559 278.105 39.577 287.73 24.252 298.331 C 22.826 299.318 24.181 301.668 25.622 300.673"/>
  <path id="path24" style="fill: rgb(33, 29, 29); fill-opacity: 1; fill-rule: nonzero; stroke: none;" d="M 63.613 301.256 C 75.741 292.64 88.412 284.726 99.796 275.112 C 101.132 273.982 99.205 272.071 97.879 273.194 C 86.672 282.657 74.181 290.435 62.244 298.915 C 60.833 299.918 62.186 302.271 63.613 301.256"/>
  <path id="path26" style="fill: rgb(33, 29, 29); fill-opacity: 1; fill-rule: nonzero; stroke: none;" d="M 90.065 414.92 C 89.847 415.993 88.132 416.479 87.168 416.761 C 85.055 417.382 82.836 417.605 80.642 417.673 C 78.388 417.741 76.098 417.655 73.877 417.249 C 72.358 416.971 70.466 416.627 69.308 415.515 C 69.44 415.833 69.573 416.155 69.705 416.474 C 68.916 390.349 69.426 364.196 69.993 338.071 C 70.148 330.866 70.315 323.66 70.473 316.454 C 70.511 314.706 67.799 314.706 67.76 316.454 C 67.306 337.274 66.772 358.096 66.637 378.923 C 66.571 389.131 66.598 399.34 66.814 409.546 C 66.838 410.708 66.865 411.871 66.895 413.031 C 66.925 414.169 66.754 415.545 67.016 416.652 C 67.27 417.729 68.494 418.344 69.436 418.768 C 71.883 419.869 74.676 420.2 77.33 420.345 C 80.639 420.531 84.089 420.36 87.312 419.535 C 89.349 419.016 92.203 418.007 92.681 415.641 C 93.025 413.938 90.41 413.208 90.065 414.92"/>
  <path id="path28" style="fill: rgb(33, 29, 29); fill-opacity: 1; fill-rule: nonzero; stroke: none;" d="M 69.61 316.831 C 72.964 318.117 76.606 318.808 80.168 319.181 C 83.659 319.55 87.953 319.719 91.01 317.681 C 92.455 316.717 91.099 314.367 89.64 315.337 C 86.926 317.15 82.971 316.785 79.899 316.438 C 76.671 316.08 73.37 315.381 70.331 314.215 C 68.7 313.59 67.993 316.209 69.61 316.831"/>
  <path id="path30" style="fill: rgb(33, 29, 29); fill-opacity: 1; fill-rule: nonzero; stroke: none;" d="M 94.829 305.219 C 98.96 308.14 105.022 308.407 109.892 308.242 C 112.426 308.159 115.018 307.9 117.473 307.238 C 119.121 306.792 120.943 306.152 121.95 304.686 C 122.94 303.242 120.589 301.884 119.607 303.316 C 119.731 303.137 119.281 303.601 119.306 303.582 C 119.02 303.786 118.687 303.954 118.365 304.093 C 117.634 304.408 116.846 304.612 116.072 304.792 C 113.852 305.308 111.565 305.503 109.29 305.546 C 105.036 305.633 99.807 305.429 96.198 302.877 C 94.771 301.865 93.414 304.216 94.829 305.219"/>
  <path id="path32" style="fill: rgb(33, 29, 29); fill-opacity: 1; fill-rule: nonzero; stroke: none;" d="M 93.568 303.394 C 92.77 323.428 91.49 343.437 90.77 363.475 C 90.402 373.674 90.17 383.88 90.226 394.089 C 90.254 399.148 90.353 404.211 90.551 409.268 C 90.629 411.278 90.605 413.346 90.843 415.348 C 90.945 416.207 91.267 416.962 91.857 417.608 C 94.569 420.574 100.055 420.831 103.757 421.029 C 108.771 421.294 114.082 421.054 118.951 419.73 C 120.507 419.309 122.301 418.743 123.459 417.556 C 123.893 417.111 124.186 416.594 124.319 415.988 C 124.528 415.032 124.394 413.944 124.406 412.972 C 124.422 411.482 124.436 409.988 124.447 408.497 C 124.52 397.905 124.441 387.313 124.32 376.723 C 124.051 353 123.549 329.27 124.055 305.549 C 124.093 303.801 121.379 303.801 121.343 305.549 C 120.911 325.781 121.217 346.023 121.478 366.258 C 121.609 376.257 121.731 386.255 121.758 396.253 C 121.77 401.295 121.759 406.336 121.71 411.377 C 121.698 412.546 121.655 413.715 121.669 414.884 C 121.666 415.097 121.663 415.307 121.66 415.521 C 121.695 415.338 121.696 415.326 121.662 415.48 C 121.565 415.799 121.807 415.276 121.609 415.567 C 121.523 415.694 120.882 416.136 120.406 416.363 C 116.643 418.159 111.798 418.313 107.713 418.385 C 103.661 418.452 98.373 418.564 94.739 416.442 C 94.274 416.17 93.853 415.861 93.638 415.471 C 93.495 415.215 93.546 415.143 93.511 414.614 C 93.432 413.43 93.389 412.243 93.338 411.058 C 93.126 406.224 93.008 401.384 92.958 396.544 C 92.859 386.988 93.029 377.432 93.333 367.882 C 94.016 346.373 95.424 324.896 96.281 303.394 C 96.351 301.65 93.637 301.652 93.568 303.394"/>
  <path id="path34" style="fill: rgb(33, 29, 29); fill-opacity: 1; fill-rule: nonzero; stroke: none;" d="M 198.588 295.384 C 211.504 296.222 224.725 296.293 237.513 294.079 C 239.229 293.782 238.503 291.165 236.792 291.462 C 224.258 293.633 211.244 293.491 198.588 292.671 C 196.845 292.557 196.851 295.27 198.588 295.384"/>
  <path id="path36" style="fill: rgb(33, 29, 29); fill-opacity: 1; fill-rule: nonzero; stroke: none;" d="M 196.313 294.799 C 196.573 303.888 196.609 312.984 196.684 322.076 C 196.789 335.152 196.857 348.231 196.934 361.31 C 197.005 373.396 197.074 385.479 197.209 397.565 C 197.278 403.818 196.977 410.269 197.651 416.501 C 197.81 417.961 198.861 418.641 200.098 419.393 C 202.856 421.072 206.138 421.78 209.305 422.179 C 216.396 423.069 224.134 422.427 230.923 420.134 C 232.259 419.686 233.57 419.145 234.81 418.477 C 236.346 417.649 234.98 415.305 233.44 416.136 C 227.647 419.262 220.194 419.95 213.727 419.792 C 210.347 419.708 206.889 419.322 203.704 418.127 C 203.076 417.893 202.467 417.618 201.882 417.29 C 201.375 417.009 200.676 416.223 200.16 416.09 C 200.298 416.127 200.368 416.64 200.368 416.526 C 200.231 410.538 200.002 404.551 199.934 398.554 C 199.798 386.966 199.73 375.374 199.662 363.784 C 199.585 351.027 199.517 338.272 199.421 325.515 C 199.349 316.027 199.297 306.532 199.084 297.045 C 199.065 296.296 199.046 295.547 199.024 294.799 C 198.975 293.058 196.263 293.049 196.313 294.799"/>
  <path id="path38" style="fill: rgb(33, 29, 29); fill-opacity: 1; fill-rule: nonzero; stroke: none;" d="M 237.346 292.709 C 237.933 312.106 238.101 331.519 237.93 350.925 C 237.782 367.916 237.556 384.984 236.099 401.926 C 235.7 406.552 235.568 411.834 233.799 416.201 C 233.146 417.818 235.769 418.523 236.415 416.925 C 237.942 413.152 238.159 408.674 238.558 404.675 C 239.279 397.46 239.638 390.204 239.925 382.959 C 240.695 363.651 240.803 344.313 240.652 324.993 C 240.568 314.231 240.386 303.468 240.061 292.709 C 240.009 290.967 237.293 290.961 237.346 292.709"/>
  <path id="path40" style="fill: rgb(33, 29, 29); fill-opacity: 1; fill-rule: nonzero; stroke: none;" d="M 206.822 272.257 C 211.046 275.442 215.522 278.272 219.968 281.133 C 225.881 284.936 231.733 288.83 237.429 292.956 C 238.846 293.983 240.2 291.629 238.796 290.615 C 233.103 286.486 227.251 282.595 221.336 278.788 C 216.891 275.931 212.416 273.101 208.192 269.916 C 206.797 268.864 205.445 271.218 206.822 272.257"/>
  <path id="path42" style="fill: rgb(33, 29, 29); fill-opacity: 1; fill-rule: nonzero; stroke: none;" d="M 183.218 270.213 C 188.51 278.077 193.118 286.303 196.541 295.158 C 197.166 296.769 199.789 296.067 199.158 294.437 C 195.644 285.357 190.99 276.912 185.559 268.843 C 184.591 267.401 182.238 268.756 183.218 270.213"/>
  <path id="path44" style="fill: rgb(33, 29, 29); fill-opacity: 1; fill-rule: nonzero; stroke: none;" d="M 164.636 296.277 C 170.36 297.431 176.407 297.335 182.201 296.878 C 187.062 296.491 193.09 296.101 197.293 293.33 C 198.747 292.371 197.389 290.021 195.926 290.986 C 194.253 292.087 192.233 292.594 190.3 293.021 C 187.499 293.642 184.638 293.983 181.777 294.197 C 176.373 294.598 170.695 294.737 165.356 293.661 C 163.652 293.318 162.922 295.931 164.636 296.277"/>
  <path id="path46" style="fill: rgb(33, 29, 29); fill-opacity: 1; fill-rule: nonzero; stroke: none;" d="M 163.266 296.092 C 162.355 321.275 163.894 346.526 164.521 371.701 C 164.831 384.195 164.859 396.658 164.346 409.15 C 164.226 412.079 163.13 416 165.643 418.193 C 168.182 420.41 172.086 420.902 175.301 421.221 C 180.141 421.703 185.092 421.468 189.889 420.695 C 192.846 420.219 197.125 419.606 199.022 416.965 C 200.039 415.542 197.689 414.188 196.677 415.595 C 196.377 416.015 195.036 416.618 194.204 416.9 C 192.623 417.438 190.971 417.782 189.326 418.054 C 185.272 418.719 181.094 418.895 176.995 418.644 C 174.031 418.462 170.052 418.23 167.602 416.306 C 167.263 416.041 167.01 415.747 166.802 415.372 C 166.685 415.165 166.845 415.855 166.814 415.381 C 166.794 415.079 166.829 414.76 166.84 414.46 C 166.917 412.171 167.032 409.886 167.121 407.6 C 168.074 383.37 166.801 359.139 166.158 334.917 C 165.815 321.984 165.511 309.026 165.978 296.092 C 166.041 294.345 163.329 294.348 163.266 296.092"/>
  <path id="path48" style="fill: rgb(33, 29, 29); fill-opacity: 1; fill-rule: nonzero; stroke: none;" d="M 165.678 269.111 C 164.728 277.214 163.896 285.338 163.266 293.473 C 163.13 295.213 165.844 295.204 165.978 293.473 C 166.608 285.338 167.44 277.214 168.39 269.111 C 168.592 267.383 165.878 267.395 165.678 269.111"/>
  <path id="path50" style="fill: rgb(33, 29, 29); fill-opacity: 1; fill-rule: nonzero; stroke: none;" d="M 140.705 309.622 C 143.818 311.926 148.425 312.263 152.152 312.316 C 156.25 312.377 160.729 311.975 164.448 310.124 C 166.011 309.344 164.639 307.003 163.079 307.779 C 159.807 309.412 155.742 309.653 152.152 309.603 C 148.861 309.557 144.824 309.313 142.074 307.281 C 140.669 306.242 139.315 308.595 140.705 309.622"/>
  <path id="path52" style="fill: rgb(33, 29, 29); fill-opacity: 1; fill-rule: nonzero; stroke: none;" d="M 138.808 308.731 C 139.418 336.411 139.773 364.099 141.025 391.76 C 141.391 399.82 141.832 407.879 142.358 415.929 C 142.471 417.664 145.185 417.676 145.071 415.929 C 143.251 388.07 142.561 360.163 142.003 332.255 C 141.846 324.415 141.693 316.571 141.52 308.731 C 141.482 306.987 138.769 306.981 138.808 308.731"/>
  <path id="path54" style="fill: rgb(33, 29, 29); fill-opacity: 1; fill-rule: nonzero; stroke: none;" d="M 124.03 329.298 C 126.634 329.818 129.329 329.969 131.98 329.994 C 134.603 330.015 137.339 329.948 139.894 329.298 C 141.585 328.868 140.869 326.249 139.174 326.681 C 136.848 327.272 134.367 327.303 131.98 327.281 C 129.567 327.26 127.109 327.151 124.751 326.681 C 123.046 326.341 122.316 328.954 124.03 329.298"/>
  <path id="path56" style="fill: rgb(33, 29, 29); fill-opacity: 1; fill-rule: nonzero; stroke: none;" d="M 141.155 308.71 C 143.592 303.938 147.82 300.326 150.256 295.557 C 151.048 294.008 148.708 292.631 147.913 294.19 C 145.477 298.959 141.249 302.571 138.813 307.34 C 138.021 308.892 140.36 310.265 141.155 308.71"/>
  <path id="path58" style="fill: rgb(33, 29, 29); fill-opacity: 1; fill-rule: nonzero; stroke: none;" d="M 133.818 311.58 C 129.773 316.114 126.006 320.895 122.481 325.84 C 122.056 326.437 122.376 327.349 122.968 327.696 C 123.649 328.094 124.397 327.807 124.823 327.21 C 128.216 322.45 131.844 317.858 135.736 313.5 C 136.896 312.201 134.983 310.274 133.818 311.58"/>
  <path id="path60" style="fill: rgb(33, 29, 29); fill-opacity: 1; fill-rule: nonzero; stroke: none;" d="M 96.052 303.159 C 103.612 295.987 112.232 289.86 120.801 283.968 C 122.23 282.985 120.876 280.632 119.432 281.625 C 110.677 287.646 101.858 293.914 94.134 301.241 C 92.865 302.444 94.785 304.359 96.052 303.159"/>
  <path id="path62" style="fill: rgb(33, 29, 29); fill-opacity: 1; fill-rule: nonzero; stroke: none;" d="M 72.086 272.21 C 81.551 271.932 91.1 272.368 100.533 273.151 C 100.082 272.696 99.629 272.245 99.177 271.793 C 99.168 279.023 98.155 286.205 98.146 293.435 C 98.144 295.183 100.857 295.183 100.858 293.435 C 100.868 286.205 101.881 279.023 101.89 271.793 C 101.891 271.017 101.265 270.497 100.533 270.435 C 91.1 269.653 81.551 269.22 72.086 269.496 C 70.344 269.547 70.337 272.26 72.086 272.21"/>
  <path id="path64" style="fill: rgb(33, 29, 29); fill-opacity: 1; fill-rule: nonzero; stroke: none;" d="M 187.947 272.888 C 194.37 272.609 200.797 272.328 207.224 272.05 C 208.961 271.972 208.971 269.26 207.224 269.337 C 200.797 269.616 194.37 269.897 187.947 270.175 C 186.205 270.253 186.196 272.965 187.947 272.888"/>
  <path id="path66" style="fill: rgb(33, 29, 29); fill-opacity: 1; fill-rule: nonzero; stroke: none;" d="M 149.918 296.03 C 154.966 296.03 160.014 296.03 165.062 296.03 C 166.808 296.03 166.81 293.318 165.062 293.318 C 160.014 293.318 154.966 293.318 149.918 293.318 C 148.173 293.318 148.17 296.03 149.918 296.03"/>
  <path id="path68" style="fill: rgb(33, 29, 29); fill-opacity: 1; fill-rule: nonzero; stroke: none;" d="M 134.141 315.167 C 136.119 314.929 138.106 315.127 140.084 314.889 C 140.456 314.842 140.767 314.769 141.043 314.49 C 141.278 314.255 141.455 313.871 141.44 313.531 C 141.41 312.87 140.839 312.084 140.084 312.176 C 138.106 312.415 136.119 312.217 134.141 312.455 C 133.768 312.501 133.458 312.575 133.182 312.854 C 132.947 313.089 132.77 313.476 132.785 313.813 C 132.814 314.474 133.387 315.26 134.141 315.167"/>
  <path id="path70" style="fill: rgb(33, 29, 29); fill-opacity: 1; fill-rule: nonzero; stroke: none;" d="M 24.705 302.725 C 30.529 303.932 36.577 304.105 42.505 303.966 C 49.231 303.808 55.981 303.152 62.573 301.782 C 64.281 301.429 63.558 298.813 61.851 299.169 C 55.493 300.487 48.993 301.099 42.505 301.253 C 36.823 301.387 31.009 301.266 25.426 300.109 C 23.722 299.756 22.994 302.37 24.705 302.725"/>
  <path id="path72" style="fill: rgb(33, 29, 29); fill-opacity: 1; fill-rule: nonzero; stroke: none;" d="M 70.128 316.336 C 81.353 309.183 91.403 300.339 102.629 293.182 C 104.097 292.248 102.738 289.901 101.26 290.841 C 90.034 297.994 79.984 306.842 68.759 313.995 C 67.291 314.932 68.65 317.279 70.128 316.336"/>
  <path id="path74" style="fill: rgb(33, 29, 29); fill-opacity: 1; fill-rule: nonzero; stroke: none;" d="M 121.446 284.151 C 126.159 284.173 130.793 285.345 135.505 285.366 C 137.252 285.376 137.253 282.661 135.505 282.654 C 130.793 282.633 126.159 281.461 121.446 281.439 C 119.701 281.432 119.698 284.145 121.446 284.151"/>
  <path id="path76" style="fill: rgb(33, 29, 29); fill-opacity: 1; fill-rule: nonzero; stroke: none;" d="M 133.987 284.124 C 133.988 293.608 133.341 303.075 133.703 312.56 C 133.77 314.301 136.482 314.31 136.415 312.56 C 136.053 303.075 136.702 293.608 136.699 284.124 C 136.699 282.379 133.985 282.376 133.987 284.124"/>
  <path id="path78" style="fill: rgb(33, 29, 29); fill-opacity: 1; fill-rule: nonzero; stroke: none;" d="M 123.27 304.751 C 127.955 298.569 132.812 292.34 136.676 285.602 C 137.547 284.083 135.204 282.716 134.335 284.232 C 130.469 290.973 125.613 297.199 120.927 303.381 C 120.481 303.969 120.838 304.894 121.414 305.237 C 122.105 305.652 122.829 305.33 123.27 304.751"/>
  <path id="path80" style="fill: rgb(33, 29, 29); fill-opacity: 1; fill-rule: nonzero; stroke: none;" d="M 168.021 270.47 C 173.389 270.033 178.762 269.922 184.143 270.142 C 185.89 270.21 185.887 267.497 184.143 267.426 C 178.762 267.209 173.389 267.321 168.021 267.757 C 166.293 267.897 166.278 270.611 168.021 270.47"/>
  <path id="path82" style="fill: rgb(33, 29, 29); fill-opacity: 1; fill-rule: nonzero; stroke: none;" d="M 103.25 292.881 C 103.327 292.869 103.405 292.857 103.483 292.848 C 103.363 292.863 103.242 292.881 103.123 292.897 C 103.875 292.801 104.633 292.805 105.386 292.9 C 105.266 292.885 105.146 292.869 105.025 292.854 C 105.622 292.935 106.204 293.074 106.773 293.272 C 107.443 293.506 108.287 293.005 108.441 292.325 C 108.614 291.567 108.212 290.909 107.494 290.658 C 105.891 290.098 104.198 290.008 102.53 290.266 C 102.215 290.315 101.871 290.627 101.718 290.89 C 101.549 291.18 101.476 291.607 101.582 291.935 C 101.688 292.263 101.891 292.579 102.205 292.746 C 102.548 292.925 102.869 292.94 103.25 292.881"/>
  <path id="path84" style="fill: rgb(33, 29, 29); fill-opacity: 1; fill-rule: nonzero; stroke: none;" d="M 91.882 317.162 C 92.841 316.426 93.799 315.693 94.758 314.957 C 94.916 314.871 95.043 314.756 95.139 314.607 C 95.258 314.478 95.34 314.323 95.382 314.147 C 95.471 313.822 95.431 313.389 95.245 313.101 C 95.058 312.811 94.78 312.557 94.434 312.476 C 94.104 312.402 93.672 312.399 93.389 312.616 C 92.431 313.348 91.472 314.084 90.513 314.82 C 90.355 314.905 90.228 315.022 90.132 315.17 C 90.013 315.301 89.932 315.455 89.89 315.632 C 89.801 315.956 89.841 316.386 90.027 316.677 C 90.214 316.964 90.491 317.221 90.837 317.298 C 91.167 317.376 91.601 317.378 91.882 317.162"/>
  <path id="path86" style="fill: rgb(33, 29, 29); fill-opacity: 1; fill-rule: nonzero; stroke: none;" d="M 123.258 416.724 C 129.193 419.458 135.949 419.986 142.213 418.069 C 143.877 417.559 143.168 414.939 141.492 415.453 C 135.958 417.147 129.897 416.811 124.627 414.38 C 123.957 414.073 123.173 414.197 122.772 414.869 C 122.423 415.45 122.594 416.417 123.258 416.724"/>
  <path id="path88" style="fill: rgb(33, 29, 29); fill-opacity: 1; fill-rule: nonzero; stroke: none;" d="M 142.524 416.652 C 143.22 418.177 144.914 419.031 146.395 419.599 C 148.463 420.398 150.718 420.735 152.92 420.889 C 157.002 421.174 162.171 420.908 165.398 418.054 C 166.709 416.894 164.784 414.983 163.48 416.136 C 162.314 417.165 160.613 417.611 159.097 417.899 C 157.15 418.267 155.134 418.313 153.162 418.193 C 151.3 418.078 149.435 417.785 147.666 417.184 C 146.988 416.952 146.329 416.665 145.733 416.266 C 145.308 415.978 145.076 415.743 144.866 415.286 C 144.142 413.699 141.803 415.076 142.524 416.652"/>
  <path id="path90" style="fill: rgb(33, 29, 29); fill-opacity: 1; fill-rule: nonzero; stroke: none;" d="M 31.535 302.308 C 35.602 299.475 39.669 296.643 43.735 293.81 C 44.447 293.314 43.77 292.139 43.051 292.64 C 38.984 295.473 34.917 298.306 30.851 301.139 C 30.139 301.634 30.816 302.809 31.535 302.308"/>
  <path id="path92" style="fill: rgb(33, 29, 29); fill-opacity: 1; fill-rule: nonzero; stroke: none;" d="M 68.799 278.745 C 72.238 276.432 75.676 274.118 79.114 271.806 C 79.834 271.32 79.155 270.145 78.429 270.633 C 74.991 272.946 71.553 275.26 68.114 277.573 C 67.394 278.059 68.072 279.234 68.799 278.745"/>
  <path id="path94" style="fill: rgb(33, 29, 29); fill-opacity: 1; fill-rule: nonzero; stroke: none;" d="M 78.818 275.281 C 79.654 274.653 80.49 274.026 81.326 273.398 C 81.473 273.29 81.587 273.179 81.638 272.993 C 81.682 272.831 81.662 272.615 81.57 272.47 C 81.389 272.192 80.945 272 80.642 272.229 C 79.806 272.854 78.97 273.481 78.134 274.109 C 77.987 274.217 77.873 274.329 77.822 274.515 C 77.778 274.676 77.798 274.892 77.891 275.037 C 78.071 275.316 78.515 275.507 78.818 275.281"/>
  <path id="path96" style="fill: rgb(33, 29, 29); fill-opacity: 1; fill-rule: nonzero; stroke: none;" d="M 45.415 302.132 C 53.411 295.841 61.507 289.606 70.065 284.092 C 70.796 283.623 70.118 282.447 69.381 282.923 C 60.726 288.499 52.542 294.812 44.456 301.173 C 43.77 301.711 44.736 302.667 45.415 302.132"/>
  <path id="path98" style="fill: rgb(33, 29, 29); fill-opacity: 1; fill-rule: nonzero; stroke: none;" d="M 54.098 300.1 C 58.045 297.143 61.992 294.187 65.939 291.23 C 66.63 290.714 65.954 289.536 65.255 290.058 C 61.307 293.015 57.36 295.974 53.413 298.93 C 52.723 299.447 53.398 300.626 54.098 300.1"/>
  <path id="path100" style="fill: rgb(33, 29, 29); fill-opacity: 1; fill-rule: nonzero; stroke: none;" d="M 40.074 302.428 C 43.932 299.389 47.79 296.348 51.649 293.308 C 52.334 292.77 51.368 291.814 50.689 292.35 C 46.831 295.39 42.973 298.43 39.115 301.47 C 38.43 302.011 39.395 302.963 40.074 302.428"/>
  <path id="path102" style="fill: rgb(33, 29, 29); fill-opacity: 1; fill-rule: nonzero; stroke: none;" d="M 78.317 316.85 C 81.57 313.887 84.986 311.107 88.553 308.53 C 89.254 308.023 88.578 306.848 87.869 307.362 C 84.207 310.006 80.697 312.851 77.358 315.891 C 76.71 316.482 77.672 317.438 78.317 316.85"/>
  <path id="path104" style="fill: rgb(33, 29, 29); fill-opacity: 1; fill-rule: nonzero; stroke: none;" d="M 85.162 316.794 C 86.539 315.56 87.916 314.329 89.293 313.095 C 89.558 312.858 89.553 312.375 89.293 312.137 C 89.01 311.877 88.616 311.883 88.334 312.137 C 86.957 313.367 85.58 314.601 84.202 315.835 C 83.937 316.07 83.943 316.556 84.202 316.794 C 84.485 317.054 84.879 317.047 85.162 316.794"/>
  <path id="path106" style="fill: rgb(33, 29, 29); fill-opacity: 1; fill-rule: nonzero; stroke: none;" d="M 123.699 283.34 C 119.685 286.789 115.671 290.237 111.657 293.686 C 110.993 294.255 111.957 295.21 112.616 294.645 C 116.63 291.196 120.644 287.748 124.657 284.299 C 125.321 283.73 124.358 282.775 123.699 283.34"/>
  <path id="path108" style="fill: rgb(33, 29, 29); fill-opacity: 1; fill-rule: nonzero; stroke: none;" d="M 120.908 291.973 C 123.887 288.976 127.04 286.158 130.348 283.529 C 130.637 283.301 130.584 282.809 130.348 282.571 C 130.069 282.283 129.675 282.342 129.389 282.571 C 126.081 285.2 122.928 288.017 119.949 291.014 C 119.332 291.632 120.29 292.594 120.908 291.973"/>
  <path id="path110" style="fill: rgb(33, 29, 29); fill-opacity: 1; fill-rule: nonzero; stroke: none;" d="M 155.616 294.422 C 153.414 298.108 151.507 301.956 149.887 305.929 C 149.557 306.74 150.868 307.089 151.194 306.292 C 152.77 302.425 154.647 298.69 156.787 295.105 C 157.235 294.353 156.063 293.671 155.616 294.422"/>
  <path id="path112" style="fill: rgb(33, 29, 29); fill-opacity: 1; fill-rule: nonzero; stroke: none;" d="M 158.298 294.839 C 157.223 297.273 156.15 299.711 155.075 302.148 C 154.927 302.482 154.977 302.874 155.318 303.075 C 155.606 303.242 156.098 303.168 156.246 302.831 C 157.32 300.393 158.395 297.959 159.469 295.523 C 159.617 295.189 159.567 294.796 159.226 294.595 C 158.938 294.428 158.447 294.502 158.298 294.839"/>
  <path id="path114" style="fill: rgb(33, 29, 29); fill-opacity: 1; fill-rule: nonzero; stroke: none;" d="M 132.212 321.813 C 130.84 323.947 129.468 326.081 128.095 328.218 C 127.622 328.954 128.796 329.635 129.267 328.902 C 130.639 326.768 132.01 324.634 133.383 322.5 C 133.857 321.761 132.682 321.08 132.212 321.813"/>
  <path id="path116" style="fill: rgb(33, 29, 29); fill-opacity: 1; fill-rule: nonzero; stroke: none;" d="M 134.042 322.729 C 133.279 323.947 132.516 325.169 131.755 326.388 C 131.566 326.691 131.68 327.148 131.998 327.315 C 132.331 327.492 132.725 327.392 132.926 327.071 C 133.688 325.852 134.45 324.634 135.212 323.412 C 135.401 323.112 135.286 322.655 134.969 322.484 C 134.636 322.308 134.242 322.408 134.042 322.729"/>
  <path id="path118" style="fill: rgb(33, 29, 29); fill-opacity: 1; fill-rule: nonzero; stroke: none;" d="M 170.93 279.63 C 171.348 284.662 171.768 289.696 172.188 294.732 C 172.259 295.594 173.616 295.603 173.543 294.732 C 173.125 289.696 172.705 284.662 172.286 279.63 C 172.214 278.764 170.857 278.758 170.93 279.63"/>
  <path id="path120" style="fill: rgb(33, 29, 29); fill-opacity: 1; fill-rule: nonzero; stroke: none;" d="M 175.099 284.655 C 175.24 288.255 175.695 291.839 176.458 295.365 C 176.643 296.216 177.952 295.857 177.766 295.003 C 177.028 291.595 176.591 288.138 176.455 284.655 C 176.422 283.783 175.065 283.78 175.099 284.655"/>
  <path id="path122" style="fill: rgb(33, 29, 29); fill-opacity: 1; fill-rule: nonzero; stroke: none;" d="M 181.74 273.049 C 184.456 279.463 187.171 285.876 189.886 292.294 C 190.226 293.095 191.395 292.405 191.058 291.607 C 188.343 285.194 185.628 278.779 182.912 272.362 C 182.572 271.561 181.406 272.254 181.74 273.049"/>
  <path id="path124" style="fill: rgb(33, 29, 29); fill-opacity: 1; fill-rule: nonzero; stroke: none;" d="M 184.26 287.13 C 184.867 288.806 185.473 290.485 186.076 292.164 C 186.202 292.508 186.54 292.74 186.911 292.638 C 187.245 292.548 187.511 292.149 187.384 291.802 C 186.781 290.126 186.175 288.447 185.568 286.768 C 185.444 286.424 185.108 286.192 184.734 286.294 C 184.403 286.384 184.137 286.783 184.26 287.13"/>
  <path id="path126" style="fill: rgb(33, 29, 29); fill-opacity: 1; fill-rule: nonzero; stroke: none;" d="M 208.73 280.517 C 213.458 284.479 218.187 288.44 222.912 292.402 C 223.577 292.959 224.542 292.006 223.871 291.444 C 219.145 287.482 214.417 283.52 209.692 279.559 C 209.027 279.002 208.061 279.954 208.73 280.517"/>
  <path id="path128" style="fill: rgb(33, 29, 29); fill-opacity: 1; fill-rule: nonzero; stroke: none;" d="M 211.407 287.451 C 213.235 289.281 215.06 291.116 216.888 292.947 C 217.503 293.569 218.465 292.61 217.847 291.988 C 216.019 290.157 214.194 288.323 212.367 286.492 C 211.751 285.874 210.792 286.832 211.407 287.451"/>
  <path id="path130" style="fill: rgb(33, 29, 29); fill-opacity: 1; fill-rule: nonzero; stroke: none;" d="M 191.334 273.228 C 193.164 275.517 194.992 277.802 196.82 280.091 C 197.049 280.378 197.54 280.329 197.779 280.091 C 198.06 279.806 198.008 279.419 197.779 279.132 C 195.951 276.843 194.123 274.555 192.292 272.269 C 192.064 271.981 191.574 272.031 191.334 272.269 C 191.052 272.551 191.105 272.94 191.334 273.228"/>
  <path id="path132" style="fill: rgb(33, 29, 29); fill-opacity: 1; fill-rule: nonzero; stroke: none;" d="M 196.241 274.935 C 196.699 275.696 197.154 276.46 197.612 277.221 C 197.794 277.527 198.23 277.666 198.539 277.465 C 198.846 277.267 198.979 276.861 198.784 276.537 C 198.326 275.773 197.868 275.013 197.411 274.249 C 197.227 273.946 196.795 273.806 196.482 274.007 C 196.179 274.205 196.047 274.611 196.241 274.935"/>
  <path id="path134" style="fill: rgb(33, 29, 29); fill-opacity: 1; fill-rule: nonzero; stroke: none;" d="M 204.016 289.112 C 205.083 290.637 206.15 292.161 207.217 293.686 C 207.428 293.986 207.811 294.125 208.145 293.93 C 208.442 293.757 208.6 293.302 208.39 293.002 C 207.322 291.478 206.252 289.953 205.185 288.428 C 204.978 288.128 204.595 287.989 204.258 288.184 C 203.964 288.357 203.803 288.812 204.016 289.112"/>
  <path id="path136" style="fill: rgb(33, 29, 29); fill-opacity: 1; fill-rule: nonzero; stroke: none;" d="M 198.288 332.609 C 211.723 333.816 225.319 333.194 238.576 330.708 C 240.293 330.386 239.567 327.773 237.856 328.091 C 224.839 330.532 211.476 331.079 198.288 329.897 C 196.551 329.74 196.56 332.455 198.288 332.609"/>
  <path id="path138" style="fill: rgb(33, 29, 29); fill-opacity: 1; fill-rule: nonzero; stroke: none;" d="M 200.002 374.8 C 207.125 376.702 214.677 376.887 221.979 376.164 C 227.83 375.585 233.953 374.584 239.3 372.023 C 240.875 371.268 239.499 368.93 237.93 369.682 C 232.899 372.087 226.967 372.994 221.465 373.501 C 214.56 374.138 207.456 373.98 200.722 372.187 C 199.034 371.735 198.314 374.352 200.002 374.8"/>
  <path id="path140" style="fill: rgb(33, 29, 29); fill-opacity: 1; fill-rule: nonzero; stroke: none;" d="M 164.636 318.346 C 175.081 321.245 186.744 319.905 197.188 317.672 C 198.892 317.307 198.171 314.691 196.464 315.056 C 186.502 317.187 175.323 318.495 165.356 315.73 C 163.672 315.263 162.953 317.879 164.636 318.346"/>
  <path id="path142" style="fill: rgb(33, 29, 29); fill-opacity: 1; fill-rule: nonzero; stroke: none;" d="M 165.615 396.813 C 170.705 400.228 177.698 400.565 183.617 400.153 C 188.801 399.795 195.246 398.953 199.328 395.4 C 200.646 394.249 198.721 392.338 197.408 393.483 C 195.842 394.846 193.687 395.542 191.72 396.09 C 188.946 396.866 186.079 397.292 183.206 397.469 C 177.856 397.794 171.586 397.558 166.985 394.472 C 165.531 393.495 164.171 395.845 165.615 396.813"/>
  <path id="path144" style="fill: rgb(33, 29, 29); fill-opacity: 1; fill-rule: nonzero; stroke: none;" d="M 123.258 344.742 C 128.811 346.536 134.829 346.628 140.441 345.033 C 142.117 344.557 141.404 341.941 139.719 342.42 C 134.547 343.889 129.095 343.777 123.979 342.129 C 122.313 341.591 121.6 344.207 123.258 344.742"/>
  <path id="path146" style="fill: rgb(33, 29, 29); fill-opacity: 1; fill-rule: nonzero; stroke: none;" d="M 123.293 402.949 C 126.617 404.217 130.165 404.891 133.726 404.932 C 135.511 404.95 137.294 404.796 139.054 404.505 C 140.554 404.254 142.034 403.824 143.108 402.69 C 144.309 401.421 142.394 399.498 141.19 400.769 C 140.316 401.694 138.875 401.827 137.676 401.987 C 136.15 402.195 134.599 402.257 133.061 402.204 C 129.955 402.098 126.915 401.44 124.014 400.333 C 122.382 399.711 121.676 402.33 123.293 402.949"/>
  <path id="path148" style="fill: rgb(33, 29, 29); fill-opacity: 1; fill-rule: nonzero; stroke: none;" d="M 124.498 395.83 C 129.649 397.995 135.656 398.014 140.821 395.882 C 141.497 395.601 141.979 394.979 141.768 394.212 C 141.592 393.572 140.78 392.984 140.099 393.266 C 135.307 395.242 129.998 395.223 125.218 393.213 C 124.543 392.929 123.727 393.52 123.55 394.163 C 123.335 394.945 123.819 395.545 124.498 395.83"/>
  <path id="path150" style="fill: rgb(33, 29, 29); fill-opacity: 1; fill-rule: nonzero; stroke: none;" d="M 123.662 352.542 C 129.145 353.974 134.893 354.024 140.404 352.709 C 142.101 352.301 141.382 349.684 139.683 350.093 C 134.644 351.295 129.394 351.234 124.383 349.925 C 122.693 349.483 121.972 352.1 123.662 352.542"/>
  <path id="path152" style="fill: rgb(33, 29, 29); fill-opacity: 1; fill-rule: nonzero; stroke: none;" d="M 93.553 339.145 C 103.283 340.642 113.102 340.654 122.835 339.182 C 124.556 338.922 123.825 336.306 122.114 336.565 C 112.903 337.957 103.483 337.945 94.274 336.528 C 92.566 336.268 91.83 338.882 93.553 339.145"/>
  <path id="path154" style="fill: rgb(33, 29, 29); fill-opacity: 1; fill-rule: nonzero; stroke: none;" d="M 91.979 383.413 C 101.874 385.673 112.06 385.946 122.067 384.263 C 123.785 383.975 123.056 381.36 121.346 381.647 C 111.841 383.246 102.094 382.943 92.7 380.796 C 90.999 380.41 90.274 383.023 91.979 383.413"/>
  <path id="path156" style="fill: rgb(33, 29, 29); fill-opacity: 1; fill-rule: nonzero; stroke: none;" d="M 67.69 345.222 C 69.655 348.392 73.73 349.347 77.209 349.539 C 82.207 349.814 87.247 348.494 91.708 346.301 C 93.274 345.531 91.901 343.19 90.339 343.956 C 86.479 345.856 82.153 346.96 77.836 346.848 C 75.227 346.784 71.553 346.304 70.033 343.852 C 69.115 342.37 66.767 343.731 67.69 345.222"/>
  <path id="path158" style="fill: rgb(33, 29, 29); fill-opacity: 1; fill-rule: nonzero; stroke: none;" d="M 67.529 399.807 C 70.505 402.284 74.966 402.85 78.703 402.884 C 83.129 402.924 87.895 402.021 91.342 399.071 C 92.671 397.936 90.744 396.025 89.423 397.154 C 86.557 399.606 82.347 400.202 78.703 400.169 C 75.775 400.145 71.763 399.816 69.447 397.89 C 68.114 396.779 66.185 398.688 67.529 399.807"/>
  <path id="path160" style="fill: rgb(33, 29, 29); fill-opacity: 1; fill-rule: nonzero; stroke: none;" d="M 66.155 416.937 C 67.085 416.124 68.017 415.311 68.948 414.494 C 69.198 414.275 69.345 413.86 69.345 413.535 C 69.345 413.204 69.197 412.805 68.948 412.577 C 68.689 412.339 68.35 412.165 67.988 412.181 C 67.615 412.196 67.311 412.33 67.029 412.577 C 66.098 413.393 65.167 414.206 64.237 415.019 C 63.986 415.239 63.84 415.653 63.84 415.978 C 63.84 416.312 63.988 416.709 64.237 416.937 C 64.495 417.175 64.835 417.351 65.196 417.336 C 65.569 417.321 65.873 417.184 66.155 416.937"/>
  <path id="path162" style="fill: rgb(33, 29, 29); fill-opacity: 1; fill-rule: nonzero; stroke: none;" d="M 40.079 331.085 C 45.228 330.012 50.237 334.867 50.56 339.844 C 50.762 342.961 49.612 346.057 47.017 347.909 C 44.694 349.564 41.703 350.102 39.023 349.304 C 35.937 348.386 33.952 345.661 33.419 342.525 C 32.628 337.867 35.251 332.261 40.079 331.085 C 41.774 330.671 41.056 328.054 39.358 328.469 C 29.352 330.909 27.203 347.049 36.857 351.373 C 40.333 352.929 44.462 352.626 47.727 350.677 C 51.309 348.543 53.331 344.659 53.296 340.521 C 53.237 333.464 46.568 326.966 39.358 328.469 C 37.65 328.824 38.373 331.441 40.079 331.085"/>
  <path id="path164" style="fill: rgb(33, 29, 29); fill-opacity: 1; fill-rule: nonzero; stroke: none;" d="M 24.771 353.683 C 28.41 357.064 33.585 358.471 38.39 359.123 C 43.866 359.868 49.575 359.682 54.954 358.374 C 57.532 357.75 60.107 356.834 62.332 355.366 C 63.058 354.886 62.38 353.712 61.648 354.193 C 57.675 356.816 52.629 357.747 47.958 358.072 C 42.725 358.44 37.299 358.035 32.302 356.368 C 29.92 355.573 27.583 354.444 25.73 352.725 C 25.091 352.13 24.129 353.087 24.771 353.683"/>
  <path id="path166" style="fill: rgb(33, 29, 29); fill-opacity: 1; fill-rule: nonzero; stroke: none;" d="M 27.794 399.946 C 36.68 404.001 46.819 405.488 56.355 402.98 C 58.86 402.321 61.282 401.381 63.584 400.196 C 64.361 399.798 63.676 398.625 62.899 399.024 C 52.145 404.56 39.285 403.703 28.479 398.777 C 27.691 398.415 27.001 399.584 27.794 399.946"/>
  <path id="path168" style="fill: rgb(33, 29, 29); fill-opacity: 1; fill-rule: nonzero; stroke: none;" d="M 148.642 328.741 C 150.984 326.069 155.989 326.269 157.53 329.662 C 158.372 331.521 158.634 333.665 158.808 335.675 C 158.984 337.707 158.999 339.744 159.015 341.783 C 159.108 353.609 159.201 365.432 159.294 377.258 C 159.318 380.188 159.34 383.112 159.364 386.042 C 159.374 387.498 159.345 388.964 159.424 390.417 C 159.492 391.655 159.643 392.885 159.651 394.123 C 159.667 396.448 158.938 398.447 156.86 399.634 C 155.317 400.515 153.045 401.062 151.425 400.066 C 149.588 398.938 148.388 396.402 148.116 394.33 C 147.734 391.429 147.683 388.438 147.523 385.516 C 147.202 379.643 147.012 373.764 146.903 367.885 C 146.794 362.005 146.765 356.127 146.762 350.247 C 146.761 344.427 146.633 338.582 146.794 332.764 C 146.828 331.552 146.958 330.257 147.749 329.279 C 148.294 328.608 147.34 327.643 146.79 328.32 C 145.105 330.401 145.43 333.25 145.427 335.762 C 145.424 338.962 145.414 342.166 145.41 345.366 C 145.399 351.809 145.405 358.251 145.494 364.693 C 145.584 371.077 145.755 377.459 146.079 383.836 C 146.24 387.034 146.44 390.228 146.684 393.423 C 146.874 395.898 147.708 398.233 149.404 400.094 C 150.816 401.644 152.661 402.158 154.707 401.821 C 156.635 401.505 158.593 400.478 159.753 398.876 C 161.286 396.758 161.052 394.023 160.861 391.565 C 160.622 388.497 160.715 385.399 160.691 382.327 C 160.589 369.431 160.488 356.538 160.387 343.641 C 160.351 339.139 160.632 334.205 159.076 329.897 C 158.452 328.169 157.472 326.83 155.732 326.116 C 153.935 325.379 151.808 325.37 150.013 326.116 C 149.113 326.489 148.326 327.049 147.683 327.782 C 147.11 328.435 148.066 329.397 148.642 328.741"/>
  <path id="path170" style="fill: rgb(33, 29, 29); fill-opacity: 1; fill-rule: nonzero; stroke: none;" d="M 109.379 307.509 C 110.601 306.183 111.824 304.856 113.047 303.53 C 113.288 303.27 113.325 302.825 113.047 302.571 C 112.786 302.329 112.345 302.292 112.089 302.571 C 110.866 303.897 109.642 305.224 108.419 306.551 C 108.179 306.811 108.142 307.254 108.419 307.509 C 108.681 307.748 109.121 307.788 109.379 307.509"/>
  <path id="path172" style="fill: rgb(33, 29, 29); fill-opacity: 1; fill-rule: nonzero; stroke: none;" d="M 108.698 300.712 C 107.883 301.631 107.067 302.549 106.251 303.465 C 106.016 303.731 105.971 304.167 106.251 304.423 C 106.509 304.661 106.958 304.708 107.21 304.423 C 108.026 303.508 108.842 302.589 109.658 301.671 C 109.893 301.405 109.939 300.969 109.658 300.712 C 109.4 300.474 108.951 300.428 108.698 300.712"/>
  <g transform="matrix(0.035012, 0, 0, -0.035012, -109.624382, 484.680634)" id="g246" style="">
    <path id="path248" style="fill:#211d1d;fill-opacity:1;fill-rule:nonzero;stroke:none" d="m 16156.2,4761 c 52.9,-51.28 69.2,-133.36 73.7,-207.04 7.3,-114.43 -8.9,-229.88 -30.9,-341.95 -58.5,-297.52 -162.4,-586.64 -277,-866.56 -113.2,-276.59 -241.4,-548.69 -390.5,-807.9 -52.5,-91.44 -107.4,-182.8 -171.7,-266.58 -20,-26.08 -41.1,-51.72 -65.2,-74.19 -12.7,-11.86 -12,-12.01 -24,-19.31 -41.1,-24.83 -87.9,-41.7 -134,-54.59 -222.7,-62.48 -455.6,-15.7 -680.1,9.87 -274.6,31.32 -547.4,77.66 -818.6,130.42 -269.4,52.31 -537,112.8 -804.5,173.66 -274.5,62.41 -551.3,119.65 -819.2,207.26 -122.3,40.01 -242.4,87.9 -353.6,153.18 -101.6,59.68 -201.4,130.56 -240.9,246.61 -36.1,106.25 -26.2,223.18 -16.8,332.96 11.7,136.9 34.3,272.4 67.2,405.83 26.8,108.76 53.8,249.41 156.5,313.66 54.7,34.19 121.4,41.12 184.3,45.17 57.8,3.68 115.9,5.89 173.9,7.88 243.2,8.47 486.7,7 729.9,-0.74 512.8,-16.43 1024.8,-60.12 1533.8,-123.41 243.4,-30.28 486.2,-65.5 728.1,-106.32 110.3,-18.57 220.8,-43.69 332.8,-49.81 71.8,-3.98 147.4,1.47 211,38.17 55.2,31.9 94.9,83.33 132.2,133.87 24.7,33.53 -31.4,65.8 -55.9,32.64 -37.1,-50.39 -78.4,-102.56 -139.1,-124.88 -84,-30.87 -184,-14.96 -269.7,-1.26 -243,38.83 -484.8,81.64 -728.8,114.72 -521.7,70.88 -1046.6,121.06 -1572.7,144.34 -256,11.35 -512.5,16.14 -768.7,10.98 -119.2,-2.43 -240.5,-2.5 -359.1,-15.99 -118.8,-13.48 -216.7,-62.99 -274,-171.52 -58.8,-111.41 -83.4,-245.07 -107,-367.6 -25.5,-132.4 -42.3,-267.68 -46.7,-402.44 -3.5,-102.71 5.8,-208.95 55.7,-300.76 57.3,-105.44 163.3,-174.62 265.4,-231.65 237.6,-132.85 509.7,-200.49 772.4,-263.56 277.6,-66.6 556.7,-129.23 835.9,-189.35 279,-60.05 559.3,-114.87 841.4,-158.56 131.6,-20.41 263.6,-37.07 395.9,-52.76 110.6,-13.19 220.6,-30.28 332.1,-34.7 121.4,-4.87 246.1,3.98 361.8,43.47 54.1,18.42 107.9,40.3 149.8,79.87 62.1,58.43 110.5,133.36 156.3,204.61 154.2,239.83 280.7,498.96 396.2,759.27 130.9,294.87 248.6,598.36 329.1,911.13 33.3,128.87 60.4,260.54 70.2,393.53 6.9,95.64 6.4,199.16 -29.3,289.64 -14.3,35.95 -34,69.33 -61.9,96.37 -30,28.96 -75.6,-16.65 -45.7,-45.68 v 0"/>
  </g>
  <g transform="matrix(0.034448, 0, 0, -0.034448, -109.624382, 484.680634)" id="g250" style="">
    <path id="path252" style="fill:#211d1d;fill-opacity:1;fill-rule:nonzero;stroke:none" d="m 11737.6,4077.77 c 14.7,96.83 97.6,187.74 157.4,260.01 113.3,136.82 238.3,263.98 364.2,389.12 162.9,162.05 330,319.99 497.6,477.25 89.2,83.65 178.3,167.3 267,251.48 36.1,34.37 73.9,67.39 119.1,89.56 56.8,27.93 121.8,36.25 183.9,43.14 510,56.39 1022.5,93.9 1534.8,118.32 257.9,12.35 516,20.82 774.1,25.53 125,2.25 250,3.67 375.1,4.12 32.6,0.15 65.2,0.23 97.8,0.23 26.7,0 63.3,6.06 89,-3.6 47.5,-17.97 34.3,-118.24 35.3,-158.31 12.5,-506.99 -114.7,-1003.34 -381.4,-1435.59 -22.2,-36.1 34.5,-69.12 56.7,-33.18 246.5,399.68 379.1,856.19 390.5,1325.36 1.3,57.44 1,114.88 -0.9,172.32 -1.8,49.35 1.7,108.14 -26.2,151.5 -25.6,39.91 -70.4,46.42 -114.1,47.18 -70.6,1.19 -141.3,-0.08 -211.9,-0.53 -266.4,-1.72 -532.7,-7.49 -798.9,-17.3 -543.1,-19.99 -1085.7,-56.84 -1626.6,-110.46 -123.1,-12.2 -260.3,-12.06 -376.8,-57.29 -99,-38.41 -169.3,-119.59 -245,-190.29 -187.1,-175.01 -374.6,-349.72 -558.4,-528.18 -161,-156.21 -321.7,-314.22 -467.2,-485.19 -49.3,-58.04 -97.7,-117.8 -138.6,-182.2 -26,-40.97 -52.5,-86.87 -59.8,-135.55 -6.2,-41.34 57,-59.16 63.3,-17.45 v 0"/>
  </g>
  <g transform="matrix(0.034805, 0, 0, -0.034805, -109.624382, 484.680634)" id="g254" style="">
    <path id="path256" style="fill:#211d1d;fill-opacity:1;fill-rule:nonzero;stroke:none" d="m 15368.1,2313.86 c 229.8,318.35 366.8,688.5 491.6,1057.62 102.9,304.4 216.2,605.55 314.4,911.52 49.6,154.54 98.7,312.41 120.3,473.77 5.6,40.92 -57,58.55 -62.6,17.27 -19,-141.64 -59.9,-280.32 -102.2,-416.48 -47.8,-153.57 -101.2,-305.3 -155.3,-456.8 -115.4,-323.38 -214.6,-653.81 -345.6,-971.26 -84.6,-204.94 -186.8,-402.84 -316.7,-582.88 -24.5,-33.94 31.8,-66.4 56.1,-32.76 v 0"/>
  </g>
  <g transform="matrix(0.03284, 0, 0, -0.03284, -109.624382, 484.680634)" id="g258" style="">
    <path id="path260" style="fill:#211d1d;fill-opacity:1;fill-rule:nonzero;stroke:none" d="m 12954.3,4492.21 c -151,-10.6 -339,-65.82 -403,-218.84 -28,-66.85 -33.5,-143.29 -39.1,-214.69 -7.3,-92.38 -10.2,-185.15 -19.7,-277.37 -5.2,-50.43 -12.4,-100.63 -23,-150.27 -10.2,-47.68 -28,-93.64 -34.2,-142.1 -9.9,-76.59 7.4,-154.52 46.3,-221.05 98,-167.64 286.5,-211.15 459.3,-264.02 427.5,-130.71 864.1,-228.04 1297.8,-335.03 387.1,-95.44 773.9,-190.1 1163.1,-276.74 157.7,-35.11 318.4,-66.85 480.3,-71.41 132.8,-3.69 292,9.27 387.9,113.28 30,32.6 -18.6,81.46 -48.7,48.78 -78.5,-85.15 -209.3,-94.66 -317.9,-93.56 -137.6,1.42 -274.2,25.22 -408.5,53.18 -341.1,71.09 -679.8,153.97 -1017.7,238.18 -402.7,100.47 -807.7,191.9 -1208.2,300.7 -101,27.41 -201.7,56.16 -301.9,86.64 -91,27.81 -191.4,50.19 -275.9,94.66 -70.1,36.92 -130,93.79 -163.7,166.14 -35.9,76.74 -27.2,148.54 -5.4,227.33 52.2,188.37 41.4,383.81 66.2,575.87 10.8,83.35 32.4,156.32 103.6,207.62 75.5,54.28 170.9,77.37 262.4,83.81 44,3.07 44.3,71.96 0,68.89 v 0"/>
  </g>
  <g transform="matrix(0.034245, 0, 0, -0.034245, -109.624382, 484.680634)" id="g262" style="">
    <path id="path264" style="fill:#211d1d;fill-opacity:1;fill-rule:nonzero;stroke:none" d="m 12081.9,4055.11 c 348.5,-24.85 696.8,-53.1 1044.8,-84.14 343.8,-30.73 687.4,-64.11 1030.8,-99.36 342.2,-35.18 684.2,-72.24 1026,-110.28 170.7,-18.99 341.2,-38.8 511.8,-57.63 37.6,-4.15 77,-6.93 112.9,7.6 31.2,12.66 54.7,36.47 75.1,62.6 46.2,59.37 87.1,123.7 125.1,188.56 152.9,260.71 249.4,553.98 281.5,854.47 4,37.06 6.9,74.2 8.9,111.41 1.2,21.25 -31.9,21.17 -33,0 -16.3,-299.66 -97.8,-595.11 -237,-860.95 -34.6,-65.99 -72.6,-130.17 -114,-192.09 -40.6,-60.72 -82.2,-139.59 -164.2,-141.92 -41.2,-1.13 -83.1,6.55 -124.1,11.15 -40.6,4.67 -81.3,9.26 -122,13.86 -85.3,9.56 -170.7,19.21 -256,28.7 -335.2,37.44 -670.4,73.97 -1005.9,108.77 -336.2,34.81 -672.7,67.95 -1009.5,98.54 -340.4,30.96 -681.2,59.28 -1022.1,84.37 -43,3.16 -86,6.33 -129.1,9.34 -21.2,1.51 -21.1,-31.49 0,-33 v 0"/>
  </g>
  <g transform="matrix(0.034567, 0, 0, -0.034567, -109.624382, 484.680634)" id="g266" style="">
    <path id="path268" style="fill:#211d1d;fill-opacity:1;fill-rule:nonzero;stroke:none" d="m 11944.8,3824.19 c 405.6,-87.02 814.3,-158.97 1223.9,-224.64 408.7,-65.6 818.4,-125 1227.6,-187.92 206.2,-31.64 412.1,-64.18 617.8,-98.73 168.5,-28.29 349.5,-59.71 515.9,-4.33 161.4,53.58 266.9,188.22 344.9,332.85 84.9,157.47 154.1,324.94 213.8,493.38 122.9,346.13 201.9,712.12 210.3,1080.04 1,44.33 0.9,88.66 -0.3,132.99 -0.6,21.05 -33.3,21.12 -32.8,0 9.7,-363.67 -55.4,-727.34 -164.8,-1073.32 -54.3,-171.95 -120.3,-340.32 -197.7,-503.23 -69.2,-145.83 -149.6,-303.52 -292.6,-389.95 -153.7,-92.99 -343.5,-75.75 -513.2,-49.18 -197.2,30.82 -393.9,64.78 -591,95.38 -402.2,62.47 -805.1,120.83 -1207.1,184.11 -401,63.21 -801.3,131.42 -1198.9,213.22 -49.1,10.08 -98.1,20.37 -147,30.9 -20.6,4.4 -29.4,-27.1 -8.8,-31.57 v 0"/>
  </g>
  <g transform="matrix(0.034741, 0, 0, -0.034741, -109.624382, 484.680634)" id="g270" style="">
    <path id="path272" style="fill:#211d1d;fill-opacity:1;fill-rule:nonzero;stroke:none" d="m 11885.6,3605.34 c 398.7,-95.94 797.8,-189.87 1197.3,-281.87 395.8,-91.11 791.7,-182.29 1188.8,-267.02 195.7,-41.73 392.6,-79.15 591.8,-99.65 173.9,-17.82 357.7,-30.96 529.5,9.73 76,18.04 149.9,48.56 212.4,96.09 64,48.71 112.7,113.53 151.1,183.63 40.4,73.73 70.5,152.74 101.8,230.63 35.8,89.55 71.5,179.1 106.4,269.02 138.9,359.39 264.2,727.7 317.3,1110.78 6.3,46.26 11.8,92.67 16.1,139.22 1.9,20.87 -30.7,20.72 -32.6,0 -35.2,-379.44 -147.2,-746.25 -279.4,-1102.01 -65,-175.01 -132.1,-350.18 -205.4,-521.86 -31.8,-74.25 -68,-148.73 -120,-211.17 -52.7,-63.49 -120.8,-110.49 -198,-139.31 -157.2,-58.66 -332.4,-52.64 -496.9,-41.06 -198.2,14.04 -394.3,47.53 -588.8,87.18 -390.2,79.6 -778.2,170.93 -1166.3,259.89 -391.2,89.62 -781.9,181.1 -1172.2,274.59 -48.1,11.51 -96.2,23.02 -144.3,34.6 -20.3,4.9 -29,-26.51 -8.6,-31.41 v 0"/>
  </g>
  <g transform="matrix(0.03367, 0, 0, -0.03367, -109.624382, 484.680634)" id="g274" style="">
    <path id="path276" style="fill:#211d1d;fill-opacity:1;fill-rule:nonzero;stroke:none" d="m 12209.7,3466.66 c 286.5,-104.27 575.8,-200.81 867.6,-289.45 291.7,-88.65 585.9,-169.4 882,-242.11 296.1,-72.71 594.2,-137.45 893.8,-194.07 148,-28.04 296.4,-55.09 445.2,-77.84 135.4,-20.69 274.5,-35.32 410.4,-10.73 125.5,22.68 236.7,84.05 326.4,174.15 86.5,86.81 152,192.31 211.3,298.81 14.7,26.43 29.1,53.09 43.4,79.75 10.2,19.08 -18.8,36.09 -29,17.01 -113.5,-211.61 -245.7,-446.82 -491.3,-520.68 -132,-39.69 -273.2,-31.65 -408.1,-13.72 -146.1,19.46 -291.4,47.04 -436.2,73.78 -294.6,54.56 -587.7,116.92 -879,187.02 -291.2,70.03 -580.6,147.87 -867.8,233.3 -287.1,85.43 -571.9,178.52 -854.1,279.12 -35.2,12.56 -70.5,25.28 -105.7,38.07 -20.3,7.36 -29.2,-25.05 -8.9,-32.41 v 0"/>
  </g>
  <g transform="matrix(0.026442, 0, 0, -0.026442, -109.624382, 484.680634)" id="g278" style="">
    <path id="path280" style="fill:#211d1d;fill-opacity:1;fill-rule:nonzero;stroke:none" d="m 16011.2,4058.61 c 83.3,-28.58 167,-55.9 251.1,-82.15 26.4,-8.29 37.7,33.08 11.5,41.27 -84.1,26.25 -167.8,53.56 -251.2,82.15 -26.1,8.97 -37.3,-32.29 -11.4,-41.27 v 0"/>
  </g>
  <g transform="matrix(0.032825, 0, 0, -0.032825, -109.624382, 484.680634)" id="g284" style="">
    <path id="path286" style="fill:#211d1d;fill-opacity:1;fill-rule:nonzero;stroke:none" d="m 14062.9,5339.63 c 81,104.21 157.8,214.23 255.4,303.98 95.1,87.48 210.4,142.49 338.9,157.65 89.5,10.61 180.9,10.46 270.8,14.62 97,4.48 193.9,9.04 290.9,13.52 192.6,8.96 385.1,17.92 577.7,26.88 96.9,4.48 193.9,9.03 290.9,13.52 40.2,1.88 85.5,6.75 118,-22.17 26.4,-23.58 38.9,-60.75 39.6,-95.49 0.8,-45.26 -14.7,-88.88 -30.5,-130.69 -16.8,-44.24 -34.1,-88.41 -51.3,-132.58 -17.2,-44.64 -34.5,-89.28 -51.7,-133.92 -15.1,-39.14 -27.5,-82.2 -51,-117.41 -23.5,-35.29 -61,-48.33 -101.2,-54.78 -44.4,-7.07 -89.8,-10.29 -134.6,-14.61 -95.9,-9.36 -192,-17.06 -288.3,-23.03 -191.1,-12.03 -382.5,-17.53 -573.9,-16.43 -192.9,1.02 -385.7,8.65 -578,22.8 -94.8,7.07 -189.4,15.63 -283.9,25.85 -34.5,3.69 -116,5.34 -108.3,59.57 4.8,33.8 33.3,64.05 55.5,87.63 11,11.71 0.3,35.05 -16.8,28.84 -5.5,-2.04 -10.8,-4.79 -16.2,-7.15 -20.3,-8.88 -2.7,-38.59 17.5,-29.71 2.6,1.1 5.2,2.59 7.8,3.62 -5.6,9.58 -11.1,19.17 -16.7,28.76 -35.4,-37.64 -90.2,-102.64 -55.2,-157.02 32.8,-50.85 114.7,-47.23 166.3,-52.58 204.5,-21.3 409.8,-35.05 615.3,-41.34 204.1,-6.2 408.4,-5.02 612.4,3.54 102.1,4.32 204,10.45 305.8,18.39 98.8,7.78 198.9,14.31 297.1,29.16 37.9,5.74 75.8,17.29 103.8,44.71 28.1,27.43 42.2,65.08 56.1,100.84 37.1,95.8 74,191.6 111.1,287.4 29.7,77.02 63.8,162.6 26.9,243.31 -14.2,30.89 -38.4,57.37 -70.4,70.03 -42.3,16.81 -91,9.59 -135.2,7.54 -412.2,-19.17 -824.3,-38.35 -1236.5,-57.53 -86,-4.01 -172.5,-4.95 -256.4,-26.4 -63.8,-16.27 -124.8,-43.07 -179.8,-79.3 -111.6,-73.64 -195.4,-180.13 -276.2,-284.73 -23.4,-30.34 -46.6,-60.75 -70.1,-90.93 -13.4,-17.29 10.8,-41.89 24.4,-24.36 v 0"/>
  </g>
  <g transform="matrix(0.034143, 0, 0, -0.034143, -109.624382, 484.680634)" id="g290" style="">
    <path id="path292" style="fill:#211d1d;fill-opacity:1;fill-rule:nonzero;stroke:none" d="m 11809.4,4117.76 c 60.3,126.94 157.1,228.41 297.7,259.91 63.5,14.29 127,11.72 191.6,8.62 80.2,-3.86 160.4,-6.27 240.8,-8.24 171.2,-4.15 342.6,-6.27 514,-11.86 164.7,-5.37 328.6,-17.23 492.8,-32.11 325.4,-29.54 650.5,-63.01 975.1,-100.94 171.2,-20.03 342.4,-41.18 513.5,-62.94 95.4,-12.09 190.7,-24.4 286.1,-36.87 82.2,-10.73 164,-24.33 246.5,-32.72 73.4,-7.48 150.9,-12.54 223.2,5.75 70.9,17.83 131.1,63.69 181.3,115.37 115.1,118.54 202,266.56 267.9,416.99 17.9,41.1 35,82.58 52,124.14 8.1,19.72 -23.9,28.33 -31.9,8.83 -35.5,-86.51 -71.2,-173.17 -116.1,-255.37 -39.4,-72.23 -87.3,-141.06 -138.4,-205.66 -47.1,-59.39 -101,-117.41 -169.5,-152.1 -66.9,-33.77 -144.3,-33.77 -217.4,-29.09 -82.1,5.22 -163.2,18.97 -244.7,30 -93.9,12.77 -188,24.56 -282,36.64 -171.8,21.99 -343.9,43.37 -515.9,63.7 -323.6,38.3 -647.7,72.23 -972.2,102.15 -164.6,15.19 -329,29.16 -494.4,35.44 -169.9,6.42 -340.1,8.68 -510.2,12.39 -81,1.81 -161.9,3.92 -242.7,7.1 -67.7,2.72 -135.6,9.74 -203.1,1.96 -128.5,-14.96 -238.3,-79.03 -314.3,-184.05 -22.6,-31.43 -41.6,-65.28 -58.2,-100.26 -9.2,-19.19 19.4,-36.04 28.5,-16.78 v 0"/>
  </g>
  <g transform="matrix(0.033211, 0, 0, -0.033211, -109.624382, 484.680634)" id="g294" style="">
    <path id="path296" style="fill:#211d1d;fill-opacity:1;fill-rule:nonzero;stroke:none" d="m 11956.1,3570.28 c 0.4,-142.69 31.5,-283.44 121.7,-397.15 94.9,-119.86 238.3,-203.28 376.2,-263.94 143.9,-63.23 295.7,-105.25 447.6,-143.78 174.7,-44.2 349.7,-87 525.6,-126.38 372.1,-83.27 747.4,-149.76 1121.2,-224.56 344,-68.74 685.5,-148.52 1034.6,-187.9 219.6,-24.78 501.9,-37.98 656.9,152.25 19.6,24 36.2,49.94 50.2,77.52 9.9,19.5 -19.5,36.74 -29.4,17.16 -54.1,-106.57 -149,-173.83 -263.5,-203.51 -113.2,-29.36 -233.1,-26.17 -348.7,-15.92 -329.6,29.05 -653.4,102.92 -976.6,169.88 -360.3,74.64 -723,137.02 -1082.8,214.38 -182,39.15 -363.3,80.94 -543.9,126.3 -148,37.13 -296.9,72.24 -441.2,122.34 -145.1,50.33 -286.8,117.06 -406.2,214.85 -56.9,46.68 -106.4,100.2 -141.6,165.22 -32.9,61.13 -51.8,129.25 -60.1,197.99 -4.3,34.88 -5.9,70.07 -5.9,105.25 -0.1,21.91 -34.2,21.91 -34.1,0 v 0"/>
  </g>
  <g transform="matrix(0.034881, 0, 0, -0.034881, -109.624382, 484.680634)" id="g298" style="">
    <path id="path300" style="fill:#211d1d;fill-opacity:1;fill-rule:nonzero;stroke:none" d="m 16068.8,5311.85 c 83.1,-39.2 139,-124.1 143.3,-216.03 1,-21.67 -0.5,-43.19 -5.5,-64.35 -5.8,-23.96 -18.1,-46.37 -10.4,-71.59 8.1,-26.33 24.5,-47.55 29.4,-75.44 5.2,-29.94 1.2,-59.53 -8.7,-88 -13.6,-39.5 49,-56.51 62.6,-17.23 20.5,59.38 16.4,124.39 -11.4,180.75 -8.6,17.45 -8.4,21.67 -2.8,40.08 3.9,12.94 6.6,26.11 8.6,39.5 3.8,26.1 4.3,52.06 1.2,78.24 -12.7,105.47 -76.2,204.2 -173.5,250.05 -37.6,17.68 -70.5,-38.23 -32.8,-55.98 v 0"/>
  </g>
</svg>