<?xml version="1.0" encoding="utf-8"?>
<svg viewBox="0 0 500 500" xmlns="http://www.w3.org/2000/svg">
  <g transform="matrix(0.027836, 0, 0, -0.027836, 26.075466, 607.50116)" id="g302" style="">
    <path id="path304" style="fill:#211d1d;fill-opacity:1;fill-rule:nonzero;stroke:none" d="m 9466.1,11647.2 c 345.78,653.5 819,1236.1 1388.1,1708.1 161.1,133.6 330,257.5 505.1,372 18,11.8 28.5,38 15.2,57.6 -441.9,649.6 -917.8,1276 -1337.6,1940.6 -108.79,172.1 -213.6,346.8 -309.01,526.6 -25.34,47.9 -98.09,5.4 -72.65,-42.5 177.66,-335.1 385.96,-653.7 598.36,-967.6 227.7,-336.6 464.1,-667.2 698.9,-998.9 117.5,-166.1 234.8,-332.4 349.2,-500.7 5.1,19.2 10.1,38.4 15.2,57.6 -627.8,-410.6 -1171.2,-944.3 -1594.19,-1563.8 -120.07,-175.8 -229.76,-358.4 -329.29,-546.5 -25.33,-47.9 47.32,-90.5 72.68,-42.5 v 0"/>
  </g>
  <path id="path306" style="fill: rgb(33, 29, 29); fill-opacity: 1; fill-rule: nonzero; stroke: none;" d="M 261.771 298.652 C 261.955 294.073 262.995 287.367 267.379 284.821 C 269.966 283.317 273.763 283.67 276.535 284.391 C 279.757 285.23 282.661 286.9 285.539 288.524 C 286.854 289.267 288.036 287.244 286.722 286.502 C 283.45 284.655 280.1 282.75 276.392 281.946 C 273.188 281.252 269.131 281.094 266.196 282.796 C 261.024 285.799 259.647 293.194 259.427 298.652 C 259.367 300.162 261.71 300.159 261.771 298.652"/>
  <path id="path308" style="fill: rgb(33, 29, 29); fill-opacity: 1; fill-rule: nonzero; stroke: none;" d="M 129.86 231.008 C 134.981 241.39 139.188 252.245 143.506 262.977 C 148.601 275.638 153.576 288.35 158.854 300.934 C 161.114 306.323 163.4 311.714 165.985 316.959 C 166.274 317.544 167.06 317.656 167.589 317.378 C 188.265 306.55 211.803 302.171 234.898 300.555 C 241.419 300.098 247.954 299.876 254.491 299.82 C 255.998 299.807 256.002 297.464 254.491 297.477 C 230.88 297.675 206.805 299.972 184.356 307.675 C 178.194 309.791 172.178 312.332 166.406 315.356 C 166.94 315.495 167.475 315.636 168.009 315.775 C 162.888 305.393 158.681 294.538 154.362 283.806 C 149.268 271.145 144.293 258.435 139.015 245.849 C 136.755 240.46 134.469 235.069 131.883 229.824 C 131.216 228.472 129.194 229.658 129.86 231.008"/>
  <path id="path310" style="fill: rgb(33, 29, 29); fill-opacity: 1; fill-rule: nonzero; stroke: none;" d="M 228.785 209.052 C 236.433 228.063 245.348 246.6 255.208 264.559 C 257.906 269.472 260.689 274.337 263.576 279.144 C 264.352 280.434 266.379 279.259 265.599 277.96 C 255.142 260.557 245.888 242.392 237.606 223.858 C 235.325 218.755 233.131 213.615 231.045 208.429 C 230.489 207.048 228.221 207.652 228.785 209.052"/>
  <path id="path312" style="fill: rgb(33, 29, 29); fill-opacity: 1; fill-rule: nonzero; stroke: none;" d="M 256.91 297.958 C 256.66 291.471 258.887 284.279 264.722 280.744 C 272.122 276.261 280.966 280.186 287.319 284.674 C 288.553 285.545 289.725 283.515 288.502 282.652 C 282.625 278.5 275.184 275.093 267.853 276.926 C 262.338 278.302 258.27 282.587 256.204 287.757 C 254.915 290.982 254.433 294.498 254.567 297.958 C 254.625 299.462 256.969 299.467 256.91 297.958"/>
  <path id="path314" style="fill: rgb(33, 29, 29); fill-opacity: 1; fill-rule: nonzero; stroke: none;" d="M 136.917 216.674 C 146.576 239.485 154.811 262.862 163.857 285.914 C 166.316 292.176 168.837 298.417 171.461 304.613 C 171.651 305.062 172.34 305.297 172.784 305.15 C 193.275 298.359 214.724 295.016 236.216 293.539 C 242.321 293.122 248.434 292.852 254.551 292.689 C 256.056 292.649 256.062 290.306 254.551 290.346 C 232.893 290.921 211.161 292.863 190.036 297.843 C 184.007 299.264 178.041 300.942 172.161 302.892 C 172.602 303.071 173.043 303.25 173.484 303.429 C 163.825 280.621 155.59 257.244 146.543 234.19 C 144.085 227.927 141.564 221.689 138.94 215.493 C 138.354 214.109 136.335 215.301 136.917 216.674"/>
  <path id="path316" style="fill: rgb(33, 29, 29); fill-opacity: 1; fill-rule: nonzero; stroke: none;" d="M 142.891 211.119 C 155.274 231.358 164.315 253.656 171.228 276.304 C 173.147 282.593 174.884 288.935 176.429 295.323 C 176.576 295.93 177.277 296.317 177.87 296.144 C 197.962 290.186 218.763 286.755 239.707 286.005 C 245.664 285.791 251.627 285.799 257.585 286.01 C 259.093 286.063 259.091 283.72 257.585 283.667 C 236.534 282.924 215.404 284.829 194.828 289.344 C 188.914 290.643 183.052 292.163 177.247 293.883 C 177.728 294.156 178.208 294.428 178.689 294.701 C 173.067 271.452 165.061 248.606 154.411 227.174 C 151.49 221.296 148.34 215.533 144.915 209.936 C 144.129 208.651 142.101 209.826 142.891 211.119"/>
  <path id="path318" style="fill: rgb(33, 29, 29); fill-opacity: 1; fill-rule: nonzero; stroke: none;" d="M 264.395 277.557 C 243.34 273.701 220.614 271.23 199.665 276.953 C 193.887 278.529 188.289 280.83 183.219 284.033 C 183.793 284.268 184.366 284.5 184.94 284.733 C 177.603 257.228 165.905 230.887 150.331 207.053 C 150.202 206.855 149.956 206.35 149.754 206.174 C 149.658 206.027 149.561 205.883 149.465 205.736 C 149.065 206.885 149.026 207.296 149.35 206.965 C 149.394 206.989 149.042 207.008 149.439 206.944 C 149.543 206.928 149.963 206.733 150.332 206.607 C 151.582 206.188 152.866 205.862 154.144 205.538 C 157.824 204.611 161.539 203.818 165.255 203.048 C 168.926 202.289 172.604 201.565 176.293 200.906 C 179.489 200.331 181.845 200.125 185.209 199.981 C 200.326 199.337 215.731 200.756 228.354 209.88 C 229.579 210.767 230.75 208.734 229.537 207.857 C 218.111 199.599 204.2 197.35 190.387 197.494 C 186.166 197.539 181.895 197.59 177.724 198.287 C 174.232 198.872 170.756 199.551 167.285 200.248 C 163.285 201.052 159.29 201.891 155.322 202.837 C 153.778 203.209 152.235 203.588 150.712 204.037 C 149.857 204.288 148.815 204.523 148.063 205.028 C 146.332 206.188 148.095 207.905 148.88 209.116 C 150.879 212.202 152.813 215.33 154.682 218.496 C 158.465 224.905 161.978 231.472 165.213 238.176 C 172.515 253.308 178.35 269.125 182.68 285.355 C 182.87 286.069 183.762 286.461 184.401 286.058 C 193.452 280.335 204.07 277.674 214.636 276.63 C 225.388 275.564 236.262 276.05 246.978 277.276 C 252.605 277.92 258.202 278.796 263.772 279.817 C 265.246 280.087 265.878 277.829 264.395 277.557"/>
  <g transform="matrix(0.028195, 0, 0, -0.028195, 26.075466, 607.50116)" id="g320" style="">
    <path id="path322" style="fill:#211d1d;fill-opacity:1;fill-rule:nonzero;stroke:none" d="m 8931.23,16154.6 c 73.32,24.5 147.67,44.8 223.18,61.5 -15.64,6.3 -31.28,12.7 -46.93,19.1 343,-695.1 739.04,-1363.7 1184.82,-1997.7 126.6,-180.1 257.2,-357.2 391.5,-531.6 5,19 10,37.9 15,56.9 -595.1,-390.7 -1076.57,-948.5 -1376.39,-1594.2 -83.64,-180.1 -153.22,-366.5 -207.91,-557.4 -14.75,-51.5 65.43,-73.5 80.16,-22.1 190.74,666 569.23,1272.6 1080.24,1740.1 145.4,133 301.2,253.7 465.8,361.8 16.9,11.1 29.3,38.3 15,56.9 -473.1,614 -898.85,1264.1 -1271.73,1943.7 -105.87,192.9 -207.33,388.2 -304.72,585.5 -8.37,17 -29.8,22.9 -46.93,19.1 -75.52,-16.6 -149.87,-36.9 -223.19,-61.5 -50.47,-16.9 -28.83,-97.2 22.1,-80.1 v 0"/>
  </g>
  <g transform="matrix(0.028607, 0, 0, -0.028607, 26.075466, 607.50116)" id="g324" style="">
    <path id="path326" style="fill:#211d1d;fill-opacity:1;fill-rule:nonzero;stroke:none" d="m 8271.64,16260.5 c -198.13,-222.7 -373.16,-467.9 -534.01,-718.4 -205.46,-320 -389.32,-658.7 -516.48,-1017.9 -67.29,-190.1 -116.91,-387.3 -131.82,-588.8 -3.89,-52.6 78.05,-52.4 81.93,0 26.55,358.9 166.35,705.9 326.53,1024.3 160.27,318.6 352.15,621.9 563.85,908.8 84.76,114.8 173.01,227.4 267.93,334.1 34.94,39.3 -22.8,97.4 -57.93,57.9 v 0"/>
  </g>
  <path id="path328" style="fill: rgb(33, 29, 29); fill-opacity: 1; fill-rule: nonzero; stroke: none;" d="M 278.693 276.961 C 284.114 259.159 293.745 242.72 306.609 229.271 C 310.214 225.507 314.066 221.985 318.127 218.72 C 318.592 218.346 318.573 217.438 318.127 217.064 C 315.346 214.724 312.682 212.218 310.101 209.661 C 309.027 208.597 307.368 210.254 308.442 211.317 C 311.026 213.874 313.689 216.38 316.471 218.72 C 316.471 218.167 316.471 217.617 316.471 217.064 C 301.744 228.902 289.863 244.233 282.055 261.438 C 279.859 266.279 277.981 271.254 276.434 276.338 C 275.993 277.784 278.255 278.401 278.693 276.961"/>
  <g transform="matrix(0.028579, 0, 0, -0.028579, 26.075466, 607.50116)" id="g330" style="">
    <path id="path332" style="fill:#211d1d;fill-opacity:1;fill-rule:nonzero;stroke:none" d="m 8391.39,16053.9 c 106.77,61.5 217.38,115.2 332.6,159 -16.81,9.5 -33.63,19.1 -50.44,28.6 182.04,-614.8 441.95,-1206.4 773.17,-1755.4 94.14,-156 194.08,-308.4 299.16,-457.1 2.15,16.5 4.3,33.1 6.45,49.7 -272.42,-259.7 -518.33,-540.2 -726.14,-854.7 -209.48,-317.1 -380.05,-659.8 -507.27,-1017.8 -71.9,-202.4 -129.18,-409.7 -172.09,-620.1 -10.51,-51.6 68.52,-73.6 79.07,-21.8 149.11,731.2 478.26,1423.8 952.86,2000.1 133.59,162.3 279.52,311.3 431.53,456.3 12.15,11.6 16.55,35.3 6.36,49.7 -367.68,520.4 -669.63,1086.8 -893.55,1683.5 -62.94,167.7 -119.61,337.7 -170.48,509.4 -5.84,19.8 -29.33,36.7 -50.43,28.7 -121.83,-46.4 -239.26,-102.2 -352.18,-167.3 -45.7,-26.4 -4.45,-97.3 41.38,-70.8 v 0"/>
  </g>
  <path id="path334" style="fill: rgb(33, 29, 29); fill-opacity: 1; fill-rule: nonzero; stroke: none;" d="M 132.453 230.524 C 135.459 229.145 138.661 228.21 141.927 227.7 C 142.552 227.601 142.899 226.818 142.745 226.257 C 142.562 225.592 141.931 225.341 141.304 225.44 C 137.826 225.985 134.467 227.032 131.27 228.502 C 130.695 228.766 130.553 229.597 130.85 230.105 C 131.195 230.695 131.876 230.791 132.453 230.524"/>
  <path id="path336" style="fill: rgb(33, 29, 29); fill-opacity: 1; fill-rule: nonzero; stroke: none;" d="M 138.535 217.12 C 138.658 217.043 138.784 216.973 138.914 216.912 C 138.968 216.885 139.023 216.861 139.078 216.834 C 138.932 216.901 138.984 216.872 139.102 216.829 C 139.384 216.727 139.668 216.639 139.959 216.564 C 140.288 216.482 140.622 216.415 140.957 216.359 C 141.048 216.343 141.139 216.329 141.23 216.316 C 141.251 216.313 141.474 216.281 141.351 216.297 C 141.208 216.316 141.503 216.281 141.53 216.279 C 141.623 216.268 141.717 216.257 141.811 216.246 C 143.102 216.118 144.401 216.097 145.698 216.105 C 146.311 216.108 146.898 215.563 146.87 214.932 C 146.841 214.296 146.355 213.764 145.698 213.762 C 144.326 213.754 142.951 213.775 141.586 213.927 C 140.142 214.088 138.615 214.326 137.352 215.095 C 136.812 215.424 136.608 216.145 136.932 216.698 C 137.248 217.238 137.992 217.449 138.535 217.12"/>
  <path id="path338" style="fill: rgb(33, 29, 29); fill-opacity: 1; fill-rule: nonzero; stroke: none;" d="M 143.274 211.013 C 145.371 210.93 147.456 210.534 149.426 209.808 C 149.999 209.597 150.451 209.003 150.244 208.365 C 150.062 207.804 149.418 207.32 148.803 207.547 C 147.884 207.887 146.942 208.157 145.983 208.352 C 145.752 208.397 145.52 208.44 145.288 208.477 C 145.162 208.499 145.037 208.517 144.911 208.536 C 145.166 208.496 144.814 208.547 144.791 208.549 C 144.287 208.611 143.781 208.648 143.274 208.667 C 142.663 208.691 142.073 209.19 142.103 209.84 C 142.13 210.454 142.618 211.037 143.274 211.013"/>
  <g transform="matrix(0.02824, 0, 0, -0.02824, 26.075466, 607.50116)" id="g340" style="">
    <path id="path342" style="fill:#211d1d;fill-opacity:1;fill-rule:nonzero;stroke:none" d="m 9213.61,16081.2 c 34.81,22.8 69.63,45.6 104.45,68.3 17.88,11.8 35.76,23.5 53.64,35.2 8.47,5.5 16.94,11.1 25.4,16.6 3.84,2.5 10.14,4.9 13.1,8.5 4.66,5.6 8.22,-0.9 -1.15,4 -3.67,-0.5 -6.5,0.7 -8.5,3.4 -2.77,3.1 -3.14,3.2 -1.11,0.2 0.94,-3.6 4.04,-7.6 5.7,-11.1 4.3,-9.1 8.31,-18.4 12.46,-27.5 8.78,-19.4 17.55,-38.7 26.32,-58.1 17.52,-38.7 35.12,-77.4 52.62,-116.1 9.28,-20.4 38.89,-25.3 56.77,-14.9 21,12.3 24.22,36.3 14.85,56.8 -20.24,44.8 -40.58,89.6 -60.92,134.4 -9.65,21.4 -19.31,42.9 -29.05,64.2 -10.22,22.3 -25.35,41.7 -50.18,48.2 -25.67,6.7 -49.04,-4.9 -69.96,-18.5 -20.74,-13.5 -41.41,-27.1 -62.11,-40.7 -41.4,-27.1 -82.81,-54.2 -124.21,-81.3 -18.73,-12.2 -26.62,-36.7 -14.89,-56.7 10.89,-18.7 37.94,-27.3 56.77,-14.9 v 0"/>
  </g>
  <g transform="matrix(0.027369, 0, 0, -0.027369, 26.075466, 607.50116)" id="g344" style="">
    <path id="path346" style="fill:#211d1d;fill-opacity:1;fill-rule:nonzero;stroke:none" d="m 8992.95,12085.7 c 245.37,721.4 515.12,1465 1004.21,2061.6 135.94,165.8 288.24,317.5 456.24,450.7 18.3,14.4 14.9,45.6 0,60.5 -226,227.8 -431,474.4 -604.91,744.3 -173.51,269 -316.43,555.9 -448.52,847.1 -22.74,50.1 -96.56,6.6 -73.94,-43.2 134.31,-296.1 279.86,-587.8 457.25,-860.7 175.91,-270.6 382.42,-519.1 609.62,-748 0,20.2 0,40.4 0,60.5 -615.96,-488.3 -981.42,-1205 -1258.61,-1924.8 -79.56,-206.6 -152.63,-415.6 -223.91,-625.2 -17.78,-52.3 64.89,-74.7 82.57,-22.8 v 0"/>
  </g>
  <g transform="matrix(0.028544, 0, 0, -0.028544, 26.075466, 607.50116)" id="g348" style="">
    <path id="path350" style="fill:#211d1d;fill-opacity:1;fill-rule:nonzero;stroke:none" d="m 8286.79,16228.6 c 227.55,-651.9 613.44,-1236.1 1049.9,-1766.4 124.47,-151.2 253.91,-298.3 386.64,-442.3 35.94,-38.9 93.88,19.3 58.03,58.1 -459.25,498.1 -884.14,1038.5 -1190.57,1645.5 -86.17,170.7 -161.8,346.4 -224.83,526.9 -17.3,49.6 -96.64,28.3 -79.17,-21.8 v 0"/>
  </g>
  <g transform="matrix(0.026959, 0, 0, -0.026959, 26.075466, 607.50116)" id="g352" style="">
    <path id="path354" style="fill:#211d1d;fill-opacity:1;fill-rule:nonzero;stroke:none" d="m 8148.58,15479.5 c 133.07,270 285.33,531.8 472.84,767.9 17.22,21.6 -13.33,52.6 -30.73,30.7 -189.96,-239.2 -344.81,-503.1 -479.64,-776.6 -12.32,-25 25.14,-47.1 37.53,-22 v 0"/>
  </g>
  <path id="path356" style="fill: rgb(33, 29, 29); fill-opacity: 1; fill-rule: nonzero; stroke: none;" d="M 237.953 210.457 C 239.329 205.226 241.224 200.149 243.409 195.204 C 243.711 194.523 242.701 193.924 242.397 194.614 C 240.171 199.653 238.226 204.814 236.823 210.147 C 236.631 210.876 237.762 211.186 237.953 210.457"/>
  <path id="path358" style="fill: rgb(33, 29, 29); fill-opacity: 1; fill-rule: nonzero; stroke: none;" d="M 261.339 184.493 C 262.545 182.722 263.798 180.98 265.093 179.273 C 265.284 179.022 265.133 178.618 264.883 178.471 C 264.582 178.295 264.273 178.429 264.081 178.682 C 262.786 180.39 261.534 182.132 260.327 183.903 C 260.149 184.165 260.278 184.552 260.538 184.704 C 260.827 184.873 261.16 184.755 261.339 184.493"/>
  <path id="path360" style="fill: rgb(33, 29, 29); fill-opacity: 1; fill-rule: nonzero; stroke: none;" d="M 244.542 219.591 C 247.89 209.898 251.788 200.371 256.938 191.485 C 257.317 190.831 256.305 190.24 255.927 190.892 C 250.727 199.866 246.792 209.495 243.412 219.279 C 243.166 219.995 244.297 220.302 244.542 219.591"/>
  <path id="path362" style="fill: rgb(33, 29, 29); fill-opacity: 1; fill-rule: nonzero; stroke: none;" d="M 263.144 201.133 C 265.33 197.427 267.707 193.831 270.379 190.457 C 270.842 189.871 270.018 189.035 269.55 189.626 C 266.815 193.083 264.37 196.748 262.132 200.542 C 261.748 201.191 262.761 201.782 263.144 201.133"/>
  <path id="path364" style="fill: rgb(33, 29, 29); fill-opacity: 1; fill-rule: nonzero; stroke: none;" d="M 249.529 230.214 C 252.597 222.442 255.868 214.745 259.719 207.326 C 260.066 206.658 259.055 206.065 258.707 206.735 C 254.809 214.243 251.504 222.036 248.399 229.902 C 248.122 230.604 249.255 230.909 249.529 230.214"/>
  <path id="path366" style="fill: rgb(33, 29, 29); fill-opacity: 1; fill-rule: nonzero; stroke: none;" d="M 259.154 229.752 C 263.323 221.229 267.95 212.896 273.541 205.215 C 275.166 202.984 276.875 200.815 278.668 198.717 C 279.156 198.146 278.331 197.312 277.84 197.887 C 271.575 205.22 266.389 213.393 261.851 221.886 C 260.569 224.288 259.338 226.714 258.142 229.159 C 257.812 229.835 258.822 230.428 259.154 229.752"/>
  <path id="path368" style="fill: rgb(33, 29, 29); fill-opacity: 1; fill-rule: nonzero; stroke: none;" d="M 254.183 240.532 C 254.734 239.271 255.292 238.013 255.86 236.757 C 255.986 236.479 255.949 236.113 255.65 235.956 C 255.393 235.819 254.983 235.867 254.848 236.167 C 254.281 237.42 253.722 238.681 253.171 239.942 C 253.049 240.222 253.079 240.583 253.382 240.743 C 253.635 240.877 254.052 240.834 254.183 240.532"/>
  <path id="path370" style="fill: rgb(33, 29, 29); fill-opacity: 1; fill-rule: nonzero; stroke: none;" d="M 272.819 227.687 C 275.432 223.228 278.144 218.825 281.121 214.595 C 281.557 213.978 280.541 213.393 280.11 214.005 C 277.133 218.232 274.42 222.637 271.807 227.096 C 271.425 227.748 272.438 228.339 272.819 227.687"/>
  <path id="path372" style="fill: rgb(33, 29, 29); fill-opacity: 1; fill-rule: nonzero; stroke: none;" d="M 259.729 253.771 C 262.578 246.22 266.378 239.084 270.316 232.055 C 270.685 231.398 269.674 230.807 269.305 231.464 C 265.316 238.582 261.484 245.814 258.599 253.461 C 258.332 254.166 259.465 254.47 259.729 253.771"/>
  <path id="path374" style="fill: rgb(33, 29, 29); fill-opacity: 1; fill-rule: nonzero; stroke: none;" d="M 190.86 209.172 C 201.447 208.149 212.19 209.046 222.344 212.282 C 223.064 212.511 223.373 211.379 222.656 211.152 C 212.412 207.887 201.541 206.968 190.86 207.999 C 190.116 208.071 190.108 209.244 190.86 209.172"/>
  <path id="path376" style="fill: rgb(33, 29, 29); fill-opacity: 1; fill-rule: nonzero; stroke: none;" d="M 169.266 213.831 C 173.91 212.311 178.643 211.087 183.45 210.208 C 184.191 210.075 183.877 208.945 183.139 209.078 C 178.332 209.957 173.598 211.184 168.954 212.701 C 168.241 212.934 168.546 214.066 169.266 213.831"/>
  <path id="path378" style="fill: rgb(33, 29, 29); fill-opacity: 1; fill-rule: nonzero; stroke: none;" d="M 176.397 222.637 C 188.663 220.249 201.274 217.857 213.807 219.386 C 217.322 219.816 220.791 220.593 224.147 221.723 C 224.863 221.967 225.17 220.834 224.458 220.593 C 212.322 216.5 199.305 217.483 186.876 219.527 C 183.267 220.12 179.675 220.81 176.085 221.507 C 175.346 221.651 175.659 222.781 176.397 222.637"/>
  <path id="path380" style="fill: rgb(33, 29, 29); fill-opacity: 1; fill-rule: nonzero; stroke: none;" d="M 204.447 229.69 C 212.46 229.223 220.499 229.463 228.473 230.374 C 229.221 230.46 229.215 229.287 228.473 229.202 C 220.499 228.29 212.46 228.05 204.447 228.518 C 203.698 228.56 203.693 229.733 204.447 229.69"/>
  <path id="path382" style="fill: rgb(33, 29, 29); fill-opacity: 1; fill-rule: nonzero; stroke: none;" d="M 181.183 232.982 C 186.316 231.863 191.496 230.97 196.715 230.364 C 197.455 230.278 197.464 229.105 196.715 229.191 C 191.392 229.811 186.107 230.708 180.871 231.852 C 180.135 232.012 180.447 233.142 181.183 232.982"/>
  <path id="path384" style="fill: rgb(33, 29, 29); fill-opacity: 1; fill-rule: nonzero; stroke: none;" d="M 230.037 240.874 C 231.707 240.97 233.376 241.085 235.044 241.219 C 235.36 241.243 235.63 240.93 235.63 240.631 C 235.63 240.294 235.361 240.07 235.044 240.046 C 233.376 239.915 231.707 239.8 230.037 239.704 C 229.721 239.685 229.451 239.985 229.451 240.289 C 229.451 240.62 229.72 240.856 230.037 240.874"/>
  <path id="path386" style="fill: rgb(33, 29, 29); fill-opacity: 1; fill-rule: nonzero; stroke: none;" d="M 187.484 244.607 C 196.377 241.924 205.647 240.818 214.912 240.588 C 217.524 240.524 220.138 240.53 222.751 240.583 C 223.505 240.599 223.505 239.426 222.751 239.41 C 213.435 239.218 204.062 239.677 194.912 241.531 C 192.303 242.06 189.721 242.707 187.173 243.476 C 186.453 243.696 186.76 244.826 187.484 244.607"/>
  <path id="path388" style="fill: rgb(33, 29, 29); fill-opacity: 1; fill-rule: nonzero; stroke: none;" d="M 206.622 251.911 C 216.987 250.647 227.46 250.41 237.87 251.219 C 238.622 251.278 238.619 250.105 237.87 250.046 C 227.46 249.237 216.987 249.474 206.622 250.738 C 205.883 250.829 205.874 252.002 206.622 251.911"/>
  <path id="path390" style="fill: rgb(33, 29, 29); fill-opacity: 1; fill-rule: nonzero; stroke: none;" d="M 191.364 254.585 C 193.909 254.008 196.467 253.495 199.037 253.044 C 199.779 252.913 199.465 251.783 198.726 251.914 C 196.156 252.365 193.598 252.878 191.053 253.455 C 190.318 253.621 190.629 254.751 191.364 254.585"/>
  <path id="path392" style="fill: rgb(33, 29, 29); fill-opacity: 1; fill-rule: nonzero; stroke: none;" d="M 228.93 262.098 C 234.61 261.994 240.289 262.133 245.966 262.307 C 246.72 262.331 246.719 261.158 245.966 261.134 C 240.289 260.963 234.61 260.821 228.93 260.928 C 228.177 260.941 228.175 262.114 228.93 262.098"/>
  <path id="path394" style="fill: rgb(33, 29, 29); fill-opacity: 1; fill-rule: nonzero; stroke: none;" d="M 195.292 268.019 C 203.637 264.599 212.575 263.025 221.538 262.411 C 222.286 262.36 222.292 261.187 221.538 261.241 C 212.474 261.86 203.42 263.431 194.98 266.889 C 194.292 267.169 194.593 268.305 195.292 268.019"/>
  <path id="path396" style="fill: rgb(33, 29, 29); fill-opacity: 1; fill-rule: nonzero; stroke: none;" d="M 254.585 296.472 C 254.287 297.514 254.175 298.666 254.481 299.721 C 254.744 300.627 255.293 301.383 256.067 301.92 C 257.442 302.874 259.405 302.681 260.601 301.535 C 261.389 300.782 261.732 299.697 261.765 298.631 C 261.784 298.019 261.212 297.431 260.593 297.458 C 259.942 297.488 259.441 297.974 259.421 298.631 C 259.418 298.727 259.411 298.826 259.403 298.922 C 259.395 299.034 259.332 299.165 259.423 298.797 C 259.412 298.839 259.408 298.885 259.4 298.93 C 259.369 299.099 259.324 299.264 259.266 299.425 C 259.252 299.462 259.235 299.499 259.222 299.537 C 259.348 299.163 259.323 299.31 259.275 299.401 C 259.246 299.459 259.218 299.515 259.185 299.571 C 259.148 299.636 259.106 299.7 259.065 299.761 C 259.008 299.847 258.897 299.929 259.161 299.641 C 259.132 299.673 259.107 299.705 259.079 299.737 C 258.989 299.839 258.887 299.924 258.787 300.015 C 259.103 299.726 258.946 299.897 258.843 299.964 C 258.782 300.004 258.718 300.042 258.653 300.074 C 258.542 300.133 258.295 300.197 258.719 300.055 C 258.666 300.074 258.615 300.095 258.562 300.114 C 258.498 300.133 258.434 300.151 258.368 300.167 C 258.238 300.197 257.94 300.205 258.417 300.173 C 258.294 300.181 258.173 300.194 258.049 300.191 C 257.982 300.189 257.916 300.181 257.848 300.178 C 257.757 300.17 257.63 300.125 258.06 300.207 C 258.016 300.197 257.971 300.191 257.927 300.183 C 257.805 300.159 257.685 300.127 257.567 300.084 C 257.292 299.986 257.838 300.218 257.626 300.111 C 257.553 300.076 257.482 300.042 257.412 299.999 C 257.362 299.97 257.313 299.94 257.265 299.905 C 257.022 299.74 257.484 300.098 257.305 299.94 C 257.195 299.844 257.095 299.745 256.998 299.636 C 256.836 299.457 257.195 299.916 257.022 299.665 C 256.981 299.609 256.944 299.55 256.909 299.489 C 256.872 299.427 256.838 299.363 256.807 299.299 C 256.789 299.262 256.775 299.224 256.756 299.189 C 256.946 299.55 256.837 299.384 256.799 299.278 C 256.735 299.099 256.693 298.917 256.657 298.733 C 256.635 298.623 256.662 298.484 256.671 298.861 C 256.67 298.797 256.658 298.733 256.653 298.671 C 256.646 298.572 256.642 298.473 256.642 298.375 C 256.642 298.252 256.647 298.129 256.656 298.009 C 256.66 297.952 256.666 297.899 256.671 297.846 C 256.689 297.643 256.622 298.15 256.658 297.934 C 256.705 297.651 256.766 297.373 256.845 297.097 C 257.014 296.507 256.639 295.794 256.027 295.655 C 255.402 295.513 254.766 295.842 254.585 296.472"/>
  <path id="path398" style="fill: rgb(33, 29, 29); fill-opacity: 1; fill-rule: nonzero; stroke: none;" d="M 284.441 288.003 C 285.839 288.775 287.555 289.309 289.081 288.585 C 290.345 287.987 290.74 286.421 290.294 285.176 C 289.984 284.311 289.442 283.565 288.781 282.935 C 288.338 282.51 287.559 282.459 287.124 282.935 C 286.703 283.394 286.652 284.137 287.124 284.591 C 287.341 284.8 287.545 285.019 287.731 285.257 C 287.67 285.176 287.609 285.096 287.548 285.019 C 287.76 285.294 287.946 285.588 288.085 285.908 C 288.046 285.815 288.007 285.721 287.967 285.628 C 288.057 285.842 288.124 286.061 288.158 286.288 C 288.144 286.184 288.13 286.079 288.116 285.978 C 288.138 286.144 288.142 286.315 288.121 286.483 C 288.135 286.379 288.149 286.274 288.163 286.17 C 288.145 286.298 288.113 286.419 288.065 286.539 C 288.105 286.445 288.144 286.352 288.183 286.258 C 288.135 286.373 288.074 286.477 287.998 286.576 C 288.059 286.496 288.12 286.419 288.182 286.339 C 288.109 286.429 288.027 286.51 287.935 286.579 C 288.014 286.518 288.093 286.459 288.173 286.397 C 288.067 286.475 287.953 286.539 287.832 286.592 C 287.925 286.552 288.018 286.512 288.112 286.475 C 287.947 286.542 287.775 286.587 287.599 286.611 C 287.703 286.598 287.806 286.584 287.91 286.571 C 287.64 286.606 287.368 286.598 287.097 286.563 C 287.201 286.579 287.305 286.592 287.409 286.606 C 286.959 286.544 286.526 286.408 286.108 286.234 C 286.201 286.274 286.294 286.315 286.388 286.352 C 286.126 286.242 285.873 286.117 285.624 285.978 C 285.088 285.681 284.322 285.831 284.021 286.397 C 283.73 286.948 283.868 287.685 284.441 288.003"/>
</svg>