<?xml version="1.0" encoding="utf-8"?>
<svg viewBox="0 0 500 500" xmlns="http://www.w3.org/2000/svg">
  <g transform="matrix(0.035012, 0, 0, -0.035012, -251.120651, 383.077576)" id="g246" style="">
    <path id="path248" style="fill:#211d1d;fill-opacity:1;fill-rule:nonzero;stroke:none" d="m 16156.2,4761 c 52.9,-51.28 69.2,-133.36 73.7,-207.04 7.3,-114.43 -8.9,-229.88 -30.9,-341.95 -58.5,-297.52 -162.4,-586.64 -277,-866.56 -113.2,-276.59 -241.4,-548.69 -390.5,-807.9 -52.5,-91.44 -107.4,-182.8 -171.7,-266.58 -20,-26.08 -41.1,-51.72 -65.2,-74.19 -12.7,-11.86 -12,-12.01 -24,-19.31 -41.1,-24.83 -87.9,-41.7 -134,-54.59 -222.7,-62.48 -455.6,-15.7 -680.1,9.87 -274.6,31.32 -547.4,77.66 -818.6,130.42 -269.4,52.31 -537,112.8 -804.5,173.66 -274.5,62.41 -551.3,119.65 -819.2,207.26 -122.3,40.01 -242.4,87.9 -353.6,153.18 -101.6,59.68 -201.4,130.56 -240.9,246.61 -36.1,106.25 -26.2,223.18 -16.8,332.96 11.7,136.9 34.3,272.4 67.2,405.83 26.8,108.76 53.8,249.41 156.5,313.66 54.7,34.19 121.4,41.12 184.3,45.17 57.8,3.68 115.9,5.89 173.9,7.88 243.2,8.47 486.7,7 729.9,-0.74 512.8,-16.43 1024.8,-60.12 1533.8,-123.41 243.4,-30.28 486.2,-65.5 728.1,-106.32 110.3,-18.57 220.8,-43.69 332.8,-49.81 71.8,-3.98 147.4,1.47 211,38.17 55.2,31.9 94.9,83.33 132.2,133.87 24.7,33.53 -31.4,65.8 -55.9,32.64 -37.1,-50.39 -78.4,-102.56 -139.1,-124.88 -84,-30.87 -184,-14.96 -269.7,-1.26 -243,38.83 -484.8,81.64 -728.8,114.72 -521.7,70.88 -1046.6,121.06 -1572.7,144.34 -256,11.35 -512.5,16.14 -768.7,10.98 -119.2,-2.43 -240.5,-2.5 -359.1,-15.99 -118.8,-13.48 -216.7,-62.99 -274,-171.52 -58.8,-111.41 -83.4,-245.07 -107,-367.6 -25.5,-132.4 -42.3,-267.68 -46.7,-402.44 -3.5,-102.71 5.8,-208.95 55.7,-300.76 57.3,-105.44 163.3,-174.62 265.4,-231.65 237.6,-132.85 509.7,-200.49 772.4,-263.56 277.6,-66.6 556.7,-129.23 835.9,-189.35 279,-60.05 559.3,-114.87 841.4,-158.56 131.6,-20.41 263.6,-37.07 395.9,-52.76 110.6,-13.19 220.6,-30.28 332.1,-34.7 121.4,-4.87 246.1,3.98 361.8,43.47 54.1,18.42 107.9,40.3 149.8,79.87 62.1,58.43 110.5,133.36 156.3,204.61 154.2,239.83 280.7,498.96 396.2,759.27 130.9,294.87 248.6,598.36 329.1,911.13 33.3,128.87 60.4,260.54 70.2,393.53 6.9,95.64 6.4,199.16 -29.3,289.64 -14.3,35.95 -34,69.33 -61.9,96.37 -30,28.96 -75.6,-16.65 -45.7,-45.68 v 0"/>
  </g>
  <g transform="matrix(0.034448, 0, 0, -0.034448, -251.120651, 383.077576)" id="g250" style="">
    <path id="path252" style="fill:#211d1d;fill-opacity:1;fill-rule:nonzero;stroke:none" d="m 11737.6,4077.77 c 14.7,96.83 97.6,187.74 157.4,260.01 113.3,136.82 238.3,263.98 364.2,389.12 162.9,162.05 330,319.99 497.6,477.25 89.2,83.65 178.3,167.3 267,251.48 36.1,34.37 73.9,67.39 119.1,89.56 56.8,27.93 121.8,36.25 183.9,43.14 510,56.39 1022.5,93.9 1534.8,118.32 257.9,12.35 516,20.82 774.1,25.53 125,2.25 250,3.67 375.1,4.12 32.6,0.15 65.2,0.23 97.8,0.23 26.7,0 63.3,6.06 89,-3.6 47.5,-17.97 34.3,-118.24 35.3,-158.31 12.5,-506.99 -114.7,-1003.34 -381.4,-1435.59 -22.2,-36.1 34.5,-69.12 56.7,-33.18 246.5,399.68 379.1,856.19 390.5,1325.36 1.3,57.44 1,114.88 -0.9,172.32 -1.8,49.35 1.7,108.14 -26.2,151.5 -25.6,39.91 -70.4,46.42 -114.1,47.18 -70.6,1.19 -141.3,-0.08 -211.9,-0.53 -266.4,-1.72 -532.7,-7.49 -798.9,-17.3 -543.1,-19.99 -1085.7,-56.84 -1626.6,-110.46 -123.1,-12.2 -260.3,-12.06 -376.8,-57.29 -99,-38.41 -169.3,-119.59 -245,-190.29 -187.1,-175.01 -374.6,-349.72 -558.4,-528.18 -161,-156.21 -321.7,-314.22 -467.2,-485.19 -49.3,-58.04 -97.7,-117.8 -138.6,-182.2 -26,-40.97 -52.5,-86.87 -59.8,-135.55 -6.2,-41.34 57,-59.16 63.3,-17.45 v 0"/>
  </g>
  <g transform="matrix(0.034805, 0, 0, -0.034805, -251.120651, 383.077576)" id="g254" style="">
    <path id="path256" style="fill:#211d1d;fill-opacity:1;fill-rule:nonzero;stroke:none" d="m 15368.1,2313.86 c 229.8,318.35 366.8,688.5 491.6,1057.62 102.9,304.4 216.2,605.55 314.4,911.52 49.6,154.54 98.7,312.41 120.3,473.77 5.6,40.92 -57,58.55 -62.6,17.27 -19,-141.64 -59.9,-280.32 -102.2,-416.48 -47.8,-153.57 -101.2,-305.3 -155.3,-456.8 -115.4,-323.38 -214.6,-653.81 -345.6,-971.26 -84.6,-204.94 -186.8,-402.84 -316.7,-582.88 -24.5,-33.94 31.8,-66.4 56.1,-32.76 v 0"/>
  </g>
  <g transform="matrix(0.03284, 0, 0, -0.03284, -251.120651, 383.077576)" id="g258" style="">
    <path id="path260" style="fill:#211d1d;fill-opacity:1;fill-rule:nonzero;stroke:none" d="m 12954.3,4492.21 c -151,-10.6 -339,-65.82 -403,-218.84 -28,-66.85 -33.5,-143.29 -39.1,-214.69 -7.3,-92.38 -10.2,-185.15 -19.7,-277.37 -5.2,-50.43 -12.4,-100.63 -23,-150.27 -10.2,-47.68 -28,-93.64 -34.2,-142.1 -9.9,-76.59 7.4,-154.52 46.3,-221.05 98,-167.64 286.5,-211.15 459.3,-264.02 427.5,-130.71 864.1,-228.04 1297.8,-335.03 387.1,-95.44 773.9,-190.1 1163.1,-276.74 157.7,-35.11 318.4,-66.85 480.3,-71.41 132.8,-3.69 292,9.27 387.9,113.28 30,32.6 -18.6,81.46 -48.7,48.78 -78.5,-85.15 -209.3,-94.66 -317.9,-93.56 -137.6,1.42 -274.2,25.22 -408.5,53.18 -341.1,71.09 -679.8,153.97 -1017.7,238.18 -402.7,100.47 -807.7,191.9 -1208.2,300.7 -101,27.41 -201.7,56.16 -301.9,86.64 -91,27.81 -191.4,50.19 -275.9,94.66 -70.1,36.92 -130,93.79 -163.7,166.14 -35.9,76.74 -27.2,148.54 -5.4,227.33 52.2,188.37 41.4,383.81 66.2,575.87 10.8,83.35 32.4,156.32 103.6,207.62 75.5,54.28 170.9,77.37 262.4,83.81 44,3.07 44.3,71.96 0,68.89 v 0"/>
  </g>
  <g transform="matrix(0.034245, 0, 0, -0.034245, -251.120651, 383.077576)" id="g262" style="">
    <path id="path264" style="fill:#211d1d;fill-opacity:1;fill-rule:nonzero;stroke:none" d="m 12081.9,4055.11 c 348.5,-24.85 696.8,-53.1 1044.8,-84.14 343.8,-30.73 687.4,-64.11 1030.8,-99.36 342.2,-35.18 684.2,-72.24 1026,-110.28 170.7,-18.99 341.2,-38.8 511.8,-57.63 37.6,-4.15 77,-6.93 112.9,7.6 31.2,12.66 54.7,36.47 75.1,62.6 46.2,59.37 87.1,123.7 125.1,188.56 152.9,260.71 249.4,553.98 281.5,854.47 4,37.06 6.9,74.2 8.9,111.41 1.2,21.25 -31.9,21.17 -33,0 -16.3,-299.66 -97.8,-595.11 -237,-860.95 -34.6,-65.99 -72.6,-130.17 -114,-192.09 -40.6,-60.72 -82.2,-139.59 -164.2,-141.92 -41.2,-1.13 -83.1,6.55 -124.1,11.15 -40.6,4.67 -81.3,9.26 -122,13.86 -85.3,9.56 -170.7,19.21 -256,28.7 -335.2,37.44 -670.4,73.97 -1005.9,108.77 -336.2,34.81 -672.7,67.95 -1009.5,98.54 -340.4,30.96 -681.2,59.28 -1022.1,84.37 -43,3.16 -86,6.33 -129.1,9.34 -21.2,1.51 -21.1,-31.49 0,-33 v 0"/>
  </g>
  <g transform="matrix(0.034567, 0, 0, -0.034567, -251.120651, 383.077576)" id="g266" style="">
    <path id="path268" style="fill:#211d1d;fill-opacity:1;fill-rule:nonzero;stroke:none" d="m 11944.8,3824.19 c 405.6,-87.02 814.3,-158.97 1223.9,-224.64 408.7,-65.6 818.4,-125 1227.6,-187.92 206.2,-31.64 412.1,-64.18 617.8,-98.73 168.5,-28.29 349.5,-59.71 515.9,-4.33 161.4,53.58 266.9,188.22 344.9,332.85 84.9,157.47 154.1,324.94 213.8,493.38 122.9,346.13 201.9,712.12 210.3,1080.04 1,44.33 0.9,88.66 -0.3,132.99 -0.6,21.05 -33.3,21.12 -32.8,0 9.7,-363.67 -55.4,-727.34 -164.8,-1073.32 -54.3,-171.95 -120.3,-340.32 -197.7,-503.23 -69.2,-145.83 -149.6,-303.52 -292.6,-389.95 -153.7,-92.99 -343.5,-75.75 -513.2,-49.18 -197.2,30.82 -393.9,64.78 -591,95.38 -402.2,62.47 -805.1,120.83 -1207.1,184.11 -401,63.21 -801.3,131.42 -1198.9,213.22 -49.1,10.08 -98.1,20.37 -147,30.9 -20.6,4.4 -29.4,-27.1 -8.8,-31.57 v 0"/>
  </g>
  <g transform="matrix(0.034741, 0, 0, -0.034741, -251.120651, 383.077576)" id="g270" style="">
    <path id="path272" style="fill:#211d1d;fill-opacity:1;fill-rule:nonzero;stroke:none" d="m 11885.6,3605.34 c 398.7,-95.94 797.8,-189.87 1197.3,-281.87 395.8,-91.11 791.7,-182.29 1188.8,-267.02 195.7,-41.73 392.6,-79.15 591.8,-99.65 173.9,-17.82 357.7,-30.96 529.5,9.73 76,18.04 149.9,48.56 212.4,96.09 64,48.71 112.7,113.53 151.1,183.63 40.4,73.73 70.5,152.74 101.8,230.63 35.8,89.55 71.5,179.1 106.4,269.02 138.9,359.39 264.2,727.7 317.3,1110.78 6.3,46.26 11.8,92.67 16.1,139.22 1.9,20.87 -30.7,20.72 -32.6,0 -35.2,-379.44 -147.2,-746.25 -279.4,-1102.01 -65,-175.01 -132.1,-350.18 -205.4,-521.86 -31.8,-74.25 -68,-148.73 -120,-211.17 -52.7,-63.49 -120.8,-110.49 -198,-139.31 -157.2,-58.66 -332.4,-52.64 -496.9,-41.06 -198.2,14.04 -394.3,47.53 -588.8,87.18 -390.2,79.6 -778.2,170.93 -1166.3,259.89 -391.2,89.62 -781.9,181.1 -1172.2,274.59 -48.1,11.51 -96.2,23.02 -144.3,34.6 -20.3,4.9 -29,-26.51 -8.6,-31.41 v 0"/>
  </g>
  <g transform="matrix(0.03367, 0, 0, -0.03367, -251.120651, 383.077576)" id="g274" style="">
    <path id="path276" style="fill:#211d1d;fill-opacity:1;fill-rule:nonzero;stroke:none" d="m 12209.7,3466.66 c 286.5,-104.27 575.8,-200.81 867.6,-289.45 291.7,-88.65 585.9,-169.4 882,-242.11 296.1,-72.71 594.2,-137.45 893.8,-194.07 148,-28.04 296.4,-55.09 445.2,-77.84 135.4,-20.69 274.5,-35.32 410.4,-10.73 125.5,22.68 236.7,84.05 326.4,174.15 86.5,86.81 152,192.31 211.3,298.81 14.7,26.43 29.1,53.09 43.4,79.75 10.2,19.08 -18.8,36.09 -29,17.01 -113.5,-211.61 -245.7,-446.82 -491.3,-520.68 -132,-39.69 -273.2,-31.65 -408.1,-13.72 -146.1,19.46 -291.4,47.04 -436.2,73.78 -294.6,54.56 -587.7,116.92 -879,187.02 -291.2,70.03 -580.6,147.87 -867.8,233.3 -287.1,85.43 -571.9,178.52 -854.1,279.12 -35.2,12.56 -70.5,25.28 -105.7,38.07 -20.3,7.36 -29.2,-25.05 -8.9,-32.41 v 0"/>
  </g>
  <g transform="matrix(0.026442, 0, 0, -0.026442, -251.120651, 383.077576)" id="g278" style="">
    <path id="path280" style="fill:#211d1d;fill-opacity:1;fill-rule:nonzero;stroke:none" d="m 16011.2,4058.61 c 83.3,-28.58 167,-55.9 251.1,-82.15 26.4,-8.29 37.7,33.08 11.5,41.27 -84.1,26.25 -167.8,53.56 -251.2,82.15 -26.1,8.97 -37.3,-32.29 -11.4,-41.27 v 0"/>
  </g>
  <g transform="matrix(0.032825, 0, 0, -0.032825, -251.120651, 383.077576)" id="g284" style="">
    <path id="path286" style="fill:#211d1d;fill-opacity:1;fill-rule:nonzero;stroke:none" d="m 14062.9,5339.63 c 81,104.21 157.8,214.23 255.4,303.98 95.1,87.48 210.4,142.49 338.9,157.65 89.5,10.61 180.9,10.46 270.8,14.62 97,4.48 193.9,9.04 290.9,13.52 192.6,8.96 385.1,17.92 577.7,26.88 96.9,4.48 193.9,9.03 290.9,13.52 40.2,1.88 85.5,6.75 118,-22.17 26.4,-23.58 38.9,-60.75 39.6,-95.49 0.8,-45.26 -14.7,-88.88 -30.5,-130.69 -16.8,-44.24 -34.1,-88.41 -51.3,-132.58 -17.2,-44.64 -34.5,-89.28 -51.7,-133.92 -15.1,-39.14 -27.5,-82.2 -51,-117.41 -23.5,-35.29 -61,-48.33 -101.2,-54.78 -44.4,-7.07 -89.8,-10.29 -134.6,-14.61 -95.9,-9.36 -192,-17.06 -288.3,-23.03 -191.1,-12.03 -382.5,-17.53 -573.9,-16.43 -192.9,1.02 -385.7,8.65 -578,22.8 -94.8,7.07 -189.4,15.63 -283.9,25.85 -34.5,3.69 -116,5.34 -108.3,59.57 4.8,33.8 33.3,64.05 55.5,87.63 11,11.71 0.3,35.05 -16.8,28.84 -5.5,-2.04 -10.8,-4.79 -16.2,-7.15 -20.3,-8.88 -2.7,-38.59 17.5,-29.71 2.6,1.1 5.2,2.59 7.8,3.62 -5.6,9.58 -11.1,19.17 -16.7,28.76 -35.4,-37.64 -90.2,-102.64 -55.2,-157.02 32.8,-50.85 114.7,-47.23 166.3,-52.58 204.5,-21.3 409.8,-35.05 615.3,-41.34 204.1,-6.2 408.4,-5.02 612.4,3.54 102.1,4.32 204,10.45 305.8,18.39 98.8,7.78 198.9,14.31 297.1,29.16 37.9,5.74 75.8,17.29 103.8,44.71 28.1,27.43 42.2,65.08 56.1,100.84 37.1,95.8 74,191.6 111.1,287.4 29.7,77.02 63.8,162.6 26.9,243.31 -14.2,30.89 -38.4,57.37 -70.4,70.03 -42.3,16.81 -91,9.59 -135.2,7.54 -412.2,-19.17 -824.3,-38.35 -1236.5,-57.53 -86,-4.01 -172.5,-4.95 -256.4,-26.4 -63.8,-16.27 -124.8,-43.07 -179.8,-79.3 -111.6,-73.64 -195.4,-180.13 -276.2,-284.73 -23.4,-30.34 -46.6,-60.75 -70.1,-90.93 -13.4,-17.29 10.8,-41.89 24.4,-24.36 v 0"/>
  </g>
  <g transform="matrix(0.034143, 0, 0, -0.034143, -251.120651, 383.077576)" id="g290" style="">
    <path id="path292" style="fill:#211d1d;fill-opacity:1;fill-rule:nonzero;stroke:none" d="m 11809.4,4117.76 c 60.3,126.94 157.1,228.41 297.7,259.91 63.5,14.29 127,11.72 191.6,8.62 80.2,-3.86 160.4,-6.27 240.8,-8.24 171.2,-4.15 342.6,-6.27 514,-11.86 164.7,-5.37 328.6,-17.23 492.8,-32.11 325.4,-29.54 650.5,-63.01 975.1,-100.94 171.2,-20.03 342.4,-41.18 513.5,-62.94 95.4,-12.09 190.7,-24.4 286.1,-36.87 82.2,-10.73 164,-24.33 246.5,-32.72 73.4,-7.48 150.9,-12.54 223.2,5.75 70.9,17.83 131.1,63.69 181.3,115.37 115.1,118.54 202,266.56 267.9,416.99 17.9,41.1 35,82.58 52,124.14 8.1,19.72 -23.9,28.33 -31.9,8.83 -35.5,-86.51 -71.2,-173.17 -116.1,-255.37 -39.4,-72.23 -87.3,-141.06 -138.4,-205.66 -47.1,-59.39 -101,-117.41 -169.5,-152.1 -66.9,-33.77 -144.3,-33.77 -217.4,-29.09 -82.1,5.22 -163.2,18.97 -244.7,30 -93.9,12.77 -188,24.56 -282,36.64 -171.8,21.99 -343.9,43.37 -515.9,63.7 -323.6,38.3 -647.7,72.23 -972.2,102.15 -164.6,15.19 -329,29.16 -494.4,35.44 -169.9,6.42 -340.1,8.68 -510.2,12.39 -81,1.81 -161.9,3.92 -242.7,7.1 -67.7,2.72 -135.6,9.74 -203.1,1.96 -128.5,-14.96 -238.3,-79.03 -314.3,-184.05 -22.6,-31.43 -41.6,-65.28 -58.2,-100.26 -9.2,-19.19 19.4,-36.04 28.5,-16.78 v 0"/>
  </g>
  <g transform="matrix(0.033211, 0, 0, -0.033211, -251.120651, 383.077576)" id="g294" style="">
    <path id="path296" style="fill:#211d1d;fill-opacity:1;fill-rule:nonzero;stroke:none" d="m 11956.1,3570.28 c 0.4,-142.69 31.5,-283.44 121.7,-397.15 94.9,-119.86 238.3,-203.28 376.2,-263.94 143.9,-63.23 295.7,-105.25 447.6,-143.78 174.7,-44.2 349.7,-87 525.6,-126.38 372.1,-83.27 747.4,-149.76 1121.2,-224.56 344,-68.74 685.5,-148.52 1034.6,-187.9 219.6,-24.78 501.9,-37.98 656.9,152.25 19.6,24 36.2,49.94 50.2,77.52 9.9,19.5 -19.5,36.74 -29.4,17.16 -54.1,-106.57 -149,-173.83 -263.5,-203.51 -113.2,-29.36 -233.1,-26.17 -348.7,-15.92 -329.6,29.05 -653.4,102.92 -976.6,169.88 -360.3,74.64 -723,137.02 -1082.8,214.38 -182,39.15 -363.3,80.94 -543.9,126.3 -148,37.13 -296.9,72.24 -441.2,122.34 -145.1,50.33 -286.8,117.06 -406.2,214.85 -56.9,46.68 -106.4,100.2 -141.6,165.22 -32.9,61.13 -51.8,129.25 -60.1,197.99 -4.3,34.88 -5.9,70.07 -5.9,105.25 -0.1,21.91 -34.2,21.91 -34.1,0 v 0"/>
  </g>
  <g transform="matrix(0.034881, 0, 0, -0.034881, -251.120651, 383.077576)" id="g298" style="">
    <path id="path300" style="fill:#211d1d;fill-opacity:1;fill-rule:nonzero;stroke:none" d="m 16068.8,5311.85 c 83.1,-39.2 139,-124.1 143.3,-216.03 1,-21.67 -0.5,-43.19 -5.5,-64.35 -5.8,-23.96 -18.1,-46.37 -10.4,-71.59 8.1,-26.33 24.5,-47.55 29.4,-75.44 5.2,-29.94 1.2,-59.53 -8.7,-88 -13.6,-39.5 49,-56.51 62.6,-17.23 20.5,59.38 16.4,124.39 -11.4,180.75 -8.6,17.45 -8.4,21.67 -2.8,40.08 3.9,12.94 6.6,26.11 8.6,39.5 3.8,26.1 4.3,52.06 1.2,78.24 -12.7,105.47 -76.2,204.2 -173.5,250.05 -37.6,17.68 -70.5,-38.23 -32.8,-55.98 v 0"/>
  </g>
</svg>