<?xml version="1.0" encoding="utf-8"?>
<svg viewBox="0 0 3333.3333 2666.6667" xmlns="http://www.w3.org/2000/svg">
  <g transform="matrix(1.834631, 0, 0, -1.834631, 2884.099121, 2757.680664)" id="g10" style="">
    <g transform="scale(0.1)" id="g12">
      <g transform="matrix(1.53374, 0, 0, 1.53374, -4234.404785, -2003.780884)" id="g14"/>
      <path id="path418" style="fill:#211d1d;fill-opacity:1;fill-rule:nonzero;stroke:none" d="M -8007.903 5807.885 C -8090.013 5807.885 -8156.783 5741.085 -8156.783 5658.985 C -8156.783 5576.885 -8090.013 5510.085 -8007.903 5510.085 C -7925.793 5510.085 -7858.983 5576.885 -7858.983 5658.985 C -7858.983 5741.085 -7925.793 5807.885 -8007.903 5807.885 Z M -8007.903 5466.285 C -8114.163 5466.285 -8200.643 5552.685 -8200.643 5658.985 C -8200.643 5765.285 -8114.163 5851.785 -8007.903 5851.785 C -7901.593 5851.785 -7815.123 5765.285 -7815.123 5658.985 C -7815.123 5552.685 -7901.593 5466.285 -8007.903 5466.285"/>
      <g transform="matrix(1.18713, 0, 0, 1.18713, -18584.519531, -326.044189)" id="g432">
        <path id="path434" style="fill:#211d1d;fill-opacity:1;fill-rule:nonzero;stroke:none" d="m 16173.6,8220.84 c -49.3,0 -89.4,-40.18 -89.4,-89.46 0,-49.36 40.1,-89.45 89.4,-89.45 49.3,0 89.4,40.09 89.4,89.45 0,49.28 -40.1,89.46 -89.4,89.46 z m 0,-215.81 c -69.7,0 -126.4,56.61 -126.4,126.35 0,69.67 56.7,126.36 126.4,126.36 69.7,0 126.4,-56.69 126.4,-126.36 0,-69.74 -56.7,-126.35 -126.4,-126.35"/>
      </g>
      <g transform="matrix(1.17796, 0, 0, 1.17796, -18584.519531, -326.044189)" id="g436">
        <path id="path438" style="fill:#211d1d;fill-opacity:1;fill-rule:nonzero;stroke:none" d="m 16218,7342.2 c -24.7,0 -44.8,-20.03 -44.8,-44.82 0,-24.71 20.1,-44.82 44.8,-44.82 24.7,0 44.8,20.11 44.8,44.82 0,24.79 -20.1,44.82 -44.8,44.82 z m 0,-126.83 c -45.3,0 -82.1,36.76 -82.1,82.01 0,45.33 36.8,82.09 82.1,82.09 45.2,0 82,-36.76 82,-82.09 0,-45.25 -36.8,-82.01 -82,-82.01"/>
      </g>
      <g transform="matrix(1.05551, 0, 0, 1.05551, -18584.519531, -326.044189)" id="g442">
        <path id="path444" style="fill:#211d1d;fill-opacity:1;fill-rule:nonzero;stroke:none" d="m 16218.5,10259.4 c -22,0 -39.9,-17.8 -39.9,-39.8 0,-22.1 17.9,-40 39.9,-40 22,0 39.9,17.9 39.9,40 0,22 -17.9,39.8 -39.9,39.8 z m 0,-121.3 c -44.9,0 -81.5,36.5 -81.5,81.5 0,44.9 36.6,81.4 81.5,81.4 44.9,0 81.5,-36.5 81.5,-81.4 0,-45 -36.6,-81.5 -81.5,-81.5"/>
      </g>
      <g transform="matrix(1.05205, 0, 0, 1.05205, -22279.685547, -5814.45459)" id="g446">
        <path id="path448" style="fill:#211d1d;fill-opacity:1;fill-rule:nonzero;stroke:none" d="m 14597,16258.3 c -89.3,0 -161.9,-72.6 -161.9,-161.8 0,-89.3 72.6,-161.8 161.9,-161.8 89.3,0 161.8,72.5 161.8,161.8 0,89.2 -72.5,161.8 -161.8,161.8 z m 0,-365.3 c -112.2,0 -203.5,91.3 -203.5,203.5 0,112.2 91.3,203.5 203.5,203.5 112.2,0 203.5,-91.3 203.5,-203.5 0,-112.2 -91.3,-203.5 -203.5,-203.5"/>
      </g>
      <path id="path454" style="fill:#211d1d;fill-opacity:1;fill-rule:nonzero;stroke:none" d="M -10527.483 6405.785 C -10609.593 6405.785 -10676.403 6338.985 -10676.403 6256.885 C -10676.403 6174.785 -10609.593 6107.985 -10527.483 6107.985 C -10445.373 6107.985 -10378.603 6174.785 -10378.603 6256.885 C -10378.603 6338.985 -10445.373 6405.785 -10527.483 6405.785 Z M -10527.483 6064.085 C -10633.793 6064.085 -10720.263 6150.585 -10720.263 6256.885 C -10720.263 6363.185 -10633.793 6449.685 -10527.483 6449.685 C -10421.223 6449.685 -10334.743 6363.185 -10334.743 6256.885 C -10334.743 6150.585 -10421.223 6064.085 -10527.483 6064.085"/>
      <path id="path464" style="fill:#211d1d;fill-opacity:1;fill-rule:nonzero;stroke:none" d="M -5522.749 8143.025 C -5579.349 8143.025 -5625.449 8096.925 -5625.449 8040.325 C -5625.449 7983.725 -5579.349 7937.625 -5522.749 7937.625 C -5466.149 7937.625 -5420.049 7983.725 -5420.049 8040.325 C -5420.049 8096.925 -5466.149 8143.025 -5522.749 8143.025 Z M -5522.749 7893.725 C -5603.549 7893.725 -5669.349 7959.525 -5669.349 8040.325 C -5669.349 8121.125 -5603.549 8186.825 -5522.749 8186.825 C -5441.949 8186.825 -5376.249 8121.125 -5376.249 8040.325 C -5376.249 7959.525 -5441.949 7893.725 -5522.749 7893.725"/>
      <path id="path466" style="fill:#211d1d;fill-opacity:1;fill-rule:nonzero;stroke:none" d="M -7383.122 3802.354 C -7456.912 3802.354 -7516.962 3742.254 -7516.962 3668.454 C -7516.962 3594.655 -7456.912 3534.655 -7383.122 3534.655 C -7309.322 3534.655 -7249.272 3594.655 -7249.272 3668.454 C -7249.272 3742.254 -7309.322 3802.354 -7383.122 3802.354 Z M -7383.122 3490.756 C -7481.112 3490.756 -7560.822 3570.456 -7560.822 3668.454 C -7560.822 3766.454 -7481.112 3846.154 -7383.122 3846.154 C -7285.122 3846.154 -7205.422 3766.454 -7205.422 3668.454 C -7205.422 3570.456 -7285.122 3490.756 -7383.122 3490.756"/>
      <g transform="matrix(1.27033, 0, 0, 1.27033, -22279.685547, -5814.45459)" id="g468">
        <path id="path470" style="fill:#211d1d;fill-opacity:1;fill-rule:nonzero;stroke:none" d="m 16135.6,13790.6 c -71.6,0 -129.9,-58.2 -129.9,-129.8 0,-71.6 58.3,-129.9 129.9,-129.9 71.6,0 129.8,58.3 129.8,129.9 0,71.6 -58.2,129.8 -129.8,129.8 z m 0,-294.2 c -90.7,0 -164.4,73.7 -164.4,164.4 0,90.6 73.7,164.4 164.4,164.4 90.6,0 164.4,-73.8 164.4,-164.4 0,-90.7 -73.8,-164.4 -164.4,-164.4"/>
      </g>
      <g transform="matrix(1.17286, 0, 0, 1.17286, -22279.685547, -5814.45459)" id="g472">
        <path id="path474" style="fill:#211d1d;fill-opacity:1;fill-rule:nonzero;stroke:none" d="m 10362.1,16262.6 c -62.9,0 -114.1,-51.2 -114.1,-114.1 0,-62.9 51.2,-114.1 114.1,-114.1 62.9,0 114.2,51.2 114.2,114.1 0,62.9 -51.3,114.1 -114.2,114.1 z m 0,-265.6 c -83.5,0 -151.5,67.9 -151.5,151.5 0,83.5 68,151.5 151.5,151.5 83.6,0 151.5,-68 151.5,-151.5 0,-83.6 -67.9,-151.5 -151.5,-151.5"/>
      </g>
      <path id="path480" style="fill:#211d1d;fill-opacity:1;fill-rule:nonzero;stroke:none" d="M -11785.923 4004.085 C -11859.723 4004.085 -11919.773 3944.085 -11919.773 3870.285 C -11919.773 3796.485 -11859.723 3736.485 -11785.923 3736.485 C -11712.133 3736.485 -11652.083 3796.485 -11652.083 3870.285 C -11652.083 3944.085 -11712.133 4004.085 -11785.923 4004.085 Z M -11785.923 3692.585 C -11883.923 3692.585 -11963.623 3772.285 -11963.623 3870.285 C -11963.623 3968.285 -11883.923 4047.985 -11785.923 4047.985 C -11687.933 4047.985 -11608.223 3968.285 -11608.223 3870.285 C -11608.223 3772.285 -11687.933 3692.585 -11785.923 3692.585"/>
      <path id="path490" style="fill:#211d1d;fill-opacity:1;fill-rule:nonzero;stroke:none" d="M -8639.963 4349.385 C -8639.963 4255.785 -8639.963 4162.185 -8639.963 4068.585 C -8639.963 4047.585 -8622.083 4029.685 -8601.063 4029.685 C -8579.963 4029.685 -8562.153 4047.485 -8562.153 4068.585 C -8562.153 4162.185 -8562.153 4255.785 -8562.153 4349.385 C -8562.153 4370.385 -8580.043 4388.285 -8601.063 4388.285 C -8622.153 4388.285 -8639.963 4370.485 -8639.963 4349.385"/>
      <path id="path492" style="fill:#211d1d;fill-opacity:1;fill-rule:nonzero;stroke:none" d="M -8741.453 4170.085 C -8647.853 4170.085 -8554.263 4170.085 -8460.673 4170.085 C -8439.653 4170.085 -8421.773 4187.985 -8421.773 4208.985 C -8421.773 4230.085 -8439.573 4247.885 -8460.673 4247.885 C -8554.263 4247.885 -8647.853 4247.885 -8741.453 4247.885 C -8762.473 4247.885 -8780.343 4229.985 -8780.343 4208.985 C -8780.343 4187.885 -8762.543 4170.085 -8741.453 4170.085"/>
      <g transform="matrix(1.24671, 0, 0, 1.24671, -18584.519531, -326.044189)" id="g494">
        <path id="path496" style="fill:#211d1d;fill-opacity:1;fill-rule:nonzero;stroke:none" d="m 16237.6,8265.71 c 0,-75.07 0,-150.14 0,-225.22 0,-16.86 14.3,-31.18 31.1,-31.18 17,0 31.3,14.27 31.3,31.18 0,75.08 0,150.15 0,225.22 0,16.86 -14.4,31.2 -31.3,31.2 -16.8,0 -31.1,-14.27 -31.1,-31.2 v 0"/>
      </g>
      <g transform="matrix(1.25532, 0, 0, 1.25532, -18584.519531, -326.044189)" id="g498">
        <path id="path500" style="fill:#211d1d;fill-opacity:1;fill-rule:nonzero;stroke:none" d="m 16045.4,8066.21 c 74.6,0 149,0 223.6,0 16.8,0 31,14.25 31,30.99 0,16.81 -14.2,31 -31,31 -74.6,0 -149,0 -223.6,0 -16.8,0 -31,-14.26 -31,-31 0,-16.8 14.2,-30.99 31,-30.99 v 0"/>
      </g>
      <path id="path502" style="fill:#211d1d;fill-opacity:1;fill-rule:nonzero;stroke:none" d="M -8892.049 8041.925 C -8892.049 7948.325 -8892.049 7854.725 -8892.049 7761.125 C -8892.049 7740.125 -8874.149 7722.225 -8853.149 7722.225 C -8832.049 7722.225 -8814.249 7740.025 -8814.249 7761.125 C -8814.249 7854.725 -8814.249 7948.325 -8814.249 8041.925 C -8814.249 8062.925 -8832.149 8080.825 -8853.149 8080.825 C -8874.249 8080.825 -8892.049 8062.925 -8892.049 8041.925"/>
      <path id="path504" style="fill:#211d1d;fill-opacity:1;fill-rule:nonzero;stroke:none" d="M -8993.549 7862.625 C -8899.949 7862.625 -8806.349 7862.625 -8712.749 7862.625 C -8691.749 7862.625 -8673.849 7880.425 -8673.849 7901.525 C -8673.849 7922.625 -8691.649 7940.425 -8712.749 7940.425 C -8806.349 7940.425 -8899.949 7940.425 -8993.549 7940.425 C -9014.549 7940.425 -9032.449 7922.525 -9032.449 7901.525 C -9032.449 7880.425 -9014.649 7862.625 -8993.549 7862.625"/>
      <g transform="matrix(1.36918, 0, 0, 1.36918, -22279.685547, -5814.45459)" id="g510">
        <path id="path512" style="fill:#211d1d;fill-opacity:1;fill-rule:nonzero;stroke:none" d="m 16066.5,10974.5 c 68.4,0 136.7,0 205.1,0 15.3,0 28.4,13.1 28.4,28.4 0,15.4 -13,28.4 -28.4,28.4 -68.4,0 -136.7,0 -205.1,0 -15.3,0 -28.4,-13 -28.4,-28.4 0,-15.4 13,-28.4 28.4,-28.4 v 0"/>
      </g>
      <path id="path-4" style="fill:#211d1d;fill-opacity:1;fill-rule:nonzero;stroke:none" d="M -6416.645 7341.493 C -6490.445 7341.493 -6550.495 7281.493 -6550.495 7207.693 C -6550.495 7133.893 -6490.445 7073.893 -6416.645 7073.893 C -6342.855 7073.893 -6282.805 7133.893 -6282.805 7207.693 C -6282.805 7281.493 -6342.855 7341.493 -6416.645 7341.493 Z M -6416.645 7029.993 C -6514.645 7029.993 -6594.345 7109.693 -6594.345 7207.693 C -6594.345 7305.693 -6514.645 7385.393 -6416.645 7385.393 C -6318.655 7385.393 -6238.945 7305.693 -6238.945 7207.693 C -6238.945 7109.693 -6318.655 7029.993 -6416.645 7029.993"/>
      <path id="path-5" style="fill:#211d1d;fill-opacity:1;fill-rule:nonzero;stroke:none" d="M -9248.162 9534.377 C -9248.162 9440.777 -9248.162 9347.177 -9248.162 9253.577 C -9248.162 9232.577 -9230.282 9214.677 -9209.262 9214.677 C -9188.162 9214.677 -9170.352 9232.477 -9170.352 9253.577 C -9170.352 9347.177 -9170.352 9440.777 -9170.352 9534.377 C -9170.352 9555.377 -9188.242 9573.277 -9209.262 9573.277 C -9230.352 9573.277 -9248.162 9555.477 -9248.162 9534.377"/>
      <path id="path-6" style="fill:#211d1d;fill-opacity:1;fill-rule:nonzero;stroke:none" d="M -9349.652 9355.077 C -9256.052 9355.077 -9162.462 9355.077 -9068.872 9355.077 C -9047.852 9355.077 -9029.972 9372.977 -9029.972 9393.977 C -9029.972 9415.077 -9047.772 9432.877 -9068.872 9432.877 C -9162.462 9432.877 -9256.052 9432.877 -9349.652 9432.877 C -9370.672 9432.877 -9388.542 9414.977 -9388.542 9393.977 C -9388.542 9372.877 -9370.742 9355.077 -9349.652 9355.077"/>
      <path id="path-7" style="fill:#211d1d;fill-opacity:1;fill-rule:nonzero;stroke:none" d="M -845.382 8112.818 C -927.492 8112.818 -994.262 8046.018 -994.262 7963.918 C -994.262 7881.818 -927.492 7815.018 -845.382 7815.018 C -763.272 7815.018 -696.462 7881.818 -696.462 7963.918 C -696.462 8046.018 -763.272 8112.818 -845.382 8112.818 Z M -845.382 7771.218 C -951.642 7771.218 -1038.122 7857.618 -1038.122 7963.918 C -1038.122 8070.218 -951.642 8156.718 -845.382 8156.718 C -739.072 8156.718 -652.602 8070.218 -652.602 7963.918 C -652.602 7857.618 -739.072 7771.218 -845.382 7771.218"/>
      <path id="path-8" style="fill:#211d1d;fill-opacity:1;fill-rule:nonzero;stroke:none" d="M -1934.342 5657.318 C -2016.452 5657.318 -2083.262 5590.518 -2083.262 5508.418 C -2083.262 5426.318 -2016.452 5359.518 -1934.342 5359.518 C -1852.242 5359.518 -1785.462 5426.318 -1785.462 5508.418 C -1785.462 5590.518 -1852.242 5657.318 -1934.342 5657.318 Z M -1934.342 5315.618 C -2040.652 5315.618 -2127.122 5402.118 -2127.122 5508.418 C -2127.122 5614.718 -2040.652 5701.118 -1934.342 5701.118 C -1828.082 5701.118 -1741.602 5614.718 -1741.602 5508.418 C -1741.602 5402.118 -1828.082 5315.618 -1934.342 5315.618"/>
      <path id="path-9" style="fill:#211d1d;fill-opacity:1;fill-rule:nonzero;stroke:none" d="M -7820.899 10721.324 C -7903.009 10721.324 -7969.819 10654.524 -7969.819 10572.424 C -7969.819 10490.324 -7903.009 10423.524 -7820.899 10423.524 C -7738.789 10423.524 -7672.019 10490.324 -7672.019 10572.424 C -7672.019 10654.524 -7738.789 10721.324 -7820.899 10721.324 Z M -7820.899 10379.624 C -7927.209 10379.624 -8013.679 10466.124 -8013.679 10572.424 C -8013.679 10678.724 -7927.209 10765.224 -7820.899 10765.224 C -7714.639 10765.224 -7628.159 10678.724 -7628.159 10572.424 C -7628.159 10466.124 -7714.639 10379.624 -7820.899 10379.624"/>
      <path id="path-10" style="fill:#211d1d;fill-opacity:1;fill-rule:nonzero;stroke:none" d="M -4623.402 6309.018 C -4697.202 6309.018 -4757.252 6249.018 -4757.252 6175.218 C -4757.252 6101.418 -4697.202 6041.418 -4623.402 6041.418 C -4549.612 6041.418 -4489.562 6101.418 -4489.562 6175.218 C -4489.562 6249.018 -4549.612 6309.018 -4623.402 6309.018 Z M -4623.402 5997.518 C -4721.402 5997.518 -4801.102 6077.218 -4801.102 6175.218 C -4801.102 6273.218 -4721.402 6352.918 -4623.402 6352.918 C -4525.412 6352.918 -4445.702 6273.218 -4445.702 6175.218 C -4445.702 6077.218 -4525.412 5997.518 -4623.402 5997.518"/>
      <path id="path-11" style="fill:#211d1d;fill-opacity:1;fill-rule:nonzero;stroke:none" d="M -1477.442 6654.318 C -1477.442 6560.718 -1477.442 6467.118 -1477.442 6373.518 C -1477.442 6352.518 -1459.562 6334.618 -1438.542 6334.618 C -1417.442 6334.618 -1399.632 6352.418 -1399.632 6373.518 C -1399.632 6467.118 -1399.632 6560.718 -1399.632 6654.318 C -1399.632 6675.318 -1417.522 6693.218 -1438.542 6693.218 C -1459.632 6693.218 -1477.442 6675.418 -1477.442 6654.318"/>
      <path id="path-12" style="fill:#211d1d;fill-opacity:1;fill-rule:nonzero;stroke:none" d="M -1578.932 6475.018 C -1485.332 6475.018 -1391.742 6475.018 -1298.152 6475.018 C -1277.132 6475.018 -1259.252 6492.918 -1259.252 6513.918 C -1259.252 6535.018 -1277.052 6552.818 -1298.152 6552.818 C -1391.742 6552.818 -1485.332 6552.818 -1578.932 6552.818 C -1599.952 6552.818 -1617.822 6534.918 -1617.822 6513.918 C -1617.822 6492.818 -1600.022 6475.018 -1578.932 6475.018"/>
      <path id="path-14" style="fill:#211d1d;fill-opacity:1;fill-rule:nonzero;stroke:none" d="M -6738.349 3539.838 C -6767.449 3539.838 -6791.149 3516.138 -6791.149 3486.938 C -6791.149 3457.838 -6767.449 3434.138 -6738.349 3434.138 C -6709.249 3434.138 -6685.549 3457.838 -6685.549 3486.938 C -6685.549 3516.138 -6709.249 3539.838 -6738.349 3539.838 Z M -6738.349 3390.338 C -6791.649 3390.338 -6834.949 3433.638 -6834.949 3486.938 C -6834.949 3540.338 -6791.649 3583.638 -6738.349 3583.638 C -6685.049 3583.638 -6641.649 3540.338 -6641.649 3486.938 C -6641.649 3433.638 -6685.049 3390.338 -6738.349 3390.338"/>
      <g transform="matrix(1.187133, 0, 0, 1.187133, -23319.615234, -6295.05957)" id="g-1">
        <path id="path-15" style="fill:#211d1d;fill-opacity:1;fill-rule:nonzero;stroke:none" d="m 16173.6,8220.84 c -49.3,0 -89.4,-40.18 -89.4,-89.46 0,-49.36 40.1,-89.45 89.4,-89.45 49.3,0 89.4,40.09 89.4,89.45 0,49.28 -40.1,89.46 -89.4,89.46 z m 0,-215.81 c -69.7,0 -126.4,56.61 -126.4,126.35 0,69.67 56.7,126.36 126.4,126.36 69.7,0 126.4,-56.69 126.4,-126.36 0,-69.74 -56.7,-126.35 -126.4,-126.35"/>
      </g>
      <g transform="matrix(1.177959, 0, 0, 1.177959, -24026.044922, 606.208862)" id="g-2">
        <path id="path-16" style="fill:#211d1d;fill-opacity:1;fill-rule:nonzero;stroke:none" d="m 16218,7342.2 c -24.7,0 -44.8,-20.03 -44.8,-44.82 0,-24.71 20.1,-44.82 44.8,-44.82 24.7,0 44.8,20.11 44.8,44.82 0,24.79 -20.1,44.82 -44.8,44.82 z m 0,-126.83 c -45.3,0 -82.1,36.76 -82.1,82.01 0,45.33 36.8,82.09 82.1,82.09 45.2,0 82,-36.76 82,-82.09 0,-45.25 -36.8,-82.01 -82,-82.01"/>
      </g>
      <g transform="matrix(1.346778, 0, 0, 1.346778, -25384.5625, -4067.091064)" id="g-3">
        <path id="path-17" style="fill:#211d1d;fill-opacity:1;fill-rule:nonzero;stroke:none" d="m 16098.6,6993.43 c -93,0 -168.7,-75.74 -168.7,-168.78 0,-93.03 75.7,-168.77 168.7,-168.77 93.1,0 168.8,75.74 168.8,168.77 0,93.04 -75.7,168.78 -168.8,168.78 z m 0,-370.15 c -111,0 -201.3,90.37 -201.3,201.37 0,111.01 90.3,201.3 201.3,201.3 111,0 201.4,-90.29 201.4,-201.3 0,-111 -90.4,-201.37 -201.4,-201.37"/>
      </g>
      <g transform="matrix(1.246708, 0, 0, 1.246708, -23319.615234, -6295.05957)" id="g-4">
        <path id="path-19" style="fill:#211d1d;fill-opacity:1;fill-rule:nonzero;stroke:none" d="m 16237.6,8265.71 c 0,-75.07 0,-150.14 0,-225.22 0,-16.86 14.3,-31.18 31.1,-31.18 17,0 31.3,14.27 31.3,31.18 0,75.08 0,150.15 0,225.22 0,16.86 -14.4,31.2 -31.3,31.2 -16.8,0 -31.1,-14.27 -31.1,-31.2 v 0"/>
      </g>
      <g transform="matrix(1.255321, 0, 0, 1.255321, -23319.615234, -6295.05957)" id="g-5">
        <path id="path-20" style="fill:#211d1d;fill-opacity:1;fill-rule:nonzero;stroke:none" d="m 16045.4,8066.21 c 74.6,0 149,0 223.6,0 16.8,0 31,14.25 31,30.99 0,16.81 -14.2,31 -31,31 -74.6,0 -149,0 -223.6,0 -16.8,0 -31,-14.26 -31,-31 0,-16.8 14.2,-30.99 31,-30.99 v 0"/>
      </g>
      <path id="path-13" style="fill:#211d1d;fill-opacity:1;fill-rule:nonzero;stroke:none" d="M -12849.125 8411.029 C -12931.235 8411.029 -12998.005 8344.229 -12998.005 8262.129 C -12998.005 8180.029 -12931.235 8113.229 -12849.125 8113.229 C -12767.015 8113.229 -12700.205 8180.029 -12700.205 8262.129 C -12700.205 8344.229 -12767.015 8411.029 -12849.125 8411.029 Z M -12849.125 8069.429 C -12955.385 8069.429 -13041.865 8155.829 -13041.865 8262.129 C -13041.865 8368.429 -12955.385 8454.929 -12849.125 8454.929 C -12742.815 8454.929 -12656.345 8368.429 -12656.345 8262.129 C -12656.345 8155.829 -12742.815 8069.429 -12849.125 8069.429"/>
      <path id="path-18" style="fill:#211d1d;fill-opacity:1;fill-rule:nonzero;stroke:none" d="M -9344.147 8416.83 C -9373.247 8416.83 -9396.947 8393.13 -9396.947 8363.93 C -9396.947 8334.83 -9373.247 8311.13 -9344.147 8311.13 C -9315.047 8311.13 -9291.347 8334.83 -9291.347 8363.93 C -9291.347 8393.13 -9315.047 8416.83 -9344.147 8416.83 Z M -9344.147 8267.33 C -9397.447 8267.33 -9440.747 8310.63 -9440.747 8363.93 C -9440.747 8417.33 -9397.447 8460.63 -9344.147 8460.63 C -9290.847 8460.63 -9247.447 8417.33 -9247.447 8363.93 C -9247.447 8310.63 -9290.847 8267.33 -9344.147 8267.33"/>
      <g transform="matrix(1.187133, 0, 0, 1.187133, -23425.742187, 2277.099609)" id="g-6">
        <path id="path-21" style="fill:#211d1d;fill-opacity:1;fill-rule:nonzero;stroke:none" d="m 16173.6,8220.84 c -49.3,0 -89.4,-40.18 -89.4,-89.46 0,-49.36 40.1,-89.45 89.4,-89.45 49.3,0 89.4,40.09 89.4,89.45 0,49.28 -40.1,89.46 -89.4,89.46 z m 0,-215.81 c -69.7,0 -126.4,56.61 -126.4,126.35 0,69.67 56.7,126.36 126.4,126.36 69.7,0 126.4,-56.69 126.4,-126.36 0,-69.74 -56.7,-126.35 -126.4,-126.35"/>
      </g>
      <g transform="matrix(1.177959, 0, 0, 1.177959, -23425.742187, 2277.099609)" id="g-7">
        <path id="path-22" style="fill:#211d1d;fill-opacity:1;fill-rule:nonzero;stroke:none" d="m 16218,7342.2 c -24.7,0 -44.8,-20.03 -44.8,-44.82 0,-24.71 20.1,-44.82 44.8,-44.82 24.7,0 44.8,20.11 44.8,44.82 0,24.79 -20.1,44.82 -44.8,44.82 z m 0,-126.83 c -45.3,0 -82.1,36.76 -82.1,82.01 0,45.33 36.8,82.09 82.1,82.09 45.2,0 82,-36.76 82,-82.09 0,-45.25 -36.8,-82.01 -82,-82.01"/>
      </g>
      <g transform="matrix(1.055509, 0, 0, 1.055509, -23425.742187, 2277.099609)" id="g-8">
        <path id="path-23" style="fill:#211d1d;fill-opacity:1;fill-rule:nonzero;stroke:none" d="m 16218.5,10259.4 c -22,0 -39.9,-17.8 -39.9,-39.8 0,-22.1 17.9,-40 39.9,-40 22,0 39.9,17.9 39.9,40 0,22 -17.9,39.8 -39.9,39.8 z m 0,-121.3 c -44.9,0 -81.5,36.5 -81.5,81.5 0,44.9 36.6,81.4 81.5,81.4 44.9,0 81.5,-36.5 81.5,-81.4 0,-45 -36.6,-81.5 -81.5,-81.5"/>
      </g>
      <g transform="matrix(1.052048, 0, 0, 1.052048, -27120.910156, -3211.311768)" id="g-9">
        <path id="path-24" style="fill:#211d1d;fill-opacity:1;fill-rule:nonzero;stroke:none" d="m 14597,16258.3 c -89.3,0 -161.9,-72.6 -161.9,-161.8 0,-89.3 72.6,-161.8 161.9,-161.8 89.3,0 161.8,72.5 161.8,161.8 0,89.2 -72.5,161.8 -161.8,161.8 z m 0,-365.3 c -112.2,0 -203.5,91.3 -203.5,203.5 0,112.2 91.3,203.5 203.5,203.5 112.2,0 203.5,-91.3 203.5,-203.5 0,-112.2 -91.3,-203.5 -203.5,-203.5"/>
      </g>
      <path id="path-25" style="fill:#211d1d;fill-opacity:1;fill-rule:nonzero;stroke:none" d="M -15368.705 9008.929 C -15450.815 9008.929 -15517.625 8942.129 -15517.625 8860.029 C -15517.625 8777.929 -15450.815 8711.129 -15368.705 8711.129 C -15286.595 8711.129 -15219.825 8777.929 -15219.825 8860.029 C -15219.825 8942.129 -15286.595 9008.929 -15368.705 9008.929 Z M -15368.705 8667.229 C -15475.015 8667.229 -15561.485 8753.729 -15561.485 8860.029 C -15561.485 8966.329 -15475.015 9052.829 -15368.705 9052.829 C -15262.445 9052.829 -15175.965 8966.329 -15175.965 8860.029 C -15175.965 8753.729 -15262.445 8667.229 -15368.705 8667.229"/>
      <path id="path-27" style="fill:#211d1d;fill-opacity:1;fill-rule:nonzero;stroke:none" d="M -10363.971 10746.169 C -10420.571 10746.169 -10466.671 10700.069 -10466.671 10643.469 C -10466.671 10586.869 -10420.571 10540.769 -10363.971 10540.769 C -10307.371 10540.769 -10261.271 10586.869 -10261.271 10643.469 C -10261.271 10700.069 -10307.371 10746.169 -10363.971 10746.169 Z M -10363.971 10496.869 C -10444.771 10496.869 -10510.571 10562.669 -10510.571 10643.469 C -10510.571 10724.269 -10444.771 10789.969 -10363.971 10789.969 C -10283.171 10789.969 -10217.471 10724.269 -10217.471 10643.469 C -10217.471 10562.669 -10283.171 10496.869 -10363.971 10496.869"/>
      <path id="path-28" style="fill:#211d1d;fill-opacity:1;fill-rule:nonzero;stroke:none" d="M -12224.344 6405.498 C -12298.134 6405.498 -12358.184 6345.398 -12358.184 6271.598 C -12358.184 6197.799 -12298.134 6137.799 -12224.344 6137.799 C -12150.544 6137.799 -12090.494 6197.799 -12090.494 6271.598 C -12090.494 6345.398 -12150.544 6405.498 -12224.344 6405.498 Z M -12224.344 6093.9 C -12322.334 6093.9 -12402.044 6173.6 -12402.044 6271.598 C -12402.044 6369.598 -12322.334 6449.298 -12224.344 6449.298 C -12126.344 6449.298 -12046.644 6369.598 -12046.644 6271.598 C -12046.644 6173.6 -12126.344 6093.9 -12224.344 6093.9"/>
      <g transform="matrix(1.270332, 0, 0, 1.270332, -27120.910156, -3211.311768)" id="g-11">
        <path id="path-29" style="fill:#211d1d;fill-opacity:1;fill-rule:nonzero;stroke:none" d="m 16135.6,13790.6 c -71.6,0 -129.9,-58.2 -129.9,-129.8 0,-71.6 58.3,-129.9 129.9,-129.9 71.6,0 129.8,58.3 129.8,129.9 0,71.6 -58.2,129.8 -129.8,129.8 z m 0,-294.2 c -90.7,0 -164.4,73.7 -164.4,164.4 0,90.6 73.7,164.4 164.4,164.4 90.6,0 164.4,-73.8 164.4,-164.4 0,-90.7 -73.8,-164.4 -164.4,-164.4"/>
      </g>
      <path id="path-32" style="fill:#211d1d;fill-opacity:1;fill-rule:nonzero;stroke:none" d="M -13481.185 6952.529 C -13481.185 6858.929 -13481.185 6765.329 -13481.185 6671.729 C -13481.185 6650.729 -13463.305 6632.829 -13442.285 6632.829 C -13421.185 6632.829 -13403.375 6650.629 -13403.375 6671.729 C -13403.375 6765.329 -13403.375 6858.929 -13403.375 6952.529 C -13403.375 6973.529 -13421.265 6991.429 -13442.285 6991.429 C -13463.375 6991.429 -13481.185 6973.629 -13481.185 6952.529"/>
      <path id="path-33" style="fill:#211d1d;fill-opacity:1;fill-rule:nonzero;stroke:none" d="M -13582.675 6773.229 C -13489.075 6773.229 -13395.485 6773.229 -13301.895 6773.229 C -13280.875 6773.229 -13262.995 6791.129 -13262.995 6812.129 C -13262.995 6833.229 -13280.795 6851.029 -13301.895 6851.029 C -13395.485 6851.029 -13489.075 6851.029 -13582.675 6851.029 C -13603.695 6851.029 -13621.565 6833.129 -13621.565 6812.129 C -13621.565 6791.029 -13603.765 6773.229 -13582.675 6773.229"/>
      <g transform="matrix(1.246708, 0, 0, 1.246708, -23425.742187, 2277.099609)" id="g-13">
        <path id="path-34" style="fill:#211d1d;fill-opacity:1;fill-rule:nonzero;stroke:none" d="m 16237.6,8265.71 c 0,-75.07 0,-150.14 0,-225.22 0,-16.86 14.3,-31.18 31.1,-31.18 17,0 31.3,14.27 31.3,31.18 0,75.08 0,150.15 0,225.22 0,16.86 -14.4,31.2 -31.3,31.2 -16.8,0 -31.1,-14.27 -31.1,-31.2 v 0"/>
      </g>
      <g transform="matrix(1.255321, 0, 0, 1.255321, -23425.742187, 2277.099609)" id="g-14">
        <path id="path-35" style="fill:#211d1d;fill-opacity:1;fill-rule:nonzero;stroke:none" d="m 16045.4,8066.21 c 74.6,0 149,0 223.6,0 16.8,0 31,14.25 31,30.99 0,16.81 -14.2,31 -31,31 -74.6,0 -149,0 -223.6,0 -16.8,0 -31,-14.26 -31,-31 0,-16.8 14.2,-30.99 31,-30.99 v 0"/>
      </g>
      <path id="path-36" style="fill:#211d1d;fill-opacity:1;fill-rule:nonzero;stroke:none" d="M -13733.271 10645.069 C -13733.271 10551.469 -13733.271 10457.869 -13733.271 10364.269 C -13733.271 10343.269 -13715.371 10325.369 -13694.371 10325.369 C -13673.271 10325.369 -13655.471 10343.169 -13655.471 10364.269 C -13655.471 10457.869 -13655.471 10551.469 -13655.471 10645.069 C -13655.471 10666.069 -13673.371 10683.969 -13694.371 10683.969 C -13715.471 10683.969 -13733.271 10666.069 -13733.271 10645.069"/>
      <path id="path-37" style="fill:#211d1d;fill-opacity:1;fill-rule:nonzero;stroke:none" d="M -13834.771 10465.769 C -13741.171 10465.769 -13647.571 10465.769 -13553.971 10465.769 C -13532.971 10465.769 -13515.071 10483.569 -13515.071 10504.669 C -13515.071 10525.769 -13532.871 10543.569 -13553.971 10543.569 C -13647.571 10543.569 -13741.171 10543.569 -13834.771 10543.569 C -13855.771 10543.569 -13873.671 10525.669 -13873.671 10504.669 C -13873.671 10483.569 -13855.871 10465.769 -13834.771 10465.769"/>
      <g transform="matrix(1.36918, 0, 0, 1.36918, -27120.910156, -3211.311768)" id="g-15">
        <path id="path-38" style="fill:#211d1d;fill-opacity:1;fill-rule:nonzero;stroke:none" d="m 16066.5,10974.5 c 68.4,0 136.7,0 205.1,0 15.3,0 28.4,13.1 28.4,28.4 0,15.4 -13,28.4 -28.4,28.4 -68.4,0 -136.7,0 -205.1,0 -15.3,0 -28.4,-13 -28.4,-28.4 0,-15.4 13,-28.4 28.4,-28.4 v 0"/>
      </g>
      <path id="path-39" style="fill:#211d1d;fill-opacity:1;fill-rule:nonzero;stroke:none" d="M -13457.324 13596.021 C -13539.434 13596.021 -13606.204 13529.221 -13606.204 13447.121 C -13606.204 13365.021 -13539.434 13298.221 -13457.324 13298.221 C -13375.214 13298.221 -13308.404 13365.021 -13308.404 13447.121 C -13308.404 13529.221 -13375.214 13596.021 -13457.324 13596.021 Z M -13457.324 13254.421 C -13563.584 13254.421 -13650.064 13340.821 -13650.064 13447.121 C -13650.064 13553.421 -13563.584 13639.921 -13457.324 13639.921 C -13351.014 13639.921 -13264.544 13553.421 -13264.544 13447.121 C -13264.544 13340.821 -13351.014 13254.421 -13457.324 13254.421"/>
      <path id="path-40" style="fill:#211d1d;fill-opacity:1;fill-rule:nonzero;stroke:none" d="M -11992.271 11901.291 C -12074.381 11901.291 -12141.191 11834.491 -12141.191 11752.391 C -12141.191 11670.291 -12074.381 11603.491 -11992.271 11603.491 C -11910.171 11603.491 -11843.391 11670.291 -11843.391 11752.391 C -11843.391 11834.491 -11910.171 11901.291 -11992.271 11901.291 Z M -11992.271 11559.591 C -12098.581 11559.591 -12185.051 11646.091 -12185.051 11752.391 C -12185.051 11858.691 -12098.581 11945.091 -11992.271 11945.091 C -11886.011 11945.091 -11799.531 11858.691 -11799.531 11752.391 C -11799.531 11646.091 -11886.011 11559.591 -11992.271 11559.591"/>
      <path id="path-41" style="fill:#211d1d;fill-opacity:1;fill-rule:nonzero;stroke:none" d="M -10923.219 8216.444 C -11005.329 8216.444 -11072.139 8149.644 -11072.139 8067.544 C -11072.139 7985.444 -11005.329 7918.644 -10923.219 7918.644 C -10841.109 7918.644 -10774.339 7985.444 -10774.339 8067.544 C -10774.339 8149.644 -10841.109 8216.444 -10923.219 8216.444 Z M -10923.219 7874.744 C -11029.529 7874.744 -11115.999 7961.244 -11115.999 8067.544 C -11115.999 8173.844 -11029.529 8260.344 -10923.219 8260.344 C -10816.959 8260.344 -10730.479 8173.844 -10730.479 8067.544 C -10730.479 7961.244 -10816.959 7874.744 -10923.219 7874.744"/>
      <path id="path-42" style="fill:#211d1d;fill-opacity:1;fill-rule:nonzero;stroke:none" d="M -10062.372 9183.867 C -10136.172 9183.867 -10196.222 9123.867 -10196.222 9050.067 C -10196.222 8976.267 -10136.172 8916.267 -10062.372 8916.267 C -9988.582 8916.267 -9928.532 8976.267 -9928.532 9050.067 C -9928.532 9123.867 -9988.582 9183.867 -10062.372 9183.867 Z M -10062.372 8872.367 C -10160.372 8872.367 -10240.072 8952.067 -10240.072 9050.067 C -10240.072 9148.067 -10160.372 9227.767 -10062.372 9227.767 C -9964.382 9227.767 -9884.672 9148.067 -9884.672 9050.067 C -9884.672 8952.067 -9964.382 8872.367 -10062.372 8872.367"/>
      <path id="path-43" style="fill:#211d1d;fill-opacity:1;fill-rule:nonzero;stroke:none" d="M -14089.384 12137.521 C -14089.384 12043.921 -14089.384 11950.321 -14089.384 11856.721 C -14089.384 11835.721 -14071.504 11817.821 -14050.484 11817.821 C -14029.384 11817.821 -14011.574 11835.621 -14011.574 11856.721 C -14011.574 11950.321 -14011.574 12043.921 -14011.574 12137.521 C -14011.574 12158.521 -14029.464 12176.421 -14050.484 12176.421 C -14071.574 12176.421 -14089.384 12158.621 -14089.384 12137.521"/>
      <path id="path-44" style="fill:#211d1d;fill-opacity:1;fill-rule:nonzero;stroke:none" d="M -14190.874 11958.221 C -14097.274 11958.221 -14003.684 11958.221 -13910.094 11958.221 C -13889.074 11958.221 -13871.194 11976.121 -13871.194 11997.121 C -13871.194 12018.221 -13888.994 12036.021 -13910.094 12036.021 C -14003.684 12036.021 -14097.274 12036.021 -14190.874 12036.021 C -14211.894 12036.021 -14229.764 12018.121 -14229.764 11997.121 C -14229.764 11976.021 -14211.964 11958.221 -14190.874 11958.221"/>
      <path id="path-45" style="fill:#211d1d;fill-opacity:1;fill-rule:nonzero;stroke:none" d="M -5686.604 10715.962 C -5768.714 10715.962 -5835.484 10649.162 -5835.484 10567.062 C -5835.484 10484.962 -5768.714 10418.162 -5686.604 10418.162 C -5604.494 10418.162 -5537.684 10484.962 -5537.684 10567.062 C -5537.684 10649.162 -5604.494 10715.962 -5686.604 10715.962 Z M -5686.604 10374.362 C -5792.864 10374.362 -5879.344 10460.762 -5879.344 10567.062 C -5879.344 10673.362 -5792.864 10759.862 -5686.604 10759.862 C -5580.294 10759.862 -5493.824 10673.362 -5493.824 10567.062 C -5493.824 10460.762 -5580.294 10374.362 -5686.604 10374.362"/>
      <path id="path-46" style="fill:#211d1d;fill-opacity:1;fill-rule:nonzero;stroke:none" d="M -6775.564 8260.462 C -6857.674 8260.462 -6924.484 8193.662 -6924.484 8111.562 C -6924.484 8029.462 -6857.674 7962.662 -6775.564 7962.662 C -6693.464 7962.662 -6626.684 8029.462 -6626.684 8111.562 C -6626.684 8193.662 -6693.464 8260.462 -6775.564 8260.462 Z M -6775.564 7918.762 C -6881.874 7918.762 -6968.344 8005.262 -6968.344 8111.562 C -6968.344 8217.862 -6881.874 8304.262 -6775.564 8304.262 C -6669.304 8304.262 -6582.824 8217.862 -6582.824 8111.562 C -6582.824 8005.262 -6669.304 7918.762 -6775.564 7918.762"/>
      <path id="path-48" style="fill:#211d1d;fill-opacity:1;fill-rule:nonzero;stroke:none" d="M -8269.129 8151.392 C -8342.929 8151.392 -8402.979 8091.392 -8402.979 8017.592 C -8402.979 7943.792 -8342.929 7883.792 -8269.129 7883.792 C -8195.339 7883.792 -8135.289 7943.792 -8135.289 8017.592 C -8135.289 8091.392 -8195.339 8151.392 -8269.129 8151.392 Z M -8269.129 7839.892 C -8367.129 7839.892 -8446.829 7919.592 -8446.829 8017.592 C -8446.829 8115.592 -8367.129 8195.292 -8269.129 8195.292 C -8171.139 8195.292 -8091.429 8115.592 -8091.429 8017.592 C -8091.429 7919.592 -8171.139 7839.892 -8269.129 7839.892"/>
      <path id="path-49" style="fill:#211d1d;fill-opacity:1;fill-rule:nonzero;stroke:none" d="M -6318.664 9257.462 C -6318.664 9163.862 -6318.664 9070.262 -6318.664 8976.662 C -6318.664 8955.662 -6300.784 8937.762 -6279.764 8937.762 C -6258.664 8937.762 -6240.854 8955.562 -6240.854 8976.662 C -6240.854 9070.262 -6240.854 9163.862 -6240.854 9257.462 C -6240.854 9278.462 -6258.744 9296.362 -6279.764 9296.362 C -6300.854 9296.362 -6318.664 9278.562 -6318.664 9257.462"/>
      <path id="path-50" style="fill:#211d1d;fill-opacity:1;fill-rule:nonzero;stroke:none" d="M -6420.154 9078.162 C -6326.554 9078.162 -6232.964 9078.162 -6139.374 9078.162 C -6118.354 9078.162 -6100.474 9096.062 -6100.474 9117.062 C -6100.474 9138.162 -6118.274 9155.962 -6139.374 9155.962 C -6232.964 9155.962 -6326.554 9155.962 -6420.154 9155.962 C -6441.174 9155.962 -6459.044 9138.062 -6459.044 9117.062 C -6459.044 9095.962 -6441.244 9078.162 -6420.154 9078.162"/>
      <path id="path-51" style="fill:#211d1d;fill-opacity:1;fill-rule:nonzero;stroke:none" d="M -11579.571 6142.982 C -11608.671 6142.982 -11632.371 6119.282 -11632.371 6090.082 C -11632.371 6060.982 -11608.671 6037.282 -11579.571 6037.282 C -11550.471 6037.282 -11526.771 6060.982 -11526.771 6090.082 C -11526.771 6119.282 -11550.471 6142.982 -11579.571 6142.982 Z M -11579.571 5993.482 C -11632.871 5993.482 -11676.171 6036.782 -11676.171 6090.082 C -11676.171 6143.482 -11632.871 6186.782 -11579.571 6186.782 C -11526.271 6186.782 -11482.871 6143.482 -11482.871 6090.082 C -11482.871 6036.782 -11526.271 5993.482 -11579.571 5993.482"/>
      <g transform="matrix(1.187133, 0, 0, 1.187133, -28160.839844, -3691.915283)" id="g-16">
        <path id="path-52" style="fill:#211d1d;fill-opacity:1;fill-rule:nonzero;stroke:none" d="m 16173.6,8220.84 c -49.3,0 -89.4,-40.18 -89.4,-89.46 0,-49.36 40.1,-89.45 89.4,-89.45 49.3,0 89.4,40.09 89.4,89.45 0,49.28 -40.1,89.46 -89.4,89.46 z m 0,-215.81 c -69.7,0 -126.4,56.61 -126.4,126.35 0,69.67 56.7,126.36 126.4,126.36 69.7,0 126.4,-56.69 126.4,-126.36 0,-69.74 -56.7,-126.35 -126.4,-126.35"/>
      </g>
      <g transform="matrix(1.177959, 0, 0, 1.177959, -28867.269531, 3209.351807)" id="g-17">
        <path id="path-53" style="fill:#211d1d;fill-opacity:1;fill-rule:nonzero;stroke:none" d="m 16218,7342.2 c -24.7,0 -44.8,-20.03 -44.8,-44.82 0,-24.71 20.1,-44.82 44.8,-44.82 24.7,0 44.8,20.11 44.8,44.82 0,24.79 -20.1,44.82 -44.8,44.82 z m 0,-126.83 c -45.3,0 -82.1,36.76 -82.1,82.01 0,45.33 36.8,82.09 82.1,82.09 45.2,0 82,-36.76 82,-82.09 0,-45.25 -36.8,-82.01 -82,-82.01"/>
      </g>
      <g transform="matrix(1.346778, 0, 0, 1.346778, -28160.839844, -3691.915283)" id="g-18">
        <path id="path-54" style="fill:#211d1d;fill-opacity:1;fill-rule:nonzero;stroke:none" d="m 16098.6,6993.43 c -93,0 -168.7,-75.74 -168.7,-168.78 0,-93.03 75.7,-168.77 168.7,-168.77 93.1,0 168.8,75.74 168.8,168.77 0,93.04 -75.7,168.78 -168.8,168.78 z m 0,-370.15 c -111,0 -201.3,90.37 -201.3,201.37 0,111.01 90.3,201.3 201.3,201.3 111,0 201.4,-90.29 201.4,-201.3 0,-111 -90.4,-201.37 -201.4,-201.37"/>
      </g>
      <g transform="matrix(1.246708, 0, 0, 1.246708, -28160.839844, -3691.915283)" id="g-19">
        <path id="path-55" style="fill:#211d1d;fill-opacity:1;fill-rule:nonzero;stroke:none" d="m 16237.6,8265.71 c 0,-75.07 0,-150.14 0,-225.22 0,-16.86 14.3,-31.18 31.1,-31.18 17,0 31.3,14.27 31.3,31.18 0,75.08 0,150.15 0,225.22 0,16.86 -14.4,31.2 -31.3,31.2 -16.8,0 -31.1,-14.27 -31.1,-31.2 v 0"/>
      </g>
      <g transform="matrix(1.255321, 0, 0, 1.255321, -28160.839844, -3691.915283)" id="g-20">
        <path id="path-56" style="fill:#211d1d;fill-opacity:1;fill-rule:nonzero;stroke:none" d="m 16045.4,8066.21 c 74.6,0 149,0 223.6,0 16.8,0 31,14.25 31,30.99 0,16.81 -14.2,31 -31,31 -74.6,0 -149,0 -223.6,0 -16.8,0 -31,-14.26 -31,-31 0,-16.8 14.2,-30.99 31,-30.99 v 0"/>
      </g>
      <g transform="matrix(1.052048, 0, 0, 1.052048, -18619.085937, -9260.69043)" id="g-21">
        <path id="path-1" style="fill:#211d1d;fill-opacity:1;fill-rule:nonzero;stroke:none" d="m 14597,16258.3 c -89.3,0 -161.9,-72.6 -161.9,-161.8 0,-89.3 72.6,-161.8 161.9,-161.8 89.3,0 161.8,72.5 161.8,161.8 0,89.2 -72.5,161.8 -161.8,161.8 z m 0,-365.3 c -112.2,0 -203.5,91.3 -203.5,203.5 0,112.2 91.3,203.5 203.5,203.5 112.2,0 203.5,-91.3 203.5,-203.5 0,-112.2 -91.3,-203.5 -203.5,-203.5"/>
      </g>
      <g transform="matrix(1.177959, 0, 0, 1.177959, -21612.72589, 624.106058)" id="g-22">
        <path id="path-2" style="fill:#211d1d;fill-opacity:1;fill-rule:nonzero;stroke:none" d="m 16218,7342.2 c -24.7,0 -44.8,-20.03 -44.8,-44.82 0,-24.71 20.1,-44.82 44.8,-44.82 24.7,0 44.8,20.11 44.8,44.82 0,24.79 -20.1,44.82 -44.8,44.82 z m 0,-126.83 c -45.3,0 -82.1,36.76 -82.1,82.01 0,45.33 36.8,82.09 82.1,82.09 45.2,0 82,-36.76 82,-82.09 0,-45.25 -36.8,-82.01 -82,-82.01"/>
      </g>
      <g transform="matrix(1.36918, 0, 0, 1.36918, -25307.893859, -4864.30483)" id="g-23">
        <path id="path-3" style="fill:#211d1d;fill-opacity:1;fill-rule:nonzero;stroke:none" d="m 16066.5,10974.5 c 68.4,0 136.7,0 205.1,0 15.3,0 28.4,13.1 28.4,28.4 0,15.4 -13,28.4 -28.4,28.4 -68.4,0 -136.7,0 -205.1,0 -15.3,0 -28.4,-13 -28.4,-28.4 0,-15.4 13,-28.4 28.4,-28.4 v 0"/>
      </g>
      <path id="path-47" style="fill:#211d1d;fill-opacity:1;fill-rule:nonzero;stroke:none" d="M -5686.604 10715.962 C -5768.714 10715.962 -5835.484 10649.162 -5835.484 10567.062 C -5835.484 10484.962 -5768.714 10418.162 -5686.604 10418.162 C -5604.494 10418.162 -5537.684 10484.962 -5537.684 10567.062 C -5537.684 10649.162 -5604.494 10715.962 -5686.604 10715.962 Z M -5686.604 10374.362 C -5792.864 10374.362 -5879.344 10460.762 -5879.344 10567.062 C -5879.344 10673.362 -5792.864 10759.862 -5686.604 10759.862 C -5580.294 10759.862 -5493.824 10673.362 -5493.824 10567.062 C -5493.824 10460.762 -5580.294 10374.362 -5686.604 10374.362" transform="matrix(1, 0, 0, 1, 1813.016298, -1652.993063)"/>
      <g transform="matrix(1.052048, 0, 0, 1.052048, -15400.108398, -12184.964844)" id="g-10">
        <path id="path-26" style="fill:#211d1d;fill-opacity:1;fill-rule:nonzero;stroke:none" d="m 14597,16258.3 c -89.3,0 -161.9,-72.6 -161.9,-161.8 0,-89.3 72.6,-161.8 161.9,-161.8 89.3,0 161.8,72.5 161.8,161.8 0,89.2 -72.5,161.8 -161.8,161.8 z m 0,-365.3 c -112.2,0 -203.5,91.3 -203.5,203.5 0,112.2 91.3,203.5 203.5,203.5 112.2,0 203.5,-91.3 203.5,-203.5 0,-112.2 -91.3,-203.5 -203.5,-203.5"/>
      </g>
      <path id="path-30" style="fill:#211d1d;fill-opacity:1;fill-rule:nonzero;stroke:none" d="M -1736.522 4622.368 C -1818.632 4622.368 -1885.402 4555.568 -1885.402 4473.468 C -1885.402 4391.368 -1818.632 4324.568 -1736.522 4324.568 C -1654.412 4324.568 -1587.602 4391.368 -1587.602 4473.468 C -1587.602 4555.568 -1654.412 4622.368 -1736.522 4622.368 Z M -1736.522 4280.768 C -1842.782 4280.768 -1929.262 4367.168 -1929.262 4473.468 C -1929.262 4579.768 -1842.782 4666.268 -1736.522 4666.268 C -1630.212 4666.268 -1543.742 4579.768 -1543.742 4473.468 C -1543.742 4367.168 -1630.212 4280.768 -1736.522 4280.768"/>
      <path id="path-31" style="fill:#211d1d;fill-opacity:1;fill-rule:nonzero;stroke:none" d="M -1466.964 3145.001 C -1549.074 3145.001 -1615.884 3078.201 -1615.884 2996.101 C -1615.884 2914.001 -1549.074 2847.201 -1466.964 2847.201 C -1384.864 2847.201 -1318.084 2914.001 -1318.084 2996.101 C -1318.084 3078.201 -1384.864 3145.001 -1466.964 3145.001 Z M -1466.964 2803.301 C -1573.274 2803.301 -1659.744 2889.801 -1659.744 2996.101 C -1659.744 3102.401 -1573.274 3188.801 -1466.964 3188.801 C -1360.704 3188.801 -1274.224 3102.401 -1274.224 2996.101 C -1274.224 2889.801 -1360.704 2803.301 -1466.964 2803.301"/>
    </g>
  </g>
</svg>