<?xml version="1.0" encoding="utf-8"?>
<svg viewBox="0 0 500 500" xmlns="http://www.w3.org/2000/svg">
  <g transform="matrix(0.956507, 0, 0, -0.956507, 181.354019, 473.753448)" id="g20" style="">
    <path id="path22" style="fill:#f4f3ff;fill-opacity:1;fill-rule:nonzero;stroke:none" d="m 0,0 c -39.725,1.575 -61.648,6.616 -86.822,24.66 -24.149,17.31 -44.949,39.897 -57.499,66.828 -5.658,12.14 -9.639,25.296 -9.542,38.69 0.154,21.132 10.686,41.394 25.997,55.959 9.757,9.281 22.139,16.727 35.6,17.074 23.003,0.595 41.149,-18.711 62.55,-27.164 13.18,-5.206 28.373,-6.146 41.466,-0.724 11.018,4.563 19.772,13.137 29.04,20.642 17.906,14.501 39.928,25.814 62.935,24.553 23.008,-1.261 46.082,-18.427 47.9,-41.397 0.553,-7 -0.701,-14.535 2.71,-20.672 3.583,-6.445 11.165,-9.303 18.07,-11.893 12.738,-4.777 25.607,-10.577 34.716,-20.682 9.109,-10.105 13.548,-25.536 7.381,-37.662 -9.279,-18.243 -35.024,-19.493 -50.843,-32.481 -1.185,-0.971 -2.372,-2.11 -2.708,-3.604 -0.504,-2.236 1.047,-4.388 2.644,-6.031 5.007,-5.151 11.758,-9.425 13.486,-16.398 1.813,-7.322 -3.023,-15.007 -9.523,-18.836 C 161.057,7.033 153.267,6.22 145.742,5.687 114.894,3.506 30.612,-4.385 0,0"/>
  </g>
  <g transform="matrix(1.333333, 0, 0, -1.333333, 457.812775, 191.445328)" id="g15664">
    <path id="path15666" style="fill:#f4f3ff;fill-opacity:1;fill-rule:nonzero;stroke:none" d="m 0,0 c -115.474,-1.59 -107.776,12.415 -107.478,33.013 0.193,13.275 9.517,26.025 22.089,30.288 7.41,2.512 16.285,1.869 22.162,-3.295 7.62,-6.696 8.018,-18.219 12.083,-27.512 2.495,3.382 5.051,6.828 8.496,9.236 3.443,2.409 7.994,3.642 11.919,2.141 3.39,-1.296 5.812,-4.43 7.102,-7.822 1.29,-3.392 1.602,-7.064 1.901,-10.681 4.073,4.531 8.821,8.717 14.599,10.649 5.777,1.932 12.76,1.184 17.066,-3.124 4.307,-4.309 4.617,-12.434 -0.213,-16.146 3.122,0.296 6.346,0.583 9.334,-0.371 2.988,-0.953 5.706,-3.483 5.865,-6.615 C 25.182,4.718 19.335,1.755 14.374,0.819 9.645,-0.072 4.8,-0.349 0,0"/>
  </g>
  <g transform="matrix(1.333333, 0, 0, -1.333333, 276.351257, 92.288383)" id="g17724">
    <path id="path17726" style="fill:#f4f3ff;fill-opacity:1;fill-rule:nonzero;stroke:none" d="m 0,0 c -31.603,-2.319 -52.79,1.532 -60.068,5.583 -2.683,1.493 -5.337,3.21 -7.158,5.684 -1.82,2.473 -2.67,5.855 -1.463,8.679 1.352,3.165 4.959,4.885 8.397,5.016 3.439,0.131 6.782,-1.026 10.029,-2.169 -2.544,3.718 -3.687,8.39 -3.05,12.85 0.637,4.46 3.071,8.654 6.685,11.343 2.976,2.214 6.858,3.393 10.472,2.558 4.217,-0.975 7.463,-4.524 9.196,-8.491 1.733,-3.966 2.191,-8.352 2.63,-12.657 1.345,3.549 3.671,7.363 7.433,7.869 3.129,0.421 6.144,-1.765 7.684,-4.523 1.54,-2.758 1.919,-5.992 2.269,-9.131 0.767,1.116 2.737,2.396 4.456,3.227 1.139,0.552 4.204,1.017 6.035,0.473 3.391,-1.009 6.263,-3.784 8.52,-6.509 2.258,-2.725 3.39,-6.509 2.425,-9.914 C 13.654,6.928 11.352,4.547 8.687,3.009 6.022,1.47 3.001,0.676 0,0"/>
  </g>
  <g transform="matrix(1.333333, 0, 0, -1.333333, 172.287445, 208.812408)" id="g13604">
    <path id="path13606" style="fill:#f4f3ff;fill-opacity:1;fill-rule:nonzero;stroke:none" d="m 0,0 c -53.753,-3.943 -89.793,2.606 -102.171,9.496 -4.564,2.541 -9.079,5.461 -12.175,9.668 -3.096,4.207 -4.542,9.96 -2.49,14.763 2.299,5.384 8.434,8.31 14.284,8.532 5.85,0.223 11.535,-1.746 17.058,-3.688 -4.327,6.324 -6.272,14.271 -5.188,21.856 1.083,7.586 5.223,14.721 11.37,19.294 5.062,3.766 11.667,5.772 17.813,4.351 7.172,-1.658 12.694,-7.696 15.642,-14.442 2.948,-6.746 3.729,-14.206 4.474,-21.53 2.286,6.036 6.244,12.525 12.642,13.386 5.324,0.715 10.452,-3.004 13.071,-7.694 2.619,-4.691 3.264,-10.192 3.858,-15.531 1.306,1.898 4.656,4.075 7.581,5.489 1.938,0.938 7.151,1.729 10.264,0.803 5.77,-1.716 10.654,-6.435 14.494,-11.07 3.84,-4.636 5.765,-11.072 4.125,-16.864 C 23.226,11.784 19.308,7.735 14.776,5.118 10.245,2.501 5.105,1.149 0,0"/>
  </g>
</svg>